<?xml version="1.0" encoding="utf-8"?>	<svg height="56px" version="1.1" viewBox="0 0 56 56" width="56px" xmlns="http://www.w3.org/2000/svg" xmlns:xlink="http://www.w3.org/1999/xlink">		
    		<!-- Generator: Sketch 52.2 (67145) - http://www.bohemiancoding.com/sketch -->		
    		<title>add_Add_emoticon_button</title>		
    		<desc>Created with Sketch.</desc>		
    		<defs>			
        			
    		</defs>		
    		<g fill="none" fill-rule="evenodd" id="add_Add_emoticon_button" stroke="none" stroke-width="1">			
        			<g id="Group" transform="translate(-0.666667, -0.666667)">				
            				<path d="M1.66666667,50.6666667 C1.66666667,53.4202846 3.89260508,55.6540068 6.64326181,55.666613 L6.6468384,55.6702168 L6.6468384,56.6656231 L6.63124216,56.6656231 C3.33709807,56.6656231 0.666666667,53.9951917 0.666666667,50.7010476 C0.666666667,50.6895872 0.666699697,50.6781269 0.666765757,50.6666667 L1.66666667,50.6666667 Z" fill="#000000" id="Combined-Shape"/>				
            				<path d="M51.6666667,50.6666667 C51.6666667,53.4202846 53.8926051,55.6540068 56.6432618,55.666613 L56.6468384,55.6702168 L56.6468384,56.6656231 L56.6312422,56.6656231 C53.3370981,56.6656231 50.6666667,53.9951917 50.6666667,50.7010476 C50.6666667,50.6895872 50.6666997,50.6781269 50.6667658,50.6666667 L51.6666667,50.6666667 Z" fill="#000000" id="Combined-Shape-Copy" transform="translate(53.656753, 53.666145) scale(-1, 1) translate(-53.656753, -53.666145) "/>				
            				<path d="M51.6666667,0.666666667 C51.6666667,3.4202846 53.8926051,5.65400677 56.6432618,5.66661304 L56.6468384,5.67021679 L56.6468384,6.66562309 L56.6312422,6.66562309 C53.3370981,6.66562309 50.6666667,3.99519168 50.6666667,0.7010476 C50.6666667,0.689587218 50.6666997,0.678126859 50.6667658,0.666666667 L51.6666667,0.666666667 Z" fill="#000000" id="Combined-Shape-Copy-2" transform="translate(53.656753, 3.666145) scale(-1, -1) translate(-53.656753, -3.666145) "/>				
            				<path d="M1.66666667,0.666666667 C1.66666667,3.4202846 3.89260508,5.65400677 6.64326181,5.66661304 L6.6468384,5.67021679 L6.6468384,6.66562309 L6.63124216,6.66562309 C3.33709807,6.66562309 0.666666667,3.99519168 0.666666667,0.7010476 C0.666666667,0.689587218 0.666699697,0.678126859 0.666765757,0.666666667 L1.66666667,0.666666667 Z" fill="#000000" id="Combined-Shape-Copy-3" transform="translate(3.656753, 3.666145) scale(1, -1) translate(-3.656753, -3.666145) "/>				
            				<path d="M11.1666667,1.16666667 L16.1666667,1.16666667" id="Line-2-Copy" stroke="#000000" stroke-linecap="square"/>				
            				<path d="M11.1666667,56.1666667 L16.1666667,56.1666667" id="Line-2-Copy-3" stroke="#000000" stroke-linecap="square"/>				
            				<path d="M21.1666667,56.1666667 L26.1666667,56.1666667" id="Line-2-Copy-14" stroke="#000000" stroke-linecap="square"/>				
            				<path d="M31.1666667,1.16666667 L36.1666667,1.16666667" id="Line-2-Copy-2" stroke="#000000" stroke-linecap="square"/>				
            				<path d="M41.1666667,1.16666667 L46.1666667,1.16666667" id="Line-2-Copy-6" stroke="#000000" stroke-linecap="square"/>				
            				<path d="M41.1666667,56.1666667 L46.1666667,56.1666667" id="Line-2-Copy-4" stroke="#000000" stroke-linecap="square"/>				
            				<path d="M56.1666667,11.1666667 L56.1666667,16.1666667" id="Line-2-Copy-7" stroke="#000000" stroke-linecap="square"/>				
            				<path d="M1.16666667,21.1666667 L1.16666667,26.1666667" id="Line-2-Copy-10" stroke="#000000" stroke-linecap="square"/>				
            				<path d="M1.16666667,11.1666667 L1.16666667,16.1666667" id="Line-2-Copy-15" stroke="#000000" stroke-linecap="square"/>				
            				<path d="M31.1666667,56.1666667 L36.1666667,56.1666667" id="Line-2-Copy-5" stroke="#000000" stroke-linecap="square"/>				
            				<path d="M56.1666667,26.1666667 L56.1666667,21.1666667" id="Line-2-Copy-8" stroke="#000000" stroke-linecap="square"/>				
            				<path d="M1.16666667,36.1666667 L1.16666667,31.1666667" id="Line-2-Copy-11" stroke="#000000" stroke-linecap="square"/>				
            				<path d="M56.1666667,36.1666667 L56.1666667,31.1666667" id="Line-2-Copy-9" stroke="#000000" stroke-linecap="square"/>				
            				<path d="M1.16666667,46.1666667 L1.16666667,41.1666667" id="Line-2-Copy-12" stroke="#000000" stroke-linecap="square"/>				
            				<path d="M21.1666667,1.16666667 L26.1666667,1.16666667" id="Line-2" stroke="#000000" stroke-linecap="square"/>				
            				<path d="M56.1666667,46.1666667 L56.1666667,41.1666667" id="Line-2-Copy-13" stroke="#000000" stroke-linecap="square"/>				
        			</g>			
        			<g id="Icons/Outlined/camera" transform="translate(15.333333, 17.333333)">				
            				<mask fill="white" id="mask-2">					
                					
            					<g xlink:href="#path-1"/>				</mask>				
            				
        				<g fill="#000000" fill-rule="nonzero" id="camera" xlink:href="#path-1">					<path d="M15.5483972,2.35555556 L9.78493618,2.35555556 L7.34049173,6.02222222 L1.91111111,6.02222222 L1.91111111,18.9777778 L23.4222222,18.9777778 L23.4222222,6.02222222 L17.9928416,6.02222222 L15.5483972,2.35555556 Z M16.0062766,0.888888889 C16.2106035,0.888888889 16.4014116,0.991006249 16.5147518,1.16101655 L18.7777778,4.55555556 L23.6666667,4.55555556 C24.3416814,4.55555556 24.8888889,5.10276308 24.8888889,5.77777778 L24.8888889,19.2222222 C24.8888889,19.8972369 24.3416814,20.4444444 23.6666667,20.4444444 L1.66666667,20.4444444 C0.991651972,20.4444444 0.444444444,19.8972369 0.444444444,19.2222222 L0.444444444,5.77777778 C0.444444444,5.10276308 0.991651972,4.55555556 1.66666667,4.55555556 L6.55555556,4.55555556 L8.81858156,1.16101655 C8.93192176,0.991006249 9.12272979,0.888888889 9.32705674,0.888888889 L16.0062766,0.888888889 Z M12.6666667,15.3111111 C14.5567078,15.3111111 16.0888889,13.77893 16.0888889,11.8888889 C16.0888889,9.99884775 14.5567078,8.46666667 12.6666667,8.46666667 C10.7766255,8.46666667 9.24444444,9.99884775 9.24444444,11.8888889 C9.24444444,13.77893 10.7766255,15.3111111 12.6666667,15.3111111 Z M12.6666667,16.7777778 C9.96660789,16.7777778 7.77777778,14.5889477 7.77777778,11.8888889 C7.77777778,9.18883011 9.96660789,7 12.6666667,7 C15.3667254,7 17.5555556,9.18883011 17.5555556,11.8888889 C17.5555556,14.5889477 15.3667254,16.7777778 12.6666667,16.7777778 Z" id="path-1"/>				</g>			</g>			
    		</g>		
	</svg>