<?xml version="1.0" encoding="UTF-8"?>
<svg width="72px" height="72px" viewBox="0 0 72 72" version="1.1" xmlns="http://www.w3.org/2000/svg" xmlns:xlink="http://www.w3.org/1999/xlink">
    <!-- Generator: Sketch 52.2 (67145) - http://www.bohemiancoding.com/sketch -->
    <title>icons_filled_music_off</title>
    <desc>Created with Sketch.</desc>
    <g id="icons_filled_music_off" stroke="none" stroke-width="1" fill="none" fill-rule="evenodd">
        <g id="Icons/Filed/music" fill="#000000">
            <g id="common_icons_music">
                <path d="M27.9922076,18.6282466 L52.9690045,43.6050435 C53.6077893,43.0463833 54,42.2275713 54,41.3346242 L54,12.9265385 L27.9922076,18.6282466 Z M58.5,49.136039 L66.2756493,56.9116882 L63.0936688,60.0936688 L12.1819805,9.18198052 L15.363961,6 L23.8733472,14.5093861 L56.6791068,7.32496467 C57.4883552,7.14774025 58.2880495,7.66009693 58.4652739,8.46934535 C58.4883572,8.5747494 58.5,8.68233649 58.5,8.79023855 L58.5,49.136039 Z M24,27.363961 L24,57.6038057 C24,60.4129682 22.1187407,63.1520874 19.5884136,64.3321961 C19.1180357,64.5515737 16.146579,65.215724 15.7585823,65.2937802 C12.030496,66.0437868 9.1660346,62.8504772 9.00828486,59.6213432 C8.85053512,56.3922092 10.9681898,53.6995845 13.4252089,53.2052878 L17.2187421,52.2534623 C18.5597028,51.9170054 19.5,50.7116344 19.5,49.3291081 L19.5,22.863961 L24,27.363961 Z M53.2323947,56.5963557 C52.1653696,56.8775159 50.474274,57.2505471 50.1870215,57.3078384 C46.4265639,58.057845 43.5372303,54.8645354 43.3781108,51.6354014 C43.3063742,50.1795966 43.7011332,48.8328382 44.3834424,47.7474034 L53.2323947,56.5963557 Z" id="Mask"></path>
            </g>
        </g>
    </g>
</svg>