<?xml version="1.0" encoding="UTF-8"?>
<svg width="24px" height="24px" viewBox="0 0 24 24" version="1.1" xmlns="http://www.w3.org/2000/svg" xmlns:xlink="http://www.w3.org/1999/xlink">
    <!-- Generator: Sketch 50.2 (55047) - http://www.bohemiancoding.com/sketch -->
    <title>icons_outlined_mosaic</title>
    <desc>Created with Sketch.</desc>
    <defs></defs>
    <g id="icons_outlined_mosaic" stroke="none" stroke-width="1" fill="none" fill-rule="evenodd">
        <path d="M11,15 L13,15 L13,17 L11,17 L11,15 Z M7,15 L9,15 L9,17 L7,17 L7,15 Z M15,15 L17,15 L17,17 L15,17 L15,15 Z M15,7 L17,7 L17,9 L15,9 L15,7 Z M7,11 L9,11 L9,13 L7,13 L7,11 Z M7,7 L9,7 L9,9 L7,9 L7,7 Z M9,13 L11,13 L11,15 L9,15 L9,13 Z M9,9 L11,9 L11,11 L9,11 L9,9 Z M13,13 L15,13 L15,15 L13,15 L13,13 Z M13,9 L15,9 L15,11 L13,11 L13,9 Z M11,7 L13,7 L13,9 L11,9 L11,7 Z M11,11 L13,11 L13,13 L11,13 L11,11 Z M15,11 L17,11 L17,13 L15,13 L15,11 Z M4.2,4.2 L4.2,19.8 L19.8,19.8 L19.8,4.2 L4.2,4.2 Z M4,3 L20,3 C20.5522847,3 21,3.44771525 21,4 L21,20 C21,20.5522847 20.5522847,21 20,21 L4,21 C3.44771525,21 3,20.5522847 3,20 L3,4 C3,3.44771525 3.44771525,3 4,3 Z" id="Combined-Shape" fill="#000000"></path>
    </g>
</svg>