<?xml version="1.0" encoding="UTF-8"?>
<svg width="24px" height="24px" viewBox="0 0 24 24" version="1.1" xmlns="http://www.w3.org/2000/svg" xmlns:xlink="http://www.w3.org/1999/xlink">
    <!-- Generator: Sketch 50.2 (55047) - http://www.bohemiancoding.com/sketch -->
    <title>icons_outlined_translate</title>
    <desc>Created with Sketch.</desc>
    <defs></defs>
    <g id="icons_outlined_translate" stroke="none" stroke-width="1" fill="none" fill-rule="evenodd">
        <g id="Group-9" fill="#000000" fill-rule="nonzero">
            <g id="Group-10" transform="translate(2.000000, 2.000000)">
                <path d="M1.2,9.2 L1.2,18.8 L10.8,18.8 L10.8,9.2 L1.2,9.2 Z M8,8 L8,1.00247329 C8,0.455760956 8.44882258,0 9.00247329,0 L18.9975267,0 C19.544239,0 20,0.448822582 20,1.00247329 L20,10.9975267 C20,11.544239 19.5511774,12 18.9975267,12 L12,12 L12,18.9975267 C12,19.544239 11.5511774,20 10.9975267,20 L1.00247329,20 C0.455760956,20 0,19.5511774 0,18.9975267 L0,9.00247329 C0,8.45576096 0.448822582,8 1.00247329,8 L8,8 Z M9.2,8 L10.9975267,8 C11.544239,8 12,8.44882258 12,9.00247329 L12,10.8 L18.8,10.8 L18.8,1.2 L9.2,1.2 L9.2,8 Z M6.94499638,12.6968862 L4.78057032,12.6968862 C5.06288676,13.3628635 5.44654757,13.9564519 5.93155274,14.4704126 C6.35864685,13.9781686 6.69887435,13.391819 6.94499638,12.6968862 Z M9.22524457,12.6968862 L8.13217322,12.6968862 C7.79194571,13.6813744 7.32865719,14.4993681 6.73506877,15.1725843 C7.45895708,15.6937839 8.33486194,16.0774447 9.3845,16.3090889 C9.14561686,16.5407332 8.83434488,17.0040217 8.67508945,17.293577 C7.56030145,17.0040217 6.65544105,16.555211 5.90983609,15.9543837 C5.12079783,16.5769276 4.16526525,17.0329772 3.02152172,17.3514881 C2.90569959,17.0981272 2.58718873,16.6058831 2.3845,16.3597611 C3.49204912,16.1136391 4.39690951,15.7372172 5.12803671,15.2015398 C4.52720941,14.506607 4.06392089,13.6741355 3.68749897,12.6968862 L2.54375543,12.6968862 L2.54375543,11.6689648 L5.52617528,11.6689648 C5.45378645,11.3794095 5.32348656,11.0102265 5.18594778,10.7206711 L6.31521355,10.3876825 C6.49618563,10.72791 6.69887435,11.1839597 6.77126319,11.4879928 L6.18491365,11.6689648 L9.22524457,11.6689648 L9.22524457,12.6968862 Z M15.5507812,8.63671875 L15.1210938,7.26953125 L13.140625,7.26953125 L12.7109375,8.63671875 L11.5,8.63671875 L13.4570312,3 L14.84375,3 L16.8046875,8.63671875 L15.5507812,8.63671875 Z M14.1171875,4.078125 L13.3945312,6.38671875 L14.8671875,6.38671875 L14.1445312,4.078125 L14.1171875,4.078125 Z" id="Rectangle-44"></path>
            </g>
        </g>
    </g>
</svg>