<?xml version="1.0" encoding="UTF-8"?>
<svg width="24px" height="24px" viewBox="0 0 24 24" version="1.1" xmlns="http://www.w3.org/2000/svg" xmlns:xlink="http://www.w3.org/1999/xlink">
    <!-- Generator: Sketch 52.2 (67145) - http://www.bohemiancoding.com/sketch -->
    <title>icons_filled_lock</title>
    <desc>Created with Sketch.</desc>
    <g id="icons_filled_lock" stroke="none" stroke-width="1" fill="none" fill-rule="evenodd">
        <g id="icon37" fill="#000000">
            <path d="M7.5,9 L7.5,6.5 C7.5,4.01471863 9.51471863,2 12,2 C14.4852814,2 16.5,4.01471863 16.5,6.5 L16.5,9 L18.9991283,9 C19.5518945,9 20,9.44748943 20,9.99850233 L20,21.0014977 C20,21.5529553 19.5553691,22 18.9991283,22 L5.00087166,22 C4.4481055,22 4,21.5525106 4,21.0014977 L4,9.99850233 C4,9.44704472 4.44463086,9 5.00087166,9 L7.5,9 Z M9,9 L15,9 L15,6.5 C15,4.84314575 13.6568542,3.5 12,3.5 C10.3431458,3.5 9,4.84314575 9,6.5 L9,9 Z M11.3999996,15.8751867 L11.3999996,18 L12.5999997,18 L12.5999997,15.875187 C13.1297713,15.6437201 13.5,15.1150958 13.5,14.5 C13.5,13.6715729 12.8284271,13 12,13 C11.1715729,13 10.5,13.6715729 10.5,14.5 C10.5,15.1150956 10.8702284,15.6437197 11.3999996,15.8751867 Z" id="Combined-Shape"></path>
        </g>
    </g>
</svg>