<?xml version="1.0" encoding="UTF-8"?>
<svg width="32px" height="32px" viewBox="0 0 32 32" version="1.1" xmlns="http://www.w3.org/2000/svg" xmlns:xlink="http://www.w3.org/1999/xlink">
    <!-- Generator: Sketch 52.2 (67145) - http://www.bohemiancoding.com/sketch -->
    <title>Icons_Filled_removeBG</title>
    <desc>Created with Sketch.</desc>
    <g id="Icons_Filled_removeBG" stroke="none" stroke-width="1" fill="none" fill-rule="evenodd">
        <g id="Group" transform="translate(4.000000, 4.000000)" fill="#000000">
            <path d="M4.8703821,23.2 L1.81818182,23.2 C1.25585553,23.2 0.8,22.7441445 0.8,22.1818182 L0.8,18.1201388 L2.30477131,18.1201388 L2.30477131,21.8 L4.8703821,21.8 L21.666152,21.7843345 L21.666152,18.1109687 L23.1976548,18.1109687 L23.1976548,22.1818182 C23.1976548,22.7441445 22.7417993,23.2 22.179473,23.2 L4.8703821,23.2 Z M1.81818182,0.8 L5.91672895,0.8 L5.91672895,2.34767512 L2.32257725,2.34767512 L2.32257725,5.88353299 L0.8,5.88353299 L0.8,1.81818182 C0.8,1.25585553 1.25585553,0.8 1.81818182,0.8 Z M22.179473,0.8 C22.7417993,0.8 23.1976548,1.25585553 23.1976548,1.81818182 L23.1976548,5.90321652 L21.644531,5.90321652 L21.644531,2.36310276 L18.1407406,2.36310276 L18.1407406,0.8 L22.179473,0.8 Z M8.94545455,0.8 L15.0545455,0.8 L15.0545455,2.32727273 L8.94545455,2.32727273 L8.94545455,0.8 Z M0.8,8.94241781 L2.32727273,8.94241781 L2.32727273,15.0372039 L0.8,15.0372039 L0.8,8.94241781 Z M21.6727273,8.94545455 L23.2,8.94545455 L23.2,15.0402406 L21.6727273,15.0402406 L21.6727273,8.94545455 Z" id="Combined-Shape"></path>
            <path d="M3.6129917,21.1037528 L20.3879966,21.1037528 C20.2620105,20.9163012 20.0997642,20.7575305 19.9312057,20.6750815 L14.3701568,17.9549387 C13.1517462,17.3589629 12.8578535,15.9518322 13.7304285,14.9146111 L14.0856183,14.4924005 C14.7004501,13.7615562 15.2298246,12.3114215 15.2298246,11.3555903 L15.2298246,9.67094514 C15.2298246,7.88183066 13.7825971,6.43 12,6.43 C10.2194051,6.43 8.77017544,7.88197578 8.77017544,9.67032734 L8.77017544,11.3547085 C8.77017544,12.3126578 9.29751724,13.7578268 9.91435108,14.4909505 L10.2695409,14.9131032 C11.1439511,15.9523634 10.8468764,17.358043 9.62994567,17.9535413 L4.06889696,20.6748097 C3.90113636,20.7569024 3.739076,20.9160636 3.6129917,21.1037528 Z" id="Path" stroke="#000000" stroke-width="1.4" fill-opacity="0.98" fill-rule="nonzero"></path>
        </g>
    </g>
</svg>