<?xml version="1.0" encoding="UTF-8"?>
<svg width="24px" height="24px" viewBox="0 0 24 24" version="1.1" xmlns="http://www.w3.org/2000/svg" xmlns:xlink="http://www.w3.org/1999/xlink">
    <!-- Generator: Sketch 50.2 (55047) - http://www.bohemiancoding.com/sketch -->
    <title>icons_outlined_lock</title>
    <desc>Created with Sketch.</desc>
    <defs></defs>
    <g id="icons_outlined_lock" stroke="none" stroke-width="1" fill="none" fill-rule="evenodd">
        <g id="icon37" fill="#000000" fill-rule="nonzero">
            <g id="Group-8" transform="translate(4.000000, 2.000000)">
                <path d="M4,7 L4,4 C4,1.790861 5.790861,0 8,0 C10.209139,0 12,1.790861 12,4 L12,7 L14.9991283,7 C15.5518945,7 16,7.44748943 16,7.99850233 L16,19.0014977 C16,19.5529553 15.5553691,20 14.9991283,20 L1.00087166,20 C0.448105505,20 0,19.5525106 0,19.0014977 L0,7.99850233 C0,7.44704472 0.444630861,7 1.00087166,7 L4,7 Z M5.20000005,7 L10.7999992,7 L10.7999992,4 C10.7999969,2.45359963 9.54639417,1.19999695 7.9999969,1.19999695 C6.45359963,1.19999695 5.19999695,2.45359963 5.19999695,3.9999969 L5.20000005,7 Z M1.2,8.2 L1.2,18.8 L14.8,18.8 L14.8,8.2 L1.2,8.2 Z M7.39999962,13.8751867 C6.87022839,13.6437197 6.5,13.1150956 6.5,12.5 C6.5,11.6715729 7.17157288,11 8,11 C8.82842712,11 9.5,11.6715729 9.5,12.5 C9.5,13.1150958 9.12977128,13.6437201 8.59999967,13.875187 L8.59999967,16 L7.39999962,16 L7.39999962,13.8751867 Z" id="Rectangle-701"></path>
            </g>
        </g>
    </g>
</svg>