<?xml version="1.0" encoding="UTF-8"?>
<svg width="24px" height="24px" viewBox="0 0 24 24" version="1.1" xmlns="http://www.w3.org/2000/svg" xmlns:xlink="http://www.w3.org/1999/xlink">
    <!-- Generator: Sketch 52.2 (67145) - http://www.bohemiancoding.com/sketch -->
    <title>icons_filled_keyboard</title>
    <desc>Created with Sketch.</desc>
    <g id="icons_filled_keyboard" stroke="none" stroke-width="1" fill="none" fill-rule="evenodd">
        <g id="common_icons_info" fill="#000000" fill-rule="nonzero">
            <path d="M12,22 C6.4771525,22 2,17.5228475 2,12 C2,6.4771525 6.4771525,2 12,2 C17.5228475,2 22,6.4771525 22,12 C22,17.5228475 17.5228475,22 12,22 Z M6.5,8 L6.5,10 L8.5,10 L8.5,8 L6.5,8 Z M9.5,8 L9.5,10 L11.5,10 L11.5,8 L9.5,8 Z M12.5,8 L12.5,10 L14.5,10 L14.5,8 L12.5,8 Z M15.5,8 L15.5,10 L17.5,10 L17.5,8 L15.5,8 Z M6.5,11 L6.5,13 L8.5,13 L8.5,11 L6.5,11 Z M9.5,11 L9.5,13 L11.5,13 L11.5,11 L9.5,11 Z M9,15 L9,17 L15,17 L15,15 L9,15 Z M12.5,11 L12.5,13 L14.5,13 L14.5,11 L12.5,11 Z M15.5,11 L15.5,13 L17.5,13 L17.5,11 L15.5,11 Z" id="Mask"></path>
        </g>
    </g>
</svg>