<?xml version="1.0" encoding="UTF-8"?>
<svg width="24px" height="24px" viewBox="0 0 24 24" version="1.1" xmlns="http://www.w3.org/2000/svg" xmlns:xlink="http://www.w3.org/1999/xlink">
    <!-- Generator: Sketch 52.2 (67145) - http://www.bohemiancoding.com/sketch -->
    <title>icons_filled_link</title>
    <desc>Created with Sketch.</desc>
    <g id="icons_filled_link" stroke="none" stroke-width="1" fill="none" fill-rule="evenodd">
        <path d="M17.6568542,12 L16.2426407,10.5857864 L18.363961,8.46446609 C19.1450096,7.68341751 19.1450096,6.41708755 18.363961,5.63603897 C17.5829124,4.85499039 16.3165825,4.85499039 15.5355339,5.63603897 L11.2928932,9.87867966 C10.5118446,10.6597282 10.5118446,11.9260582 11.2928932,12.7071068 L9.87867966,14.1213203 C8.31658249,12.5592232 8.31658249,10.0265633 9.87867966,8.46446609 L14.1213203,4.22182541 C15.6834175,2.65972824 18.2160774,2.65972824 19.7781746,4.22182541 C21.3402718,5.78392257 21.3402718,8.31658249 19.7781746,9.87867966 L17.6568542,12 Z M6.34314575,12 L7.75735931,13.4142136 L5.63603897,15.5355339 C4.85499039,16.3165825 4.85499039,17.5829124 5.63603897,18.363961 C6.41708755,19.1450096 7.68341751,19.1450096 8.46446609,18.363961 L12.7071068,14.1213203 C13.4881554,13.3402718 13.4881554,12.0739418 12.7071068,11.2928932 L14.1213203,9.87867966 C15.6834175,11.4407768 15.6834175,13.9734367 14.1213203,15.5355339 L9.87867966,19.7781746 C8.31658249,21.3402718 5.78392257,21.3402718 4.22182541,19.7781746 C2.65972824,18.2160774 2.65972824,15.6834175 4.22182541,14.1213203 L6.34314575,12 Z" id="Combined-Shape" fill="#000000" fill-rule="nonzero"></path>
    </g>
</svg>