<?xml version="1.0" encoding="UTF-8"?>
<svg width="24px" height="24px" viewBox="0 0 24 24" version="1.1" xmlns="http://www.w3.org/2000/svg" xmlns:xlink="http://www.w3.org/1999/xlink">
    <!-- Generator: Sketch 50.2 (55047) - http://www.bohemiancoding.com/sketch -->
    <title>icons_outlined_mike</title>
    <desc>Created with Sketch.</desc>
    <defs></defs>
    <g id="icons_outlined_mike" stroke="none" stroke-width="1" fill="none" fill-rule="evenodd">
        <g id="Group" fill="#000000" fill-rule="nonzero">
            <path d="M8.7,6.5 L8.7,12.5 C8.7,14.3225397 10.1774603,15.8 12,15.8 C13.8225397,15.8 15.3,14.3225397 15.3,12.5 L15.3,6.5 C15.3,4.67746033 13.8225397,3.2 12,3.2 C10.1774603,3.2 8.7,4.67746033 8.7,6.5 Z M12.5999997,19.9763496 L12.5999997,23 L11.3999996,23 L11.3999996,19.9763495 C7.53839884,19.670687 4.5,16.4401715 4.5,12.5 L4.5,11 L5.7,11 L5.7,12.5 C5.7,15.9793939 8.52060608,18.8 12,18.8 C15.4793939,18.8 18.3,15.9793939 18.3,12.5 L18.3,11 L19.5,11 L19.5,12.5 C19.5,16.4401718 16.4616008,19.6706874 12.5999997,19.9763496 Z M7.5,6.5 C7.5,4.01471863 9.51471863,2 12,2 C14.4852814,2 16.5,4.01471863 16.5,6.5 L16.5,12.5 C16.5,14.9852814 14.4852814,17 12,17 C9.51471863,17 7.5,14.9852814 7.5,12.5 L7.5,6.5 Z" id="Rectangle-112"></path>
        </g>
    </g>
</svg>