<?xml version="1.0" encoding="UTF-8"?>
<svg width="24px" height="24px" viewBox="0 0 24 24" version="1.1" xmlns="http://www.w3.org/2000/svg" xmlns:xlink="http://www.w3.org/1999/xlink">
    <!-- Generator: Sketch 52.2 (67145) - http://www.bohemiancoding.com/sketch -->
    <title>icons_filled_help</title>
    <desc>Created with Sketch.</desc>
    <g id="icons_filled_help" stroke="none" stroke-width="1" fill="none" fill-rule="evenodd">
        <g id="icon10" fill="#000000">
            <path d="M12,22 C6.4771525,22 2,17.5228475 2,12 C2,6.4771525 6.4771525,2 12,2 C17.5228475,2 22,6.4771525 22,12 C22,17.5228475 17.5228475,22 12,22 Z M9,9.78222656 L10.6064453,9.78222656 C10.6611328,8.93457031 11.2285156,8.39453125 12.1103516,8.39453125 C12.9716797,8.39453125 13.5458984,8.92089844 13.5458984,9.64550781 C13.5458984,10.3222656 13.2587891,10.6914062 12.4111328,11.2041016 C11.4677734,11.7578125 11.0712891,12.3730469 11.1328125,13.3847656 L11.1396484,13.8701172 L12.7255859,13.8701172 L12.7255859,13.4736328 C12.7255859,12.7900391 12.9785156,12.4345703 13.8740234,11.9150391 C14.8037109,11.3613281 15.3232422,10.6298828 15.3232422,9.58398438 C15.3232422,8.08007812 14.0722656,7 12.1992188,7 C10.1689453,7 9.0546875,8.17578125 9,9.78222656 Z M11.953125,17.0830078 C12.5068359,17.0830078 12.9443359,16.6523438 12.9443359,16.1123047 C12.9443359,15.5722656 12.5068359,15.1484375 11.953125,15.1484375 C11.3994141,15.1484375 10.9550781,15.5722656 10.9550781,16.1123047 C10.9550781,16.6523438 11.3994141,17.0830078 11.953125,17.0830078 Z" id="Combined-Shape"></path>
        </g>
    </g>
</svg>