<?xml version="1.0" encoding="UTF-8"?>
<svg width="24px" height="24px" viewBox="0 0 24 24" version="1.1" xmlns="http://www.w3.org/2000/svg" xmlns:xlink="http://www.w3.org/1999/xlink">
    <!-- Generator: Sketch 52.2 (67145) - http://www.bohemiancoding.com/sketch -->
    <title>icons_filled_more2</title>
    <desc>Created with Sketch.</desc>
    <g id="icons_filled_more2" stroke="none" stroke-width="1" fill="none" fill-rule="evenodd">
        <g id="common_icons_miniprogram" fill="#000000" fill-rule="nonzero">
            <path d="M12,22 C6.4771525,22 2,17.5228475 2,12 C2,6.4771525 6.4771525,2 12,2 C17.5228475,2 22,6.4771525 22,12 C22,17.5228475 17.5228475,22 12,22 Z M12,13.5 C12.8284271,13.5 13.5,12.8284271 13.5,12 C13.5,11.1715729 12.8284271,10.5 12,10.5 C11.1715729,10.5 10.5,11.1715729 10.5,12 C10.5,12.8284271 11.1715729,13.5 12,13.5 Z M16.5,13.5 C17.3284271,13.5 18,12.8284271 18,12 C18,11.1715729 17.3284271,10.5 16.5,10.5 C15.6715729,10.5 15,11.1715729 15,12 C15,12.8284271 15.6715729,13.5 16.5,13.5 Z M7.5,13.5 C8.32842712,13.5 9,12.8284271 9,12 C9,11.1715729 8.32842712,10.5 7.5,10.5 C6.67157288,10.5 6,11.1715729 6,12 C6,12.8284271 6.67157288,13.5 7.5,13.5 Z" id="Combined-Shape"></path>
        </g>
    </g>
</svg>