<?xml version="1.0" encoding="UTF-8"?>
<svg width="24px" height="24px" viewBox="0 0 24 24" version="1.1" xmlns="http://www.w3.org/2000/svg" xmlns:xlink="http://www.w3.org/1999/xlink">
    <!-- Generator: Sketch 50.2 (55047) - http://www.bohemiancoding.com/sketch -->
    <title>icons_outlined_group-detail</title>
    <desc>Created with Sketch.</desc>
    <defs></defs>
    <g id="icons_outlined_group-detail" stroke="none" stroke-width="1" fill="none" fill-rule="evenodd">
        <g id="icon14" fill="#000000" fill-rule="nonzero">
            <path d="M2.2,19.8 L18.8,19.8 L18.8,19.3154633 C18.8,19.0860594 18.564679,18.7100199 18.3598095,18.6100873 L12.6994561,15.8490401 C11.1728743,15.1043932 10.7955728,13.302913 11.8893366,12.0063685 L12.2508692,11.5778088 C12.802195,10.9242686 13.3,9.56439093 13.3,8.71018568 L13.3,7.00020747 C13.3,5.4549142 12.0455898,4.2 10.5,4.2 C8.95630885,4.2 7.7,5.4552027 7.7,6.99958038 L7.7,8.70929053 C7.7,9.56566389 8.19574673,10.9204838 8.74907842,11.5763118 L9.11061095,12.0048127 C10.2066364,13.3038601 9.82521432,15.1036503 8.30071945,15.8475869 L2.6403663,18.6097766 C2.43701709,18.7090088 2.2,19.0886771 2.2,19.3154633 L2.2,19.8 Z M13.4960944,4.35064233 C13.9490802,4.12626413 14.4599583,4 15,4 C16.8603276,4 18.3684211,5.49415019 18.3684211,7.33350622 L18.3684211,8.75848807 C18.3684211,9.70774662 17.8639431,11.0690503 17.2468102,11.7929775 L16.9423618,12.1501106 C16.445922,12.7324589 16.6010002,13.4736647 17.2951991,13.8087587 L22.0618125,16.1096313 C22.5799592,16.3597438 23,17.0209751 23,17.5962194 L23,18.1679682 C23,18.6274867 22.6202734,19 22.1566909,19 L19.9676453,19 C19.9887855,19.1061337 20,19.2119585 20,19.3154633 L20,20.0015619 C20,20.552984 19.5490746,21 18.9985704,21 L2.00142961,21 C1.44835531,21 1,20.5557555 1,20.0015619 L1,19.3154633 C1,18.6303744 1.49815091,17.8319079 2.11409761,17.5313327 L7.77445076,14.769143 C8.59537712,14.36854 8.78625906,13.4812624 8.19344522,12.7786389 L7.83191269,12.350138 C7.09631763,11.4782852 6.5,9.84949648 6.5,8.70929053 L6.5,6.99958038 C6.5,4.79067313 8.29535615,3 10.5,3 C11.6925681,3 12.7632414,3.52251142 13.4960868,4.35063371 Z M14.1531568,5.36930666 C14.3760552,5.86753487 14.5,6.41953623 14.5,7.00020747 L14.5,8.71018568 C14.5,9.84929595 13.9009324,11.4828603 13.1680872,12.351573 L12.8065546,12.7801327 C12.2170324,13.4789507 12.4011877,14.3683976 13.225549,14.7705104 L18.8859024,17.5315576 C19.0233929,17.5986237 19.1550664,17.690323 19.2766575,17.8 L21.8,17.8 L21.8,17.5962194 C21.8,17.4845959 21.6463054,17.2415527 21.5401598,17.1903156 L16.7735464,14.8894429 C15.3727962,14.2132924 15.0215331,12.5536065 16.0291527,11.371619 L16.3336012,11.0144859 C16.76679,10.506334 17.1684211,9.42060801 17.1684211,8.75848807 L17.1684211,7.33350622 C17.1684211,6.15902864 16.1996866,5.2 15,5.2 C14.6994787,5.2 14.4132922,5.26035387 14.1531562,5.36930543 Z" id="Combined-Shape"></path>
        </g>
    </g>
</svg>