<?xml version="1.0" encoding="UTF-8"?>
<svg width="24px" height="24px" viewBox="0 0 24 24" version="1.1" xmlns="http://www.w3.org/2000/svg" xmlns:xlink="http://www.w3.org/1999/xlink">
    <!-- Generator: Sketch 52.2 (67145) - http://www.bohemiancoding.com/sketch -->
    <title>icons_filled_qr-code</title>
    <desc>Created with Sketch.</desc>
    <g id="icons_filled_qr-code" stroke="none" stroke-width="1" fill="none" fill-rule="evenodd">
        <path d="M17,5 L17,7 L19,7 L19,5 L17,5 Z M11,19 L13,19 L13,21 L11,21 L11,19 Z M19,11 L21,11 L21,13 L19,13 L19,11 Z M11,15 L13,15 L13,17 L11,17 L11,15 Z M15,11 L17,11 L17,13 L15,13 L15,11 Z M4,3 L12,3 C12.5522847,3 13,3.44771525 13,4 L13,12 C13,12.5522847 12.5522847,13 12,13 L4,13 C3.44771525,13 3,12.5522847 3,12 L3,4 C3,3.44771525 3.44771525,3 4,3 Z M5,5 L5,11 L11,11 L11,5 L5,5 Z M7,7 L9,7 L9,9 L7,9 L7,7 Z M16,3 L20,3 C20.5522847,3 21,3.44771525 21,4 L21,8 C21,8.55228475 20.5522847,9 20,9 L16,9 C15.4477153,9 15,8.55228475 15,8 L15,4 C15,3.44771525 15.4477153,3 16,3 Z M16,15 L20,15 C20.5522847,15 21,15.4477153 21,16 L21,20 C21,20.5522847 20.5522847,21 20,21 L16,21 C15.4477153,21 15,20.5522847 15,20 L15,16 C15,15.4477153 15.4477153,15 16,15 Z M17,17 L17,19 L19,19 L19,17 L17,17 Z M4,15 L8,15 C8.55228475,15 9,15.4477153 9,16 L9,20 C9,20.5522847 8.55228475,21 8,21 L4,21 C3.44771525,21 3,20.5522847 3,20 L3,16 C3,15.4477153 3.44771525,15 4,15 Z M5,17 L5,19 L7,19 L7,17 L5,17 Z" id="Combined-Shape" fill="#000000"></path>
    </g>
</svg>