<?xml version="1.0" encoding="UTF-8"?>
<svg width="24px" height="24px" viewBox="0 0 24 24" version="1.1" xmlns="http://www.w3.org/2000/svg" xmlns:xlink="http://www.w3.org/1999/xlink">
    <!-- Generator: Sketch 50.2 (55047) - http://www.bohemiancoding.com/sketch -->
    <title>icons_outlined_done2</title>
    <desc>Created with Sketch.</desc>
    <defs></defs>
    <g id="icons_outlined_done2" stroke="none" stroke-width="1" fill="none" fill-rule="evenodd">
        <g id="common_icons_miniprogram" fill="#000000" fill-rule="nonzero">
            <path d="M12,22 C6.4771525,22 2,17.5228475 2,12 C2,6.4771525 6.4771525,2 12,2 C17.5228475,2 22,6.4771525 22,12 C22,17.5228475 17.5228475,22 12,22 Z M12,20.8 C16.8601058,20.8 20.8,16.8601058 20.8,12 C20.8,7.1398942 16.8601058,3.2 12,3.2 C7.1398942,3.2 3.2,7.1398942 3.2,12 C3.2,16.8601058 7.1398942,20.8 12,20.8 Z M10.8284273,14.5583261 L16.6367534,8.75 L17.4852815,9.59852817 L11.5355341,15.5482756 C11.1450098,15.9387999 10.5118448,15.9387999 10.1213205,15.5482756 L7,12.4269551 L7.84852817,11.578427 L10.8284273,14.5583261 Z" id="Combined-Shape"></path>
        </g>
    </g>
</svg>