<?xml version="1.0" encoding="UTF-8"?>
<svg width="24px" height="24px" viewBox="0 0 24 24" version="1.1" xmlns="http://www.w3.org/2000/svg" xmlns:xlink="http://www.w3.org/1999/xlink">
    <!-- Generator: Sketch 50.2 (55047) - http://www.bohemiancoding.com/sketch -->
    <title>icons_outlined_note</title>
    <desc>Created with Sketch.</desc>
    <defs></defs>
    <g id="icons_outlined_note" stroke="none" stroke-width="1" fill="none" fill-rule="evenodd">
        <g id="Group" fill="#000000" fill-rule="nonzero">
            <path d="M8.20000005,3.2 L8.20000005,17.8092926 L18,17.8092926 C18.4418278,17.8092926 18.8,17.4511204 18.8,17.0092926 L18.8,15.2000122 L18.8,4 C18.8,3.5581722 18.4418278,3.2 18,3.2 L8.20000005,3.2 Z M7,3.2 L5.2,3.2 L5.2,17.8092926 L7,17.8092926 L7,3.2 Z M18.8,18.8428752 C18.5550151,18.9499136 18.2844419,19.0092926 18,19.0092926 L5.2,19.0092926 L5.2,20.8 L18,20.8 C18.4418278,20.8 18.8,20.4418278 18.8,20 L18.8,18.8428752 Z M4,2 L18,2 C19.1045695,2 20,2.8954305 20,4 L20,20 C20,21.1045695 19.1045695,22 18,22 L4,22 L4,2 Z" id="Fill-55"></path>
        </g>
    </g>
</svg>