<?xml version="1.0" encoding="UTF-8"?>
<svg width="24px" height="24px" viewBox="0 0 24 24" version="1.1" xmlns="http://www.w3.org/2000/svg" xmlns:xlink="http://www.w3.org/1999/xlink">
    <!-- Generator: Sketch 52.2 (67145) - http://www.bohemiancoding.com/sketch -->
    <title>icons_filled_wechat-out</title>
    <desc>Created with Sketch.</desc>
    <g id="icons_filled_wechat-out" stroke="none" stroke-width="1" fill="none" fill-rule="evenodd">
        <g id="XMLID_19_" transform="translate(3.000000, 3.000000)" fill="#000000">
            <path d="M13.8187255,12.6323907 L17.3042522,13.9434447 C17.705242,14.1131105 17.9674277,14.4987147 17.998273,14.9614396 C18.0136957,15.1465296 17.9211596,15.3624679 17.9057369,15.4087404 C17.3505203,16.9203085 15.9162106,18 14.2197153,18 C13.7416121,18 13.2943542,17.8920308 13.1863954,17.8611825 C9.94763163,17.1208226 7.06358959,15.470437 4.79645494,13.2030848 C2.52932029,10.9357326 0.879093028,8.05141388 0.138804162,4.81233933 C0.123381478,4.70437018 0,4.25706941 0,3.77892031 C0,2.08226221 1.07958793,0.64781491 2.59101103,0.0925449871 C2.63727908,0.0771208226 2.85319667,0 3.03826889,0 C3.50094943,0.0154241645 3.88651654,0.277634961 4.05616608,0.678663239 L5.36709427,4.16452442 C5.42878501,4.33419023 5.39793964,4.42673522 5.30540354,4.59640103 C4.99694984,5.13624679 4.25666098,6.49357326 3.84024849,7.31105398 C3.7322897,7.51156812 3.67059896,7.74293059 3.67059896,7.97429306 C3.67059896,8.22107969 3.74771238,8.46786632 3.87109386,8.66838046 C4.5342693,9.79434447 5.30540354,10.8586118 6.21534193,11.7686375 C7.12528033,12.6940874 8.18944557,13.4652956 9.31530156,14.1285347 C9.51579646,14.251928 9.74713673,14.3290488 10.0093224,14.3290488 C10.2560853,14.3290488 10.4720029,14.2673522 10.6724978,14.159383 C11.4744774,13.7429306 12.8316737,13.0025707 13.3868903,12.6940874 C13.5565398,12.6015424 13.6336533,12.5706941 13.8187255,12.6323907 Z M12.7383935,5.24613117 C11.8563007,4.37951363 10.6492262,4.14738394 9.70523213,4.53426676 C9.45762712,3.29624171 9.73618276,2.02726603 10.6182756,1.12969786 C12.1039057,-0.38688283 14.7192336,-0.232129698 16.467944,1.48563007 C18.2011791,3.20338983 18.4023581,5.81871776 16.9167281,7.33529845 C16.0346352,8.24834193 14.7347089,8.55784819 13.4657332,8.29476787 C13.8835667,7.35077377 13.6204864,6.11274871 12.7383935,5.24613117 Z M13.0169492,8.96020634 C12.072955,9.91967576 10.4016212,9.82682388 9.30287399,8.72807664 C8.18865144,7.64480472 8.06484893,5.97347089 9.00884304,5.01400147 C9.21002211,4.8128224 9.44215181,4.65806927 9.70523213,4.54974208 C9.89093589,5.43183493 10.3551953,6.28297716 11.0670597,6.99484156 C11.7634488,7.67575534 12.614591,8.12453943 13.4657332,8.29476787 C13.357406,8.54237288 13.2181282,8.75902727 13.0169492,8.96020634 Z" id="Combined-Shape"></path>
        </g>
    </g>
</svg>