<?xml version="1.0" encoding="UTF-8"?>
<svg width="24px" height="24px" viewBox="0 0 24 24" version="1.1" xmlns="http://www.w3.org/2000/svg" xmlns:xlink="http://www.w3.org/1999/xlink">
    <!-- Generator: Sketch 50.2 (55047) - http://www.bohemiancoding.com/sketch -->
    <title>icons_outlined_folder</title>
    <desc>Created with Sketch.</desc>
    <defs></defs>
    <g id="icons_outlined_folder" stroke="none" stroke-width="1" fill="none" fill-rule="evenodd">
        <g id="Picture" transform="translate(2.000000, 4.000000)" fill="#000000" fill-rule="nonzero">
            <path d="M18.8,5 L18.8,2.7 L8.20406273,2.7 L6.32906273,1.2 L1.2,1.2 L1.2,5 L18.8,5 Z M18.8,6.20000005 L1.2,6.20000005 L1.2,14.8 L18.8,14.8 L18.8,6.20000005 Z M1,0 L6.75,0 L8.625,1.5 L19,1.5 C19.5522847,1.5 20,1.94771525 20,2.5 L20,15 C20,15.5522847 19.5522847,16 19,16 L1,16 C0.44771525,16 6.76353751e-17,15.5522847 0,15 L0,1 C-6.76353751e-17,0.44771525 0.44771525,1.01453063e-16 1,0 Z" id="Combined-Shape"></path>
        </g>
    </g>
</svg>