<?xml version="1.0" encoding="utf-8"?>	<svg height="24px" version="1.1" viewBox="0 0 24 24" width="24px" xmlns="http://www.w3.org/2000/svg" xmlns:xlink="http://www.w3.org/1999/xlink">		
    		<!-- Generator: Sketch 52.5 (67469) - http://www.bohemiancoding.com/sketch -->		
    		<title>Artboard</title>		
    		<desc>Created with Sketch.</desc>		
    		<defs>			
        			
        			
    		</defs>		
    		<g fill="none" fill-rule="evenodd" id="Artboard" stroke="none" stroke-width="1">			
        			<g id="Group-9" transform="translate(3.000000, 1.000000)">				
            				<path d="M12.134025,9.25262381 C12.134025,11.0430048 10.6952365,12.494481 8.92050577,12.494481 C7.145775,12.494481 5.70698654,11.0430048 5.70698654,9.25262381 C5.70698654,7.46224286 7.145775,6.01076667 8.92050577,6.01076667 C10.6952365,6.01076667 12.134025,7.46224286 12.134025,9.25262381" fill="#000000" id="Fill-1"/>				
            				<g id="Group-5" transform="translate(5.019231, 14.776492)">					
                					<mask fill="white" id="mask-2">						
                    						
                						<g xlink:href="#path-1">							<polygon id="path-1" points="0.148872115 0.100606349 9.01430481 0.100606349 9.01430481 7.15873016 0.148872115 7.15873016"/>						</g>					</mask>					
                					<g id="Clip-4"/>					
                					<path d="M3.62611731,7.04378889 L0.262713462,3.65037619 C0.110925,3.4970746 0.110925,3.24861429 0.262713462,3.0954873 L1.75705962,1.58796349 C1.90902115,1.4346619 2.15530962,1.43483651 2.30709808,1.58796349 L3.62611731,2.91896349 C3.77807885,3.07226508 4.02436731,3.07226508 4.17615577,2.9191381 L6.85607885,0.21558254 C7.00786731,0.0622809524 7.25415577,0.0622809524 7.40611731,0.21558254 L8.90046346,1.72310635 C9.05225192,1.87623333 9.05225192,2.12469365 8.90046346,2.27799524 L4.17615577,7.04378889 C4.02436731,7.19709048 3.77807885,7.19709048 3.62611731,7.04378889" fill="#000000" id="Fill-3" mask="url(#mask-2)"/>					
            				</g>				
            				<g id="Group-8" transform="translate(0.000000, 0.109825)">					
                					<mask fill="white" id="mask-4">						
                    						
                						<g xlink:href="#path-3">							<polygon id="path-3" points="3.0547978e-06 0.0647777778 17.9196732 0.0647777778 17.9196732 16.8549857 3.0547978e-06 16.8549857"/>						</g>					</mask>					
                					<g id="Clip-7"/>					
                					<path d="M3.71881731,16.7400095 L2.72293269,15.7353429 C-0.836913462,12.1441048 -0.956682692,6.14631111 2.66131731,2.6144381 C6.17910577,-0.819657143 11.8117212,-0.785260317 15.2869327,2.72059683 C18.7022596,6.16586667 18.7946827,11.7138825 15.5642019,15.272819 C15.4162212,15.436073 15.1588558,15.4358984 15.0039519,15.2796286 L13.5089135,13.7714063 C13.3604135,13.6215968 13.361625,13.3846603 13.5009519,13.2261206 C14.4916442,12.0983587 15.0328558,10.6627714 15.0328558,9.14285079 C15.0328558,7.25731111 14.1998365,5.50167619 12.7092981,4.30232698 C10.5361442,2.55385079 7.36675962,2.53691429 5.17802885,4.26566032 C3.57204808,5.53415238 2.71375962,7.44169206 2.81674038,9.46953333 C2.896875,11.0474222 3.62604808,12.5215968 4.73356731,13.6388825 L5.76320192,14.6775968 C5.91499038,14.8308984 5.91499038,15.0793587 5.76320192,15.2324857 L4.26885577,16.7400095 C4.11689423,16.8933111 3.87077885,16.8933111 3.71881731,16.7400095" fill="#000000" id="Fill-6" mask="url(#mask-4)"/>					
            				</g>				
        			</g>			
    		</g>		
	</svg>