<?xml version="1.0" encoding="UTF-8"?>
<svg width="24px" height="24px" viewBox="0 0 24 24" version="1.1" xmlns="http://www.w3.org/2000/svg" xmlns:xlink="http://www.w3.org/1999/xlink">
    <!-- Generator: Sketch 50.2 (55047) - http://www.bohemiancoding.com/sketch -->
    <title>icons_outlined_wechatout</title>
    <desc>Created with Sketch.</desc>
    <defs></defs>
    <g id="icons_outlined_wechatout" stroke="none" stroke-width="1" fill="none" fill-rule="evenodd">
        <g id="common_icons_wechatout" fill="#000000" fill-rule="nonzero">
            <g id="Group-7" transform="translate(1.500000, 2.000000)">
                <path d="M15.4096196,13.2507232 L19.0041802,14.6007033 C19.6602313,14.8778467 20.0870818,15.5034123 20.1348629,16.2205007 C20.1403212,16.285902 20.1402897,16.3510527 20.1356697,16.4163248 C20.1261629,16.5506409 20.0985448,16.6782611 20.0583416,16.8072788 C20.0379579,16.8726929 20.014356,16.9372452 20.0001716,16.9743897 C19.3225899,18.8161481 17.5811696,20.0626412 15.5961864,20.0626412 C15.1400546,20.0626412 14.6640558,19.9834272 14.3900079,19.9042032 C11.0243405,19.1360629 7.96150261,17.4249551 5.52234643,14.9894614 C3.08308083,12.5538583 1.36924544,9.49534349 0.5892596,6.07724817 C0.590329361,6.08472526 0.545615682,5.87536821 0.524055115,5.75842078 C0.471567988,5.47372351 0.441101695,5.20268488 0.441101695,4.92926083 C0.441101695,2.94629067 1.68973447,1.20711571 3.55393977,0.52367514 C3.60515703,0.505971547 3.66578015,0.486481658 3.73850534,0.466725191 C3.84775777,0.437045762 3.95632133,0.414831649 4.06650491,0.402983542 C4.12123411,0.397098478 4.17550044,0.393926554 4.25294642,0.394313954 C4.98961855,0.418832821 5.6277195,0.845928575 5.91947646,1.53597503 L7.2547737,5.08108369 C7.39166404,5.45696687 7.3413234,5.74180215 7.14186722,6.10663612 C6.78356513,6.7327233 6.045223,8.09376978 5.66103665,8.84638085 C5.60384064,8.95244253 5.57245763,9.07360798 5.57245763,9.1872646 C5.57245763,9.29782808 5.60925143,9.42233096 5.67917896,9.53604225 C6.37203584,10.7105215 7.12434278,11.7145704 7.95806977,12.5470805 C8.78127685,13.3829833 9.78009107,14.132816 10.9770616,14.8369738 C11.0860913,14.9039682 11.1959888,14.9368879 11.3161017,14.9368879 C11.4392746,14.9368879 11.5457768,14.9089031 11.6680652,14.843244 C12.3601757,14.4844185 13.6627466,13.7799187 14.4147679,13.3627804 C14.7662784,13.1713353 15.0282203,13.123781 15.4096196,13.2507232 Z M12.2270281,15.9050734 C11.942929,16.0578201 11.6420194,16.1368879 11.3161017,16.1368879 C10.967393,16.1368879 10.6416509,16.0393121 10.3571083,15.8643623 C9.08683345,15.1172417 8.00559496,14.3055312 7.10603437,13.3920722 C6.19943682,12.4868359 5.38712175,11.4026985 4.65061794,10.1540481 C4.47336362,9.86644232 4.37245763,9.52499657 4.37245763,9.1872646 C4.37245763,8.87216729 4.45442651,8.55569684 4.59953359,8.28689056 C4.98527891,7.53082371 5.73275614,6.15293776 6.09552564,5.51924198 C6.10461743,5.50259871 5.67411833,4.32211461 4.80402833,1.97778968 C4.70733743,1.74959071 4.48802941,1.60280277 4.22966102,1.59392655 C4.15481502,1.60040526 4.10584015,1.61042643 4.05309484,1.62475518 C4.0115341,1.63604553 3.97926861,1.64641865 3.94718058,1.65727174 C2.56980664,2.16248612 1.64110169,3.45604529 1.64110169,4.92926083 C1.64110169,5.11981551 1.66384292,5.3221293 1.70416725,5.5408539 C1.71915155,5.62213078 1.77129448,5.86627284 1.76959623,5.86653574 C2.48808643,9.00521055 4.08935566,11.8628395 6.37023681,14.140296 C8.65119612,16.4178304 11.5133196,18.0168056 14.6829326,18.740935 C14.8939795,18.8011436 15.2635204,18.8626412 15.5961864,18.8626412 C17.0723094,18.8626412 18.368078,17.9351416 18.8689501,16.5743699 C18.8923007,16.5106498 18.9028769,16.4817235 18.9126757,16.4502777 C18.9275573,16.4025208 18.9366033,16.3607199 18.9386643,16.3316015 C18.9193487,16.0267058 18.7667668,15.8030911 18.5559958,15.7136085 L15.0308697,14.3897775 C14.2358105,14.8342927 12.9239492,15.5438173 12.2270281,15.9050734 Z" id="Combined-Shape"></path>
                <g id="Group" transform="translate(8.369048, 0.000000)">
                    <path d="M2.0710026,5.2686512 C1.92028711,3.9323163 2.31437509,2.64704292 3.22426291,1.72258333 C4.97690717,-0.063887928 8.00476599,0.118505695 10.0008707,2.07634536 C11.9796752,4.03453725 12.2120466,7.05635443 10.4646964,8.83740885 C9.54655601,9.78633777 8.22712428,10.207375 6.86262481,10.0502766 C6.7607597,10.2070996 6.64333071,10.3519622 6.50659249,10.4884951 C5.30327217,11.7097339 3.22906738,11.5847543 1.90201159,10.259607 C0.549249124,8.946396 0.388311742,6.87520653 1.59810888,5.64745119 C1.74295278,5.50282478 1.90080584,5.37641132 2.0710026,5.2686512 Z M6.12168779,8.6542081 C6.19691517,8.01029419 5.93744479,7.28174333 5.38027248,6.73516789 C4.82915614,6.19453324 4.11613916,5.94606449 3.46828882,6.01415578 C3.68373334,6.6052248 4.04319848,7.16399236 4.5263718,7.64648143 C4.99540768,8.10440568 5.54749235,8.4493875 6.12168779,8.6542081 Z M6.22061533,5.87853268 C7.06215704,6.70406908 7.45457444,7.83968093 7.30226633,8.88056139 C8.19559076,8.90954458 9.02110422,8.60366877 9.60519512,8.000008 C10.8647669,6.71612582 10.69026,4.44679404 9.15869615,2.93117566 C7.6130075,1.41512411 5.34122401,1.27827532 4.08018364,2.56365334 C3.50152085,3.15158401 3.21332866,3.95725161 3.24149828,4.83295917 C4.27576146,4.69046654 5.38835065,5.06209685 6.22061533,5.87853268 Z M3.68327837,8.50038308 C3.1088546,7.9268218 2.67053086,7.26449627 2.39067799,6.55619603 C1.74401467,7.2898095 1.86514793,8.55139209 2.74388062,9.40451334 C3.59251874,10.2518772 4.83580639,10.3591288 5.56543194,9.72704088 C4.88316421,9.45922337 4.2375227,9.04153469 3.68327837,8.50038308 Z" id="Combined-Shape"></path>
                </g>
            </g>
        </g>
    </g>
</svg>