<?xml version="1.0" encoding="UTF-8"?>
<svg width="24px" height="24px" viewBox="0 0 24 24" version="1.1" xmlns="http://www.w3.org/2000/svg" xmlns:xlink="http://www.w3.org/1999/xlink">
    <!-- Generator: Sketch 52.2 (67145) - http://www.bohemiancoding.com/sketch -->
    <title>icons_filled_mini-program</title>
    <desc>Created with Sketch.</desc>
    <g id="icons_filled_mini-program" stroke="none" stroke-width="1" fill="none" fill-rule="evenodd">
        <g id="icon9" fill="#000000" fill-rule="nonzero">
            <path d="M17.0042951,12.9907511 L16.7683706,12.9945687 C16.0550163,12.9945687 15.639927,12.4712722 15.9080929,11.8679595 C16.0917325,11.4394672 16.5060412,11.1085462 16.9953388,10.9998587 C18.3044617,10.6838635 19.1939297,9.66071653 19.1939297,8.47124601 C19.1939297,7.02917238 17.8171187,5.85399361 16.0974441,5.85399361 C14.3777694,5.85399361 13.0009585,7.02917238 13.0009585,8.47124601 L13.0009585,15.6597444 C13.0009585,18.1916631 10.7378977,20.2309904 7.95047923,20.2309904 C5.16306077,20.2309904 2.9,18.1916631 2.9,15.6597444 C2.9,13.4396643 4.65234284,11.5446627 7.0399361,11.184345 L7.23162939,11.184345 C7.77169317,11.184345 8.16070288,11.5076457 8.16070245,11.9693574 C8.1609328,12.0484712 8.15901115,12.0850296 8.15120009,12.131896 C8.14067044,12.1950739 8.12016757,12.2555438 8.09190709,12.3109542 C7.91978424,12.7125742 7.47977117,13.0602868 7.0046612,13.1790551 C5.70499665,13.4927672 4.80607029,14.5096672 4.80607029,15.6597444 C4.80607029,17.101818 6.18288127,18.2769968 7.90255591,18.2769968 C9.62223055,18.2769968 10.9990415,17.101818 10.9990415,15.6597444 L10.9990415,8.47124601 C10.9990415,5.93932736 13.2621023,3.9 16.0495208,3.9 C18.8369392,3.9 21.1,5.93932736 21.1,8.47124601 C21.1,10.7031126 19.388876,12.5760414 17.0042951,12.9907511 Z" id="XMLID_19_"></path>
        </g>
    </g>
</svg>