<?xml version="1.0" encoding="UTF-8"?>
<svg width="24px" height="24px" viewBox="0 0 24 24" version="1.1" xmlns="http://www.w3.org/2000/svg" xmlns:xlink="http://www.w3.org/1999/xlink">
    <!-- Generator: Sketch 52.2 (67145) - http://www.bohemiancoding.com/sketch -->
    <title>icons_filled_moment</title>
    <desc>Created with Sketch.</desc>
    <g id="icons_filled_moment" stroke="none" stroke-width="1" fill="none" fill-rule="evenodd">
        <g id="icon25" fill="#000000">
            <path d="M9.5,21.6849563 L9.5,15.1568542 L15.65438,21.3112342 C14.5224116,21.755845 13.2897185,22 12,22 C11.1367511,22 10.2990498,21.8906175 9.5,21.6849563 Z M8,21.1679126 C6.06545818,20.3226753 4.4500318,18.8830683 3.38454773,17.0799184 L8,12.4644661 L8,21.1679126 Z M2.6887658,15.65438 C2.24415503,14.5224116 2,13.2897185 2,12 C2,11.1367511 2.10938251,10.2990498 2.31504371,9.5 L8.84314575,9.5 L2.6887658,15.65438 Z M2.83208737,8 C3.67732465,6.06545818 5.11693169,4.4500318 6.92008163,3.38454773 L11.5355339,8 L2.83208737,8 Z M8.34562005,2.6887658 C9.47758838,2.24415503 10.7102815,2 12,2 C12.8632489,2 13.7009502,2.10938251 14.5,2.31504371 L14.5,8.84314575 L8.34562005,2.6887658 Z M16,2.83208737 C17.9345418,3.67732465 19.5499682,5.11693169 20.6154523,6.92008163 L16,11.5355339 L16,2.83208737 Z M21.3112342,8.34562005 C21.755845,9.47758838 22,10.7102815 22,12 C22,12.8632489 21.8906175,13.7009502 21.6849563,14.5 L15.1568542,14.5 L21.3112342,8.34562005 Z M21.1679126,16 C20.3226753,17.9345418 18.8830683,19.5499682 17.0799184,20.6154523 L12.4644661,16 L21.1679126,16 Z" id="Combined-Shape"></path>
        </g>
    </g>
</svg>