<?xml version="1.0" encoding="UTF-8"?>
<svg width="24px" height="24px" viewBox="0 0 24 24" version="1.1" xmlns="http://www.w3.org/2000/svg" xmlns:xlink="http://www.w3.org/1999/xlink">
    <!-- Generator: Sketch 52.2 (67145) - http://www.bohemiancoding.com/sketch -->
    <title>icons_filled_translate</title>
    <desc>Created with Sketch.</desc>
    <g id="icons_filled_translate" stroke="none" stroke-width="1" fill="none" fill-rule="evenodd">
        <g id="Group-9" fill="#000000" fill-rule="nonzero">
            <path d="M15.4745785,9.26953125 L17.1210938,9.26953125 L17.5507812,10.6367188 L18.8046875,10.6367188 L16.84375,5 L15.4570312,5 L14.2418545,8.5 L10,8.5 L10,3.00247329 C10,2.45576096 10.4488226,2 11.0024733,2 L20.9975267,2 C21.544239,2 22,2.44882258 22,3.00247329 L22,12.9975267 C22,13.544239 21.5511774,14 20.9975267,14 L15.5,14 L15.5,9.49268723 C15.5,9.41595736 15.4912019,9.34126077 15.4745785,9.26953125 Z M16.1171875,6.078125 L16.1445312,6.078125 L16.8671875,8.38671875 L15.3945312,8.38671875 L16.1171875,6.078125 Z M3.00247329,10 L12.9975267,10 C13.544239,10 14,10.4488226 14,11.0024733 L14,20.9975267 C14,21.544239 13.5511774,22 12.9975267,22 L3.00247329,22 C2.45576096,22 2,21.5511774 2,20.9975267 L2,11.0024733 C2,10.455761 2.44882258,10 3.00247329,10 Z M11.2252446,14.6968862 L11.2252446,13.6689648 L8.18491365,13.6689648 L8.77126319,13.4879928 C8.69887435,13.1839597 8.49618563,12.72791 8.31521355,12.3876825 L7.18594778,12.7206711 C7.32348656,13.0102265 7.45378645,13.3794095 7.52617528,13.6689648 L4.54375543,13.6689648 L4.54375543,14.6968862 L5.68749897,14.6968862 C6.06392089,15.6741355 6.52720941,16.506607 7.12803671,17.2015398 C6.39690951,17.7372172 5.49204912,18.1136391 4.3845,18.3597611 C4.58718873,18.6058831 4.90569959,19.0981272 5.02152172,19.3514881 C6.16526525,19.0329772 7.12079783,18.5769276 7.90983609,17.9543837 C8.65544105,18.555211 9.56030145,19.0040217 10.6750895,19.293577 C10.8343449,19.0040217 11.1456169,18.5407332 11.3845,18.3090889 C10.3348619,18.0774447 9.45895708,17.6937839 8.73506877,17.1725843 C9.32865719,16.4993681 9.79194571,15.6813744 10.1321732,14.6968862 L11.2252446,14.6968862 Z M8.94499638,14.6968862 C8.69887435,15.391819 8.35864685,15.9781686 7.93155274,16.4704126 C7.44654757,15.9564519 7.06288676,15.3628635 6.78057032,14.6968862 L8.94499638,14.6968862 Z" id="Combined-Shape"></path>
        </g>
    </g>
</svg>