<?xml version="1.0" encoding="UTF-8"?>
<svg width="24px" height="24px" viewBox="0 0 24 24" version="1.1" xmlns="http://www.w3.org/2000/svg" xmlns:xlink="http://www.w3.org/1999/xlink">
    <!-- Generator: Sketch 52.2 (67145) - http://www.bohemiancoding.com/sketch -->
    <title>icons_filled_music</title>
    <desc>Created with Sketch.</desc>
    <g id="icons_filled_music" stroke="none" stroke-width="1" fill="none" fill-rule="evenodd">
        <g id="common_icons_music" fill="#000000">
            <path d="M18,4.30884616 L8,6.50115378 L8,18.1957627 L8,19.2012686 C8,20.1376561 7.37291357,21.0506958 6.5294712,21.4440654 C6.37267856,21.5171912 5.382193,21.7385747 5.25286076,21.7645934 C4.01016532,22.0145956 3.05534487,20.9501591 3.00276162,19.8737811 C2.95017837,18.7974031 3.65606327,17.8998615 4.47506962,17.7350959 L5.73958069,17.4178208 C6.18656759,17.3056685 6.5,16.9038781 6.5,16.443036 L6.5,6.31174524 L6.5,5.96041523 C6.5,5.49056505 6.8270984,5.08408046 7.2860712,4.98356598 L18.8930356,2.44165489 C19.1627851,2.38258008 19.4293498,2.55336564 19.4884246,2.82311512 C19.4961191,2.8582498 19.5,2.89411216 19.5,2.93007952 L19.5,3.48739624 L19.5,15.5337821 L19.5,16.5392879 C19.5,17.4756754 18.8674685,18.3887152 18.0167025,18.7820848 C17.8585484,18.8552106 16.8594624,19.0765941 16.7290072,19.1026128 C15.4755213,19.352615 14.5124101,18.2881785 14.4593703,17.2118005 C14.4063304,16.1354225 15.1183446,15.2378809 15.9444624,15.0731153 L17.23615,14.7538472 C17.6848085,14.6429517 18,14.2403684 18,13.7782081 L18,4.30884616 Z" id="Music-Copy"></path>
        </g>
    </g>
</svg>