<?xml version="1.0" encoding="UTF-8"?>
<svg width="24px" height="24px" viewBox="0 0 24 24" version="1.1" xmlns="http://www.w3.org/2000/svg" xmlns:xlink="http://www.w3.org/1999/xlink">
    <!-- Generator: Sketch 52.2 (67145) - http://www.bohemiancoding.com/sketch -->
    <title>icons_filled_download</title>
    <desc>Created with Sketch.</desc>
    <g id="icons_filled_download" stroke="none" stroke-width="1" fill="none" fill-rule="evenodd">
        <g id="icon38" fill="#000000" fill-rule="nonzero">
            <path d="M11.25,12.0397591 L9.53050029,10.3199997 L8.47000027,11.3806599 L11.2978402,14.2091404 C11.688335,14.5996941 12.3215,14.5997419 12.7120537,14.2090336 L15.5400004,11.3806599 L14.4795004,10.3199997 L12.75,12.0497613 L12.75,7 L11.25,7 L11.25,12.0397591 Z M11.25,7 L11.25,2 L12.75,2 L12.75,7 L19.0010434,7 C19.5508697,7 20,7.44583866 20,7.99580851 L20,21.0041915 C20,21.5510798 19.5541613,22 19.0041915,22 L4.99580851,22 C4.44892021,22 4,21.5541613 4,21.0041915 L4,7.99580851 C4,7.44892021 4.44724809,7 4.99895656,7 L11.25,7 Z" id="Combined-Shape"></path>
        </g>
    </g>
</svg>