<?xml version="1.0" encoding="UTF-8"?>
<svg width="24px" height="24px" viewBox="0 0 24 24" version="1.1" xmlns="http://www.w3.org/2000/svg" xmlns:xlink="http://www.w3.org/1999/xlink">
    <!-- Generator: Sketch 50.2 (55047) - http://www.bohemiancoding.com/sketch -->
    <title>icons_outlined_tv</title>
    <desc>Created with Sketch.</desc>
    <defs></defs>
    <g id="icons_outlined_tv" stroke="none" stroke-width="1" fill="none" fill-rule="evenodd">
        <g id="common_icons_tv&amp;display" fill="#000000" fill-rule="nonzero">
            <path d="M3.2,5.2 L3.2,17.8 L20.8,17.8 L20.8,5.2 L3.2,5.2 Z M2,5 C2,4.44771525 2.44771525,4 3,4 L21,4 C21.5522847,4 22,4.44771525 22,5 L22,18 C22,18.5522847 21.5522847,19 21,19 L3,19 C2.44771525,19 2,18.5522847 2,18 L2,5 Z M8,20.8999993 C8,20.5686284 8.26617432,20.2999992 8.60130024,20.2999992 L15.3986998,20.2999992 C15.7307887,20.2999992 16,20.5783196 16,20.8999993 L16,21.4999993 L8,21.4999993 L8,20.8999993 Z M9.80957031,15 L8.71582031,15 L8.71582031,8.89648438 L6.55761719,8.89648438 L6.55761719,7.95410156 L11.9628906,7.95410156 L11.9628906,8.89648438 L9.80957031,8.89648438 L9.80957031,15 Z M15.0400391,15 L13.84375,15 L11.3291016,7.95410156 L12.515625,7.95410156 L14.4345703,13.7695312 L14.4638672,13.7695312 L16.3876953,7.95410156 L17.5546875,7.95410156 L15.0400391,15 Z" id="Rectangle-40"></path>
        </g>
    </g>
</svg>