<?xml version="1.0" encoding="UTF-8"?>
<svg width="24px" height="24px" viewBox="0 0 24 24" version="1.1" xmlns="http://www.w3.org/2000/svg" xmlns:xlink="http://www.w3.org/1999/xlink">
    <!-- Generator: Sketch 52.2 (67145) - http://www.bohemiancoding.com/sketch -->
    <title>icons_filled_mask</title>
    <desc>Created with Sketch.</desc>
    <g id="icons_filled_mask" stroke="none" stroke-width="1" fill="none" fill-rule="evenodd">
        <path d="M4,3 L20,3 C20.5522847,3 21,3.44771525 21,4 L21,20 C21,20.5522847 20.5522847,21 20,21 L4,21 C3.44771525,21 3,20.5522847 3,20 L3,4 C3,3.44771525 3.44771525,3 4,3 Z M10.8000002,15.6000004 L10.8000002,18.0000005 L13.2000003,18.0000005 L13.2000003,15.6000004 L10.8000002,15.6000004 Z M6,15.6000004 L6,18.0000005 L8.4000001,18.0000005 L8.4000001,15.6000004 L6,15.6000004 Z M15.6000004,15.6000004 L15.6000004,18.0000005 L18.0000005,18.0000005 L18.0000005,15.6000004 L15.6000004,15.6000004 Z M15.6000004,6 L15.6000004,8.4000001 L18.0000005,8.4000001 L18.0000005,6 L15.6000004,6 Z M6,10.8000002 L6,13.2000003 L8.4000001,13.2000003 L8.4000001,10.8000002 L6,10.8000002 Z M6,6 L6,8.4000001 L8.4000001,8.4000001 L8.4000001,6 L6,6 Z M8.4000001,13.2000003 L8.4000001,15.6000004 L10.8000002,15.6000004 L10.8000002,13.2000003 L8.4000001,13.2000003 Z M8.4000001,8.4000001 L8.4000001,10.8000002 L10.8000002,10.8000002 L10.8000002,8.4000001 L8.4000001,8.4000001 Z M13.2000003,13.2000003 L13.2000003,15.6000004 L15.6000004,15.6000004 L15.6000004,13.2000003 L13.2000003,13.2000003 Z M13.2000003,8.4000001 L13.2000003,10.8000002 L15.6000004,10.8000002 L15.6000004,8.4000001 L13.2000003,8.4000001 Z M10.8000002,6 L10.8000002,8.4000001 L13.2000003,8.4000001 L13.2000003,6 L10.8000002,6 Z M10.8000002,10.8000002 L10.8000002,13.2000003 L13.2000003,13.2000003 L13.2000003,10.8000002 L10.8000002,10.8000002 Z M15.6000004,10.8000002 L15.6000004,13.2000003 L18.0000005,13.2000003 L18.0000005,10.8000002 L15.6000004,10.8000002 Z" id="Combined-Shape" fill="#000000"></path>
    </g>
</svg>