<?xml version="1.0" encoding="UTF-8"?>
<svg width="24px" height="24px" viewBox="0 0 24 24" version="1.1" xmlns="http://www.w3.org/2000/svg" xmlns:xlink="http://www.w3.org/1999/xlink">
    <!-- Generator: Sketch 50.2 (55047) - http://www.bohemiancoding.com/sketch -->
    <title>icons_outlined_mobile-contacts</title>
    <desc>Created with Sketch.</desc>
    <defs></defs>
    <g id="icons_outlined_mobile-contacts" stroke="none" stroke-width="1" fill="none" fill-rule="evenodd">
        <g id="Group" fill="#000000" fill-rule="nonzero">
            <path d="M4,3 C4,2.44771525 4.44771525,2 5,2 L19,2 C19.5522847,2 20,2.44771525 20,3 L20,21 C20,21.5522847 19.5522847,22 19,22 L5,22 C4.44771525,22 4,21.5522847 4,21 L4,3 Z M5.2,3.2 L5.2,20.8 L18.8,20.8 L18.8,3.2 L5.2,3.2 Z M14.9093627,13.3061065 L16.6521261,13.9605864 C16.852621,14.0452838 16.9837138,14.2377779 16.9991365,14.4687708 C17.0068479,14.561168 16.9605798,14.6689647 16.9528685,14.692064 C16.6752601,15.4466408 15.9581053,15.9856243 15.1098576,15.9856243 C14.870806,15.9856243 14.6471771,15.931726 14.5931977,15.9163264 C12.9738158,15.5467378 11.5317948,14.722863 10.3982275,13.5909978 C9.26466015,12.4591325 8.43954651,11.0192767 8.06940208,9.40232629 C8.06169074,9.34842795 8,9.1251348 8,8.88644212 C8,8.03946811 8.53979396,7.32339008 9.29550551,7.04619858 C9.31863954,7.03849882 9.42659833,7 9.51913444,7 C9.75047471,7.00769976 9.94325827,7.13859575 10.028083,7.33878961 L10.6835471,9.07893621 C10.7143925,9.16363362 10.6989698,9.2098322 10.6527018,9.2945296 C10.4984749,9.56402133 10.1283305,10.2416005 9.92012424,10.649688 C9.86614485,10.7497849 9.83529948,10.8652814 9.83529948,10.9807779 C9.83529948,11.1039741 9.87385619,11.2271703 9.93554693,11.3272672 C10.2671347,11.88935 10.6527018,12.4206337 11.107671,12.8749197 C11.5626402,13.3369056 12.0947228,13.7218938 12.6576508,14.0529836 C12.7578982,14.1145817 12.8735684,14.1530805 13.0046612,14.1530805 C13.1280427,14.1530805 13.2360015,14.1222815 13.3362489,14.0683831 C13.7372387,13.8604895 14.4158368,13.4909008 14.6934452,13.3369056 C14.7782699,13.290707 14.8168266,13.2753075 14.9093627,13.3061065 Z" id="Fill-55"></path>
        </g>
    </g>
</svg>