<?xml version="1.0" encoding="UTF-8"?>
<svg width="24px" height="24px" viewBox="0 0 24 24" version="1.1" xmlns="http://www.w3.org/2000/svg" xmlns:xlink="http://www.w3.org/1999/xlink">
    <!-- Generator: Sketch 52.2 (67145) - http://www.bohemiancoding.com/sketch -->
    <title>icons_filled_game</title>
    <desc>Created with Sketch.</desc>
    <g id="icons_filled_game" stroke="none" stroke-width="1" fill="none" fill-rule="evenodd">
        <g id="icon28" fill="#000000" fill-rule="nonzero">
            <path d="M7.86677129,11.25 L1.97576153,11.25 C2.07323928,11.0071907 2.2199146,10.7800854 2.41553842,10.5844616 L10.5844616,2.41553842 C10.7806019,2.21939813 11.007644,2.0727943 11.25,1.97548083 L11.25,7.86677129 C9.53161626,8.1765307 8.1765307,9.53161626 7.86677129,11.25 Z M22.0245192,11.25 L16.1332287,11.25 C15.8234693,9.53161626 14.4683837,8.1765307 12.75,7.86677129 L12.75,1.97576153 C12.9928093,2.07323928 13.2199146,2.2199146 13.4155384,2.41553842 L21.5844616,10.5844616 C21.7806019,10.7806019 21.9272057,11.007644 22.0245192,11.25 Z M22.0242385,12.75 C21.9267607,12.9928093 21.7800854,13.2199146 21.5844616,13.4155384 L13.4155384,21.5844616 C13.2193981,21.7806019 12.992356,21.9272057 12.75,22.0245192 L12.75,16.1332287 C14.4683837,15.8234693 15.8234693,14.4683837 16.1332287,12.75 L22.0242385,12.75 Z M1.97548083,12.75 L7.86677129,12.75 C8.1765307,14.4683837 9.53161626,15.8234693 11.25,16.1332287 L11.25,22.0242385 C11.0071907,21.9267607 10.7800854,21.7800854 10.5844616,21.5844616 L2.41553842,13.4155384 C2.21939813,13.2193981 2.0727943,12.992356 1.97548083,12.75 Z" id="Combined-Shape"></path>
        </g>
    </g>
</svg>