<?xml version="1.0" encoding="UTF-8"?>
<svg width="24px" height="24px" viewBox="0 0 24 24" version="1.1" xmlns="http://www.w3.org/2000/svg" xmlns:xlink="http://www.w3.org/1999/xlink">
    <!-- Generator: Sketch 52.2 (67145) - http://www.bohemiancoding.com/sketch -->
    <title>Icons_filled_takephoto_nor</title>
    <desc>Created with Sketch.</desc>
    <g id="Icons_filled_takephoto_nor" stroke="none" stroke-width="1" fill="none" fill-rule="evenodd">
        <path d="M13.0365391,17.2773449 C13.1596491,16.673943 13.2063928,16.5300807 13.3676425,16.1245933 C13.5391001,15.6934365 13.7886802,15.1611098 14.1163828,14.5276132 L12.9658399,14.5626605 C12.3452858,14.5523831 11.9214882,14.3601588 11.6410504,14.1832767 M6.21510636,15.7775863 C5.73168052,14.9192344 5.7233369,14.4466934 6.69482523,13.5132828 C7.34248411,12.891009 8.09469337,12.2452772 8.95145299,11.5760874 C9.08201388,11.4708591 9.2287027,11.3901926 9.38411223,11.3341933 C9.82939647,11.1737424 10.1502612,11.3515625 10.3143776,11.7118522 C10.1650763,11.0822267 11.3343905,10.9259297 12.0144756,10.8170219 C12.5036679,10.7386834 12.7520626,10.6993879 14.2143884,10.7200233 C15.6767142,10.7406587 18.4656251,10.9504905 18.6942539,14.0541091 C18.7782687,15.1946042 18.602906,16.6877366 18.1681658,18.5335063 C17.4796995,21.1939454 15.0353345,23.3160117 11.4161382,22.1400635 C10.2050429,21.7465548 8.61257037,19.8625983 6.63872063,16.4881941 C6.58120125,16.4038143 6.26843073,15.872267 6.21510636,15.7775863 Z M10.372401,11.3501752 C10.3145139,11.5283333 10.3024918,11.7363382 10.3496395,11.9382522 L10.480772,12.4998374 C10.6508889,13.2283763 11.090105,13.836389 11.678439,14.2074723 M11.5633528,14.3839727 L8.59187634,16.6525442 C7.63584505,17.2312204 7.02392372,16.8950454 6.38992667,16.0462682 M9.74229118,11.018421 L7.39820244,6.20236948 C7.12754171,5.4075851 7.51975676,4.53215084 8.27423927,4.24703234 C9.0356685,3.96096472 9.72471796,4.33868218 10.150328,5.16830839 L11.8065914,8.11171066 C12.0487173,8.49120968 12.3961417,8.86609787 12.9762772,8.77458613 C13.5564127,8.68307439 13.9008614,8.34765942 13.9008614,7.81884421 L13.8290325,4.11706609 C13.8290325,3.36492475 14.179951,2.72464834 14.950935,2.57167834 C14.9793346,2.56604362 15.0078907,2.56132314 15.0365636,2.55752347 C15.8807528,2.44565338 16.6635175,3.03995641 16.8297508,3.91897545 L17.3650162,11.3987812" id="Shape" transform="translate(12.304720, 12.508128) rotate(-19.000000) translate(-12.304720, -12.508128) "></path>
        <path d="M18.2000001,4.74280917 L16.9252939,5.41661314 C16.8017622,5.4819114 16.6486854,5.43470392 16.5833871,5.3111723 C16.5442855,5.23719966 16.5442855,5.14867903 16.5833871,5.07470639 L17.2571911,3.80000012 L16.5833871,2.52529386 C16.5180889,2.40176223 16.5652963,2.24868537 16.6888279,2.18338711 C16.7628006,2.14428551 16.8513212,2.14428551 16.9252939,2.18338711 L18.2000001,2.85719108 L19.4747064,2.18338711 C19.598238,2.11808885 19.7513149,2.16529632 19.8166131,2.28882795 C19.8557147,2.36280059 19.8557147,2.45132122 19.8166131,2.52529386 L19.1428092,3.80000012 L19.8166131,5.07470639 C19.8819114,5.19823802 19.8347039,5.35131488 19.7111723,5.41661314 C19.6371997,5.45571474 19.548679,5.45571474 19.4747064,5.41661314 L18.2000001,4.74280917 Z" id="Star" fill="#000000" transform="translate(18.200000, 3.800000) rotate(45.000000) translate(-18.200000, -3.800000) "></path>
        <path d="M7.87426223,13.0060979 C8.2415931,13.6205614 8.55208439,14.0725243 8.80573611,14.3619865 C9.05938783,14.6514487 9.4321616,14.9338577 9.9240574,15.2092137 L7.73279118,18.4121972 C7.62709724,18.661462 7.3527924,18.7191235 6.90987667,18.5851818 C6.46696094,18.4512401 6.00986127,18.1127545 5.53857764,17.569725 C5.29964057,17.3622318 5.55662994,16.6044662 6.30954575,15.2964283 C7.06246155,13.9883903 7.58403371,13.2249469 7.87426223,13.0060979 Z M11.3326917,15.3413714 C11.6583769,15.3454638 11.9215244,15.3304454 12.1221341,15.2963164 C12.3227438,15.2621873 12.5709505,15.1902107 12.866754,15.0803865 C12.8381637,15.4052587 12.8128843,15.8827911 12.7909157,16.5129837 C12.7840687,16.7093983 12.8080094,17.0342375 12.8627378,17.4875013 L14.0962768,17.2573325 C14.0174841,16.7313483 13.998031,16.182681 14.0379175,15.6113305 C14.077804,15.03998 14.2094316,14.2077407 14.4328003,13.1146125 C13.8867482,13.5968415 13.0442566,13.9466216 11.9053253,14.1639529 C10.7663941,14.3812841 9.83608927,13.7162986 9.11441091,12.1689966 C9.69464406,11.727191 10.3857331,11.352533 11.187678,11.0450224 C13.6953763,10.0834305 14.8555538,10.0052689 15.651025,10.151067 C16.7601857,10.3543596 17.5558129,11.1263646 18.0379067,12.4670819 C19.0339474,15.1160639 19.2565986,17.3325308 18.7058605,19.1164826 C17.8797534,21.7924102 15.1857644,22.9536901 13.2068539,22.5064998 C11.8875803,22.208373 10.1904475,21.2164242 8.11545539,19.5306534 C8.45525095,19.4095156 8.879361,18.9693539 9.38778554,18.2101684 C10.125269,17.1089494 10.773571,16.1526837 11.3326917,15.3413714 Z M7.80562369,11.4734244 L3.49478615,7.19141321 C3.1941102,6.45661555 3.24242362,5.9437736 3.63972642,5.65288735 C4.03702921,5.36200109 4.50279275,5.34320133 5.03701703,5.59648806 C5.92574794,6.35749171 7.05619531,7.29505339 8.42835912,8.40917308 C9.15285583,8.99742358 9.60074057,8.7016858 10.2305174,8.44950839 C10.8602943,8.19733099 11.3022324,7.69590761 11.0647756,6.91572315 C10.7078444,5.74299515 10.2813416,4.3012612 9.78526731,2.59052131 C9.71486654,2.00200881 9.9796847,1.62921742 10.5797218,1.47214716 C11.1797589,1.31507689 11.6160225,1.48780332 11.8885126,1.99032646 L14.9296412,8.94442119 C13.5049546,9.04684159 12.1840679,9.33265536 10.9669811,9.80186251 C9.74989418,10.2710697 8.6961084,10.8282569 7.80562369,11.4734244 Z" id="Combined-Shape" fill="#000000"></path>
    </g>
</svg>