<?xml version="1.0" encoding="UTF-8"?>
<svg width="24px" height="24px" viewBox="0 0 24 24" version="1.1" xmlns="http://www.w3.org/2000/svg" xmlns:xlink="http://www.w3.org/1999/xlink">
    <!-- Generator: Sketch 52.5 (67469) - http://www.bohemiancoding.com/sketch -->
    <title>icons_filled_delete_on</title>
    <desc>Created with Sketch.</desc>
    <g id="icons_filled_delete_on" stroke="none" stroke-width="1" fill="none" fill-rule="evenodd">
        <g id="icon39" fill="#000000">
            <g id="Group-3" transform="translate(3.000000, 0.000000)">
                <path d="M2.5,5 L15.5,5 L2.5,5 Z M15.4117646,6.50000215 L14.6107386,20.117444 C14.5485547,21.1745693 13.6731425,22 12.6141898,22 L5.38581016,22 C4.32685754,22 3.45144525,21.1745693 3.38926141,20.117444 L2.58823542,6.50000215 L15.4117646,6.50000215 Z M6,8.99998133 L6.5,17.9999943 L8,17.9999943 L7.60000038,8.99998133 L6,8.99998133 Z M10.5,8.99998133 L10,17.9999943 L11.5,17.9999943 L12,8.99998133 L10.5,8.99998133 Z" id="Combined-Shape"></path>
                <path d="M1.47642768,3.94559115 L17.4764277,3.94559115 C17.7525701,3.94559115 17.9764277,4.16944878 17.9764277,4.44559115 L17.9764277,5.44559331 L0.976427681,5.44559331 L0.976427681,4.44559115 C0.976427681,4.16944878 1.20028531,3.94559115 1.47642768,3.94559115 Z M7.47642768,1.44562526 L11.4764277,1.44562526 C11.7525701,1.44562526 11.9764277,1.66948288 11.9764277,1.94562526 L11.9764277,2.94559115 L6.97642768,2.94559115 L6.97642768,1.94562526 C6.97642768,1.66948288 7.20028531,1.44562526 7.47642768,1.44562526 Z" id="Combined-Shape" transform="translate(9.476428, 3.445609) rotate(10.000000) translate(-9.476428, -3.445609) "></path>
            </g>
        </g>
    </g>
</svg>