<?xml version="1.0" encoding="UTF-8"?>
<svg width="32px" height="32px" viewBox="0 0 32 32" version="1.1" xmlns="http://www.w3.org/2000/svg" xmlns:xlink="http://www.w3.org/1999/xlink">
    <!-- Generator: Sketch 52.2 (67145) - http://www.bohemiancoding.com/sketch -->
    <title>play_quickly_icon_sel</title>
    <desc>Created with Sketch.</desc>
    <g id="play_quickly_icon_sel" stroke="none" stroke-width="1" fill="none" fill-rule="evenodd">
        <g id="Group-4-Copy" transform="translate(2.000000, 2.000000)">
            <g id="Group-4-Copy-2">
                <rect id="Rectangle-3" x="0" y="0" width="28" height="28"></rect>
                <g id="Group-5" transform="translate(1.866667, 4.200000)" fill="#000000" fill-opacity="0.9">
                    <path d="M23.2998283,10.4033064 L10.3335863,19.4240241 C10.1043869,19.58348 9.78931945,19.5269416 9.62986357,19.2977422 C9.57091052,19.213004 9.53931034,19.1122498 9.53931034,19.0090217 L9.53931034,0.967586449 C9.53931034,0.688375826 9.76565528,0.462030894 10.0448659,0.462030894 C10.1480939,0.462030894 10.2488481,0.493631071 10.3335863,0.552584116 L23.2998283,9.57330176 C23.5290277,9.73275765 23.5855661,10.0478251 23.4261102,10.2770245 C23.3918436,10.3262788 23.3490826,10.3690398 23.2998283,10.4033064 Z" id="Triangle"></path>
                    <path d="M10.8944441,12.605559 L0.788856772,19.4428772 C0.557603837,19.5993402 0.243298017,19.5387109 0.0868350756,19.307458 C0.0302443568,19.2238166 4.56456556e-16,19.1251438 4.4408921e-16,19.0241567 L0,0.963477211 C-3.41934396e-17,0.684266588 0.226344932,0.457921656 0.505555556,0.457921656 C0.608180382,0.457921656 0.70837505,0.48915398 0.792822591,0.547467511 L10.8944441,7.52293673 L10.8944441,12.605559 Z" id="Triangle-Copy"></path>
                </g>
            </g>
        </g>
    </g>
</svg>