<?xml version="1.0" encoding="UTF-8"?>
<svg width="24px" height="24px" viewBox="0 0 24 24" version="1.1" xmlns="http://www.w3.org/2000/svg" xmlns:xlink="http://www.w3.org/1999/xlink">
    <!-- Generator: Sketch 50.2 (55047) - http://www.bohemiancoding.com/sketch -->
    <title>icons_outlined_ear</title>
    <desc>Created with Sketch.</desc>
    <defs></defs>
    <g id="icons_outlined_ear" stroke="none" stroke-width="1" fill="none" fill-rule="evenodd">
        <g id="icon40" fill="#000000" fill-rule="nonzero">
            <path d="M14.2520278,7.9178845 C14.2520278,7.9178845 10.9682186,7.51126928 11.0930997,10.1076672 C11.2186559,12.6983321 13.6870398,12.2692858 15.6474548,14.3240456 C16.9577948,15.6974456 16.8982245,18.4541086 16.4359869,19.6517836 C15.6482232,21.6929086 13.5551781,21.9992374 12.9803622,22 C11.3193546,22.0022036 10.0449313,21.6078159 9.37047013,20.1269566 C8.69600899,18.6460973 9.19990681,16.343755 7.95903483,15.0148866 C6.68548045,13.6510181 4.05941665,10.8537785 5.34553833,6.58986782 C5.88904545,4.78796533 7.84629795,2 12.9803622,2 C17.3658778,2 20.1974654,4.94801879 19.3609054,8.2525191 C18.4064086,12.0216276 14.4644421,11.3689203 14.4644421,11.3689203 L14.660468,10.1850395 C14.6658901,10.1859373 14.699362,10.190343 14.7568723,10.1957111 C15.3181997,10.2481066 15.9770347,10.1921542 16.5690311,9.9546714 C17.3718283,9.63262467 17.9272099,9.02574941 18.1976039,7.95802024 C18.8342333,5.44326687 16.5881399,3.2 12.9803622,3.2 C9.21762843,3.2 7.13923266,4.79861709 6.4944133,6.93640252 C5.80426903,9.2244547 6.33555795,11.1129685 7.74931684,12.9466827 C8.0605073,13.3503119 8.31674748,13.6397068 8.8361053,14.1958949 C9.63873595,15.0554441 9.91500808,15.9906063 10.0972041,17.6159541 C10.1067605,17.7012058 10.1144982,17.7724149 10.130882,17.9246645 C10.2350812,18.8919558 10.3079335,19.2901231 10.4625364,19.6295722 C10.8534119,20.4877855 11.530101,20.8019229 12.9787702,20.8000011 C13.2453672,20.7996474 13.7023766,20.7037521 14.1104402,20.5085299 C14.6689055,20.2413539 15.0811768,19.8293701 15.3164719,19.2197115 C15.7506443,18.0947546 15.5590341,15.969741 14.7792284,15.1524072 C14.5199894,14.8806924 14.2357006,14.6486041 13.9094021,14.4347219 C13.6943569,14.293764 13.4640765,14.1621345 13.1816515,14.0156142 C13.020211,13.9318598 12.4640932,13.6555876 12.4013707,13.6237263 C10.7575759,12.7887231 9.97912233,11.911678 9.89448535,10.1653179 C9.808822,8.38429506 10.8282261,7.2689693 12.366886,6.86611492 C12.9989628,6.70062358 13.6338106,6.66884674 14.2076365,6.70928805 C14.2910135,6.71516418 14.3558189,6.72157188 14.3994907,6.72697951 L14.2520278,7.9178845 Z M11.0930997,10.1076672 C11.2186559,12.6983321 13.6870398,12.2692858 15.6474548,14.3240456 C16.9577948,15.6974456 16.8982245,18.4541086 16.4359869,19.6517836 C15.6482232,21.6929086 13.5551781,21.9992374 12.9803622,22 C11.3193546,22.0022036 10.0449313,21.6078159 9.37047013,20.1269566 C8.69600899,18.6460973 9.19990681,16.343755 7.95903483,15.0148866 C6.68548045,13.6510181 4.05941665,10.8537785 5.34553833,6.58986782 C5.88904545,4.78796533 7.84629795,2 12.9803622,2 C17.3658778,2 20.1974654,4.94801879 19.3609054,8.2525191 C18.4064086,12.0216276 14.4644421,11.3689203 14.4644421,11.3689203 L14.660468,10.1850395 C14.6658901,10.1859373 14.699362,10.190343 14.7568723,10.1957111 C15.3181997,10.2481066 15.9770347,10.1921542 16.5690311,9.9546714 C17.3718283,9.63262467 17.9272099,9.02574941 18.1976039,7.95802024 C18.8342333,5.44326687 16.5881399,3.2 12.9803622,3.2 C9.21762843,3.2 7.13923266,4.79861709 6.4944133,6.93640252 C5.80426903,9.2244547 6.33555795,11.1129685 7.74931684,12.9466827 C8.0605073,13.3503119 8.31674748,13.6397068 8.8361053,14.1958949 C9.63873595,15.0554441 9.91500808,15.9906063 10.0972041,17.6159541 C10.1067605,17.7012058 10.1144982,17.7724149 10.130882,17.9246645 C10.2350812,18.8919558 10.3079335,19.2901231 10.4625364,19.6295722 C10.8534119,20.4877855 11.530101,20.8019229 12.9787702,20.8000011 C13.2453672,20.7996474 13.7023766,20.7037521 14.1104402,20.5085299 C14.6689055,20.2413539 15.0811768,19.8293701 15.3164719,19.2197115 C15.7506443,18.0947546 15.5590341,15.969741 14.7792284,15.1524072 C14.5199894,14.8806924 14.2357006,14.6486041 13.9094021,14.4347219 C13.6943569,14.293764 13.4640765,14.1621345 13.1816515,14.0156142 C13.020211,13.9318598 12.4640932,13.6555876 12.4013707,13.6237263 C10.7575759,12.7887231 9.97912233,11.911678 9.89448535,10.1653179 C9.808822,8.38429506 10.8282261,7.2689693 12.366886,6.86611492 C12.9989628,6.70062358 13.6338106,6.66884674 14.2076365,6.70928805 C14.2910135,6.71516418 14.3558189,6.72157188 14.3994907,6.72697951 L14.2520278,7.9178845 C14.2520278,7.9178845 10.9682186,7.51126928 11.0930997,10.1076672 Z" id="Fill-58"></path>
        </g>
    </g>
</svg>