<?xml version="1.0" encoding="UTF-8"?>
<svg width="24px" height="24px" viewBox="0 0 24 24" version="1.1" xmlns="http://www.w3.org/2000/svg" xmlns:xlink="http://www.w3.org/1999/xlink">
    <!-- Generator: Sketch 50.2 (55047) - http://www.bohemiancoding.com/sketch -->
    <title>icons_outlined_cards&amp;offers</title>
    <desc>Created with Sketch.</desc>
    <defs></defs>
    <g id="icons_outlined_cards&amp;offers" stroke="none" stroke-width="1" fill="none" fill-rule="evenodd">
        <g id="icon35" fill="#000000" fill-rule="nonzero">
            <g id="Group" transform="translate(3.000000, 3.000000)">
                <path d="M1.2,4.24607415 L1.2,14.3253877 L17.8,16.5095982 L17.8,6.43028467 L1.2,4.24607415 Z M0.00027067573,3.85621036 L0,3.8561678 C0,3.38331938 0.375955582,2.94778395 0.844034582,2.88277297 L17.1559654,0.617227025 C17.6221128,0.552484327 18,0.878995159 18,1.3561678 L18,5.24625723 L18.1590779,5.26718853 C18.6235064,5.32829754 19,5.76564336 19,6.2370118 L19,16.8760387 C19,17.4293162 18.5490746,17.8185039 18.0052288,17.7469452 L0.840922073,15.4884838 C0.376493636,15.4273748 0,14.990029 0,14.5186606 L0,3.8796336 C0,3.87179262 9.05649083e-05,3.86398459 0.00027067573,3.85621036 Z M4.93102113,3.52665474 L16.8,5.08836249 L16.8,1.87818546 L4.93102113,3.52665474 Z" id="Rectangle-7"></path>
            </g>
        </g>
    </g>
</svg>