<?xml version="1.0" encoding="UTF-8"?>
<svg width="24px" height="24px" viewBox="0 0 24 24" version="1.1" xmlns="http://www.w3.org/2000/svg" xmlns:xlink="http://www.w3.org/1999/xlink">
    <!-- Generator: Sketch 52.2 (67145) - http://www.bohemiancoding.com/sketch -->
    <title>icons_filled_camera-switch</title>
    <desc>Created with Sketch.</desc>
    <g id="icons_filled_camera-switch" stroke="none" stroke-width="1" fill="none" fill-rule="evenodd">
        <g id="icon20" transform="translate(2.000000, 4.000000)" fill="#000000" fill-rule="nonzero">
            <path d="M12.7324081,0 C12.8995847,5.6322073e-16 13.0557004,0.0835505677 13.1484333,0.222649902 L15,3 L19,3 C19.5522847,3 20,3.44771525 20,4 L20,15 C20,15.5522847 19.5522847,16 19,16 L1,16 C0.44771525,16 6.15571608e-15,15.5522847 5.10702591e-15,15 L5.32907052e-15,4 C5.26143514e-15,3.44771525 0.44771525,3 1,3 L5,3 L6.85156673,0.222649902 C6.94429962,0.0835505677 7.10041529,8.07865959e-16 7.26759188,7.77156117e-16 L12.7324081,0 Z M7.70000005,12.2730239 C8.35059303,12.7310465 9.14388779,13 10,13 C12.209139,13 14,11.209139 14,9 L12.8,9 C12.8,10.5463973 11.5463973,11.8 10,11.8 C9.35682093,11.8 8.75144747,11.582097 8.26709498,11.2 L9.5,11.2 L9.5,10 L7,10 C6.72385763,10 6.5,10.2238576 6.5,10.5 L6.5,11.2 L6.5,13 L7.70000005,13 L7.70000005,12.2730239 Z M12.3,5.72697613 C11.649407,5.26895349 10.8561122,5 10,5 C7.790861,5 6,6.790861 6,9 L7.2,9 C7.2,7.4536027 8.4536027,6.2 10,6.2 C10.6438345,6.2 11.2492692,6.41861899 11.7329451,6.79999995 L10.5,6.79999995 L10.5,8 L12.3,8 L13,8 C13.2761424,8 13.5,7.77614237 13.5,7.5 L13.5,5 L12.3,5 L12.3,5.72697613 Z" id="Combined-Shape"></path>
        </g>
    </g>
</svg>