<?xml version="1.0" encoding="UTF-8"?>
<svg width="24px" height="24px" viewBox="0 0 24 24" version="1.1" xmlns="http://www.w3.org/2000/svg" xmlns:xlink="http://www.w3.org/1999/xlink">
    <!-- Generator: Sketch 52.2 (67145) - http://www.bohemiancoding.com/sketch -->
    <title>icons_filled_volume-up</title>
    <desc>Created with Sketch.</desc>
    <g id="icons_filled_volume-up" stroke="none" stroke-width="1" fill="none" fill-rule="evenodd">
        <g id="音量" transform="translate(2.000000, 4.000000)" fill="#040000">
            <path d="M9.3,0.7 L5.5,4.5 L1,4.5 C0.4,4.5 0,4.9 0,5.5 L0,10.5 C0,11.1 0.4,11.5 1,11.5 L5.5,11.5 L9.3,15.3 C9.5,15.5 9.7,15.6 10,15.6 C10.6,15.6 11,15.2 11,14.6 L11,1.4 C11,1.1 10.9,0.9 10.7,0.7 C10.3,0.3 9.7,0.3 9.3,0.7 Z" id="Path"></path>
            <path d="M16.2,13.9 L15.1,12.8 L15.2,12.7 C16.5,11.4 17.1,9.8 17.1,8 C17.1,6.2 16.4,4.6 15.2,3.3 L15.1,3.2 L16.2,2.1 L16.3,2.2 C17.8,3.7 18.7,5.8 18.7,8 C18.7,10.2 17.9,12.2 16.3,13.8 L16.2,13.9 Z M14.2,11.9 L13.1,10.8 L13.2,10.7 C13.9,10 14.3,9 14.3,8 C14.3,7 13.9,6 13.2,5.3 L13.1,5.2 L14.2,4.1 L14.3,4.2 C15.3,5.2 15.9,6.6 15.9,8 C15.9,9.4 15.3,10.8 14.3,11.8 L14.2,11.9 Z" id="Shape" fill-rule="nonzero"></path>
        </g>
    </g>
</svg>