<?xml version="1.0" encoding="UTF-8"?>
<svg width="24px" height="24px" viewBox="0 0 24 24" version="1.1" xmlns="http://www.w3.org/2000/svg" xmlns:xlink="http://www.w3.org/1999/xlink">
    <!-- Generator: Sketch 50.2 (55047) - http://www.bohemiancoding.com/sketch -->
    <title>icons_outlined_hide</title>
    <desc>Created with Sketch.</desc>
    <defs></defs>
    <g id="icons_outlined_hide" stroke="none" stroke-width="1" fill="none" fill-rule="evenodd">
        <g id="icon21" fill="#000000" fill-rule="nonzero">
            <g id="Group-19" transform="translate(1.000000, 4.000000)">
                <path d="M17.6701381,12.9730813 L19.4249789,14.7279221 L18.5764507,15.5764502 L3.84852868,0.848528171 L4.69705685,0 L6.55246809,1.85541124 C7.93196844,1.3029864 9.43174921,1 11,1 C15.8077906,1 19.9720635,3.84762755 22,8 C21.0088953,10.0293711 19.5075207,11.7471002 17.6701381,12.9730813 Z M7.48629025,2.7892334 L9.14977359,4.45271674 C9.70307173,4.1635303 10.3324386,4 11,4 C13.209139,4 15,5.790861 15,8 C15,8.66756141 14.8364697,9.29692827 14.5472833,9.85022641 L16.8030731,12.1060162 C18.3773063,11.1062525 19.7070071,9.70262667 20.6478722,8 C18.6862248,4.45012523 15.0343177,2.2 11,2.2 C9.78190146,2.2 8.59866509,2.40513103 7.48629025,2.7892334 Z M13.6379795,8.94092264 C13.7428778,8.64685352 13.7999997,8.33009741 13.7999997,7.99999976 C13.7999997,6.45360249 12.546397,5.19999981 10.9999998,5.19999981 C10.6699021,5.19999981 10.353146,5.25712171 10.0590769,5.36202004 L13.6379795,8.94092264 Z M15.4475319,14.1445888 C14.0680316,14.6970136 12.5682508,15 11,15 C6.1922094,15 2.0279365,12.1523724 -2.85993451e-12,8 C0.991104672,5.9706289 2.49247928,4.25289977 4.32986187,3.02691872 L5.19692691,3.89398376 C3.62269375,4.89374754 2.29299288,6.29737333 1.35212783,8 C3.31377519,11.5498748 6.96568232,13.8 11,13.8 C12.2180985,13.8 13.4013349,13.594869 14.5137097,13.2107666 L15.4475319,14.1445888 Z M7.45271674,6.14977359 L8.36202004,7.05907689 C8.25712171,7.353146 8.19999981,7.66990212 8.19999981,7.99999976 C8.19999981,9.54639703 9.45360249,10.7999997 10.9999998,10.7999997 C11.3300974,10.7999997 11.6468535,10.7428778 11.9409226,10.6379795 L12.8502264,11.5472833 C12.2969283,11.8364697 11.6675614,12 11,12 C8.790861,12 7,10.209139 7,8 C7,7.33243859 7.1635303,6.70307173 7.45271674,6.14977359 Z" id="Combined-Shape"></path>
            </g>
        </g>
    </g>
</svg>