<?xml version="1.0" encoding="UTF-8"?>
<svg width="24px" height="24px" viewBox="0 0 24 24" version="1.1" xmlns="http://www.w3.org/2000/svg" xmlns:xlink="http://www.w3.org/1999/xlink">
    <!-- Generator: Sketch 52.2 (67145) - http://www.bohemiancoding.com/sketch -->
    <title>icons_filled_at</title>
    <desc>Created with Sketch.</desc>
    <g id="icons_filled_at" stroke="none" stroke-width="1" fill="none" fill-rule="evenodd">
        <path d="M11.4648438,9.14453125 C10.2226562,9.14453125 9.484375,10.1640625 9.484375,11.875 C9.484375,13.5742188 10.2226562,14.6054688 11.453125,14.6054688 C12.71875,14.6054688 13.5039062,13.5625 13.5039062,11.875 C13.5039062,10.1875 12.71875,9.14453125 11.4648438,9.14453125 Z M11.8515625,2.01953125 C17.40625,2.01953125 21.3085938,5.51171875 21.3085938,10.7265625 C21.3085938,14.4179688 19.5625,16.796875 16.703125,16.796875 C15.25,16.796875 14.1367188,16.09375 13.8789062,14.9570312 L13.7148437,14.9570312 C13.234375,16.1289062 12.25,16.7617188 10.890625,16.7617188 C8.453125,16.7617188 6.82421875,14.78125 6.82421875,11.8046875 C6.82421875,8.95703125 8.4296875,7.01171875 10.7734375,7.01171875 C12.0390625,7.01171875 13.09375,7.64453125 13.5507812,8.67578125 L13.7148437,8.67578125 L13.7148437,7.26953125 L16.09375,7.26953125 L16.09375,13.5390625 C16.09375,14.3476562 16.46875,14.8632812 17.2070312,14.8632812 C18.3554688,14.8632812 19.1523438,13.3984375 19.1523438,10.9023438 C19.1523438,6.63671875 16.2109375,3.8828125 11.7695312,3.8828125 C7.2578125,3.8828125 4.09375,7.140625 4.09375,11.8515625 C4.09375,16.7851562 7.38671875,19.6679688 12.2148438,19.6679688 C13.46875,19.6679688 14.7460938,19.5039062 15.4140625,19.2578125 L15.4140625,21.1328125 C14.5,21.4023438 13.3046875,21.5664062 12.0390625,21.5664062 C6.109375,21.5664062 1.9375,17.8515625 1.9375,11.7929688 C1.9375,5.98046875 6.00390625,2.01953125 11.8515625,2.01953125 Z" id="@" fill="#000000"></path>
    </g>
</svg>