<?xml version="1.0" encoding="UTF-8"?>
<svg width="24px" height="24px" viewBox="0 0 24 24" version="1.1" xmlns="http://www.w3.org/2000/svg" xmlns:xlink="http://www.w3.org/1999/xlink">
    <!-- Generator: Sketch 50.2 (55047) - http://www.bohemiancoding.com/sketch -->
    <title>icons_outlined_refresh</title>
    <desc>Created with Sketch.</desc>
    <defs></defs>
    <g id="icons_outlined_refresh" stroke="none" stroke-width="1" fill="none" fill-rule="evenodd">
        <g id="common_icons_miniprogram" fill="#000000" fill-rule="nonzero">
            <path d="M18.363961,6.63603897 C19.9926407,8.26471863 21,10.5147186 21,13 C21,17.9705627 16.9705627,22 12,22 C7.02943725,22 3,17.9705627 3,13 C3,8.02943725 7.02943725,4 12,4 L12,5.2 C7.69217895,5.2 4.2,8.69217895 4.2,13 C4.2,17.307821 7.69217895,20.8 12,20.8 C16.307821,20.8 19.8,17.307821 19.8,13 C19.8,10.9020822 18.9695547,8.93868889 17.5154329,7.48456711 L18.363961,6.63603897 Z M11.5769476,5.2112774 C7.46584819,5.43100725 4.2,8.83411377 4.2,13 C4.2,17.307821 7.69217895,20.8 12,20.8 C16.307821,20.8 19.8,17.307821 19.8,13 C19.8,10.9020822 18.9695547,8.93868889 17.5154329,7.48456711 L18.363961,6.63603897 C19.9926407,8.26471863 21,10.5147186 21,13 C21,17.9705627 16.9705627,22 12,22 C7.02943725,22 3,17.9705627 3,13 C3,8.30954147 6.58809453,4.45712733 11.169206,4.03783519 L9.97989895,2.84852817 L10.8284271,2 L13.3033009,4.47487373 C13.498563,4.67013588 13.498563,4.98671837 13.3033009,5.18198052 L12.8083261,5.6769553 L10.8284271,7.65685425 L9.97989895,6.80832608 L11.5769476,5.2112774 Z" id="Combined-Shape"></path>
        </g>
    </g>
</svg>