<?xml version="1.0" encoding="UTF-8"?>
<svg width="24px" height="24px" viewBox="0 0 24 24" version="1.1" xmlns="http://www.w3.org/2000/svg" xmlns:xlink="http://www.w3.org/1999/xlink">
    <!-- Generator: Sketch 52.2 (67145) - http://www.bohemiancoding.com/sketch -->
    <title>icons_filled_volume-off</title>
    <desc>Created with Sketch.</desc>
    <g id="icons_filled_volume-off" stroke="none" stroke-width="1" fill="none" fill-rule="evenodd">
        <path d="M9.06066017,6.93933983 L11.3,4.7 C11.7,4.3 12.3,4.3 12.7,4.7 C12.9,4.9 13,5.1 13,5.4 L13,10.8786797 L15.8785479,13.7572276 C16.1520151,13.2164906 16.3,12.6082453 16.3,12 C16.3,11 15.9,10 15.2,9.3 L15.1,9.2 L16.2,8.1 L16.3,8.2 C17.3,9.2 17.9,10.6 17.9,12 C17.9,13.0188672 17.5822172,14.0377344 17.0237418,14.9024214 L17.9423347,15.8210143 C18.7302379,14.7028496 19.1,13.4130518 19.1,12 C19.1,10.2 18.4,8.6 17.2,7.3 L17.1,7.2 L18.2,6.1 L18.3,6.2 C19.8,7.7 20.7,9.8 20.7,12 C20.7,13.820007 20.1524917,15.5031369 19.057475,16.9361546 L22.0918831,19.9705627 L21.0312229,21.0312229 L4.06066017,4.06066017 L5.12132034,3 L9.06066017,6.93933983 Z M13,15.1213203 L13,18.6 C13,19.2 12.6,19.6 12,19.6 C11.7,19.6 11.5,19.5 11.3,19.3 L7.5,15.5 L3,15.5 C2.4,15.5 2,15.1 2,14.5 L2,9.5 C2,8.9 2.4,8.5 3,8.5 L6.37867966,8.5 L13,15.1213203 Z" id="Combined-Shape" fill="#040000"></path>
    </g>
</svg>