<?xml version="1.0" encoding="UTF-8"?>
<svg width="24px" height="24px" viewBox="0 0 24 24" version="1.1" xmlns="http://www.w3.org/2000/svg" xmlns:xlink="http://www.w3.org/1999/xlink">
    <!-- Generator: Sketch 50.2 (55047) - http://www.bohemiancoding.com/sketch -->
    <title>icons_outlined_show</title>
    <desc>Created with Sketch.</desc>
    <defs></defs>
    <g id="icons_outlined_show" stroke="none" stroke-width="1" fill="none" fill-rule="evenodd">
        <g id="icon21" fill="#000000" fill-rule="nonzero">
            <g id="Group-19" transform="translate(1.000000, 5.000000)">
                <path d="M11,12.8 C15.0343177,12.8 18.6862248,10.5498748 20.6478722,7 C18.6862248,3.45012523 15.0343177,1.2 11,1.2 C6.96568232,1.2 3.31377519,3.45012523 1.35212783,7 C3.31377519,10.5498748 6.96568232,12.8 11,12.8 Z M11,0 C15.8077906,0 19.9720635,2.84762755 22,7 C19.9720635,11.1523724 15.8077906,14 11,14 C6.1922094,14 2.0279365,11.1523724 -1.09636744e-11,7 C2.0279365,2.84762755 6.1922094,0 11,0 Z" id="Combined-Shape"></path>
                <path d="M11,9.8 C12.5463973,9.8 13.8,8.5463973 13.8,7 C13.8,5.4536027 12.5463973,4.2 11,4.2 C9.4536027,4.2 8.2,5.4536027 8.2,7 C8.2,8.5463973 9.4536027,9.8 11,9.8 Z M11,11 C8.790861,11 7,9.209139 7,7 C7,4.790861 8.790861,3 11,3 C13.209139,3 15,4.790861 15,7 C15,9.209139 13.209139,11 11,11 Z" id="Oval-4"></path>
            </g>
        </g>
    </g>
</svg>