<?xml version="1.0" encoding="UTF-8"?>
<svg width="24px" height="24px" viewBox="0 0 24 24" version="1.1" xmlns="http://www.w3.org/2000/svg" xmlns:xlink="http://www.w3.org/1999/xlink">
    <!-- Generator: Sketch 52.2 (67145) - http://www.bohemiancoding.com/sketch -->
    <title>icons_outlined_game</title>
    <desc>Created with Sketch.</desc>
    <g id="icons_outlined_game" stroke="none" stroke-width="1" fill="none" fill-rule="evenodd">
        <g id="icon28" fill="#000000" fill-rule="nonzero">
            <path d="M3.29705627,11.4 L7.84253332,11.4 C8.10564097,9.56058531 9.56058531,8.10564097 11.4,7.84253332 L11.4,3.29705627 L3.29705627,11.4 Z M12.6,3.29705627 L12.6,7.84253332 C14.4394147,8.10564097 15.894359,9.56058531 16.1574667,11.4 L20.7029437,11.4 L12.6,3.29705627 Z M20.7029437,12.6 L16.1574667,12.6 C15.894359,14.4394147 14.4394147,15.894359 12.6,16.1574667 L12.6,20.7029437 L20.7029437,12.6 Z M11.4,20.7029437 L11.4,16.1574667 C9.56058531,15.894359 8.10564097,14.4394147 7.84253332,12.6 L3.29705627,12.6 L11.4,20.7029437 Z M10.5844616,2.41553842 C11.3662419,1.63375814 12.6389525,1.63895248 13.4155384,2.41553842 L21.5844616,10.5844616 C22.3662419,11.3662419 22.3610475,12.6389525 21.5844616,13.4155384 L13.4155384,21.5844616 C12.6337581,22.3662419 11.3610475,22.3610475 10.5844616,21.5844616 L2.41553842,13.4155384 C1.63375814,12.6337581 1.63895248,11.3610475 2.41553842,10.5844616 L10.5844616,2.41553842 Z M12,15 C13.6568542,15 15,13.6568542 15,12 C15,10.3431458 13.6568542,9 12,9 C10.3431458,9 9,10.3431458 9,12 C9,13.6568542 10.3431458,15 12,15 Z" id="Combined-Shape"></path>
        </g>
    </g>
</svg>