<?xml version="1.0" encoding="UTF-8"?>
<svg width="24px" height="24px" viewBox="0 0 24 24" version="1.1" xmlns="http://www.w3.org/2000/svg" xmlns:xlink="http://www.w3.org/1999/xlink">
    <!-- Generator: Sketch 50.2 (55047) - http://www.bohemiancoding.com/sketch -->
    <title>icons_outlined_play</title>
    <desc>Created with Sketch.</desc>
    <defs></defs>
    <g id="icons_outlined_play" stroke="none" stroke-width="1" fill="none" fill-rule="evenodd">
        <g id="icon21" fill="#000000" fill-rule="nonzero">
            <path d="M12,20.8 C16.8601058,20.8 20.8,16.8601058 20.8,12 C20.8,7.1398942 16.8601058,3.2 12,3.2 C7.1398942,3.2 3.2,7.1398942 3.2,12 C3.2,16.8601058 7.1398942,20.8 12,20.8 Z M12,22 C6.4771525,22 2,17.5228475 2,12 C2,6.4771525 6.4771525,2 12,2 C17.5228475,2 22,6.4771525 22,12 C22,17.5228475 17.5228475,22 12,22 Z M10.7,14.8349028 L15.2358445,12 L10.7,9.16509717 L10.7,14.8349028 Z M10.2649995,7.47812467 L16.8216014,11.5760008 C17.0557696,11.722356 17.1269562,12.0308312 16.980601,12.2649995 C16.9403607,12.329384 16.8859859,12.3837588 16.8216014,12.4239992 L10.2649995,16.5218753 C10.0308312,16.6682305 9.72235601,16.5970439 9.57600085,16.3628756 C9.52633472,16.2834098 9.5,16.191586 9.5,16.0978762 L9.5,7.90212382 C9.5,7.62598145 9.72385763,7.40212382 10,7.40212382 C10.0937099,7.40212382 10.1855337,7.42845854 10.2649995,7.47812467 Z" id="Oval-78"></path>
        </g>
    </g>
</svg>