<?xml version="1.0" encoding="UTF-8"?>
<svg width="24px" height="24px" viewBox="0 0 24 24" version="1.1" xmlns="http://www.w3.org/2000/svg" xmlns:xlink="http://www.w3.org/1999/xlink">
    <!-- Generator: Sketch 50.2 (55047) - http://www.bohemiancoding.com/sketch -->
    <title>icons_outlined_photo-wall</title>
    <desc>Created with Sketch.</desc>
    <defs></defs>
    <g id="icons_outlined_photo-wall" stroke="none" stroke-width="1" fill="none" fill-rule="evenodd">
        <g id="icon34" fill="#000000" fill-rule="nonzero">
            <g id="Group-4" transform="translate(2.000000, 4.000000)">
                <path d="M1.2,5.2 L1.2,14.8 L14.8,14.8 L14.8,5.2 L1.2,5.2 Z M1,4 L15,4 C15.5522847,4 16,4.44771525 16,5 L16,15 C16,15.5522847 15.5522847,16 15,16 L1,16 C0.44771525,16 3.62034905e-15,15.5522847 3.55271368e-15,15 L3.55271368e-15,5 C3.4850783e-15,4.44771525 0.44771525,4 1,4 Z" id="Combined-Shape"></path>
                <path d="M16,0 L19,0 C19.5522847,-8.8817842e-16 20,0.44771525 20,1 L20,11 C20,11.5522847 19.5522847,12 19,12 L5,12 C4.44771525,12 4,11.5522847 4,11 L4,8 L5.2,8 L5.2,10.8 L18.8,10.8 L18.8,1.2 L16,1.2 L16,0 Z" id="Combined-Shape" transform="translate(12.000000, 6.000000) scale(1, -1) translate(-12.000000, -6.000000) "></path>
            </g>
        </g>
    </g>
</svg>