<?xml version="1.0" encoding="UTF-8"?>
<svg width="24px" height="24px" viewBox="0 0 24 24" version="1.1" xmlns="http://www.w3.org/2000/svg" xmlns:xlink="http://www.w3.org/1999/xlink">
    <!-- Generator: Sketch 50.2 (55047) - http://www.bohemiancoding.com/sketch -->
    <title>icons_outlined_text</title>
    <desc>Created with Sketch.</desc>
    <defs></defs>
    <g id="icons_outlined_text" stroke="none" stroke-width="1" fill="none" fill-rule="evenodd">
        <g id="Group" fill="#000000" fill-rule="nonzero">
            <path d="M4,3 L20,3 C20.5522847,3 21,3.44771525 21,4 L21,20 C21,20.5522847 20.5522847,21 20,21 L4,21 C3.44771525,21 3,20.5522847 3,20 L3,4 C3,3.44771525 3.44771525,3 4,3 Z M4.2,4.2 L4.2,19.8 L19.8,19.8 L19.8,4.2 L4.2,4.2 Z M12.5999939,8.70000005 L12.5999939,17.5 L11.3999939,17.5 L11.3999939,8.70000005 L7.5,8.70000005 L7.5,7.5 L16.5,7.5 L16.5,8.70000005 L12.5999939,8.70000005 Z" id="Rectangle-14"></path>
        </g>
    </g>
</svg>