<?xml version="1.0" encoding="UTF-8"?>
<svg width="24px" height="24px" viewBox="0 0 24 24" version="1.1" xmlns="http://www.w3.org/2000/svg" xmlns:xlink="http://www.w3.org/1999/xlink">
    <!-- Generator: Sketch 50.2 (55047) - http://www.bohemiancoding.com/sketch -->
    <title>icons_outlined_copy</title>
    <desc>Created with Sketch.</desc>
    <defs></defs>
    <g id="icons_outlined_copy" stroke="none" stroke-width="1" fill="none" fill-rule="evenodd">
        <g id="Group" fill="#000000" fill-rule="nonzero">
            <path d="M12.4,3.2 L6.2,3.2 L6.2,20.8 L18.8,20.8 L18.8,9.6 L14,9.6 C13.1163444,9.6 12.4,8.8836556 12.4,8 L12.4,3.2 Z M13.6,3.2989947 L13.6,8 C13.6,8.2209139 13.7790861,8.4 14,8.4 L18.702787,8.4 L13.6,3.2989947 Z M5.99580851,2 L13.9979043,2 L20,8 L20,21.0013542 C20,21.5542301 19.5541613,22 19.0041915,22 L5.99580851,22 C5.44892021,22 5,21.552891 5,21.0013542 L5,2.99864581 C5,2.44576991 5.44583866,2 5.99580851,2 Z" id="Combined-Shape"></path>
        </g>
    </g>
</svg>