<?xml version="1.0" encoding="UTF-8"?>
<svg width="24px" height="24px" viewBox="0 0 24 24" version="1.1" xmlns="http://www.w3.org/2000/svg" xmlns:xlink="http://www.w3.org/1999/xlink">
    <!-- Generator: Sketch 50.2 (55047) - http://www.bohemiancoding.com/sketch -->
    <title>icons_outlined_email</title>
    <desc>Created with Sketch.</desc>
    <defs></defs>
    <g id="icons_outlined_email" stroke="none" stroke-width="1" fill="none" fill-rule="evenodd">
        <g id="common_icons_email" fill="#000000" fill-rule="nonzero">
            <path d="M4.2,5.2 L11.76,10.87 C11.9022222,10.9766667 12.0977778,10.9766667 12.24,10.87 L19.8,5.2 L4.2,5.2 Z M20.8,5.95 L12.96,11.83 C12.3911111,12.2566667 11.6088889,12.2566667 11.04,11.83 L3.2,5.95 L3.2,18.8 L20.8,18.8 L20.8,5.95 Z M3,4 L21,4 C21.5522847,4 22,4.44771525 22,5 L22,19 C22,19.5522847 21.5522847,20 21,20 L3,20 C2.44771525,20 2,19.5522847 2,19 L2,5 C2,4.44771525 2.44771525,4 3,4 Z" id="Rectangle-36"></path>
        </g>
    </g>
</svg>