<?xml version="1.0" encoding="UTF-8"?>
<svg width="24px" height="24px" viewBox="0 0 24 24" version="1.1" xmlns="http://www.w3.org/2000/svg" xmlns:xlink="http://www.w3.org/1999/xlink">
    <!-- Generator: Sketch 52.2 (67145) - http://www.bohemiancoding.com/sketch -->
    <title>icons_filled_ear</title>
    <desc>Created with Sketch.</desc>
    <g id="icons_filled_ear" stroke="none" stroke-width="1" fill="none" fill-rule="evenodd">
        <g id="icon40" fill="#000000" fill-rule="nonzero">
            <path d="M14.791152,9.3957856 C15.2769048,9.44077449 15.815345,9.39504677 16.2711789,9.21218633 C16.8425294,8.98298581 17.2161839,8.57468691 17.4220695,7.76168767 C17.9173296,5.80535829 16.1096965,4 12.9803622,4 C9.57603542,4 7.80478776,5.36237131 7.26032995,7.16742565 C6.65391994,9.1778716 7.11362422,10.8119314 8.38287974,12.4582177 C8.67429133,12.8361928 8.91781826,13.1112294 9.42081895,13.6499004 C10.3770407,14.6739326 10.6918903,15.739677 10.8922247,17.526835 C10.9019594,17.6136773 10.909853,17.6863207 10.9262804,17.8389821 C11.0209349,18.7176695 11.0844974,19.0650643 11.1905806,19.2979826 C11.4303711,19.824471 11.8118169,20.0015485 12.9777089,20.0000018 C13.5420113,19.9992531 14.2976115,19.6377656 14.5701287,18.9316634 C14.9023311,18.0709146 14.7399591,16.2701623 14.2004108,15.7046482 C13.9852928,15.4791777 13.7480937,15.2855326 13.4708371,15.1037965 C13.2811002,14.9794277 13.0734048,14.8607078 12.8132438,14.7257379 C12.6593205,14.6458835 12.1075332,14.3717625 12.0390578,14.3369789 C10.1657374,13.385383 9.19669358,12.2936093 9.09540911,10.2037518 C8.98964127,8.00473747 10.2889158,6.58320663 12.1642587,6.09220137 C12.8942539,5.90107287 13.6105178,5.86522081 14.2638783,5.91126746 C14.3618137,5.91816962 14.4405802,5.92595774 14.4977993,5.93304285 L14.2520278,7.9178845 C14.2520278,7.9178845 10.9682186,7.51126928 11.0930997,10.1076672 C11.188036,12.066537 12.6224301,12.2989566 14.1638889,13.1840841 C14.2697066,13.2582398 14.3682338,13.3241655 14.4594705,13.3818612 C14.5963257,13.4684047 15.2755417,13.9342342 15.6474548,14.3240456 C16.9577948,15.6974456 16.8982245,18.4541086 16.4359869,19.6517836 C15.6482232,21.6929086 13.5551781,21.9992374 12.9803622,22 C11.3193546,22.0022036 10.0449313,21.6078159 9.37047013,20.1269566 C8.69600899,18.6460973 9.19990681,16.343755 7.95903483,15.0148866 C6.68548045,13.6510181 4.05941665,10.8537785 5.34553833,6.58986782 C5.88904545,4.78796533 7.84629795,2 12.9803622,2 C17.3658778,2 20.1974654,4.94801879 19.3609054,8.2525191 C18.6447301,11.0805458 16.2466817,11.4191972 15.0938259,11.4120046 C14.9206084,11.4120046 14.7091566,11.4035861 14.4594705,11.3867493 C14.4850231,11.239858 14.5015005,11.1444091 14.508903,11.1004025 L14.791152,9.3957856 Z" id="Fill-58"></path>
        </g>
    </g>
</svg>