<?xml version="1.0" encoding="UTF-8"?>
<svg width="24px" height="24px" viewBox="0 0 24 24" version="1.1" xmlns="http://www.w3.org/2000/svg" xmlns:xlink="http://www.w3.org/1999/xlink">
    <!-- Generator: Sketch 52.2 (67145) - http://www.bohemiancoding.com/sketch -->
    <title>icons_filled_mike</title>
    <desc>Created with Sketch.</desc>
    <g id="icons_filled_mike" stroke="none" stroke-width="1" fill="none" fill-rule="evenodd">
        <g id="Group" fill="#000000" fill-rule="nonzero">
            <path d="M12.75,18.9602923 L12.75,22 L11.25,22 L11.25,18.9602923 C7.736675,18.5860629 5,15.6126238 5,12 L5,10 L6.5,10 L6.5,12 C6.5,15.0375661 8.96243388,17.5 12,17.5 C15.0375661,17.5 17.5,15.0375661 17.5,12 L17.5,10 L19,10 L19,12 C19,15.6126238 16.263325,18.5860629 12.75,18.9602923 Z M8,6 C8,3.790861 9.790861,2 12,2 C14.209139,2 16,3.790861 16,6 L16,12 C16,14.209139 14.209139,16 12,16 C9.790861,16 8,14.209139 8,12 L8,6 Z" id="Combined-Shape"></path>
        </g>
    </g>
</svg>