<?xml version="1.0" encoding="UTF-8"?>
<svg width="24px" height="24px" viewBox="0 0 24 24" version="1.1" xmlns="http://www.w3.org/2000/svg" xmlns:xlink="http://www.w3.org/1999/xlink">
    <!-- Generator: Sketch 52.2 (67145) - http://www.bohemiancoding.com/sketch -->
    <title>icons_outlined_camera-switch</title>
    <desc>Created with Sketch.</desc>
    <g id="icons_outlined_camera-switch" stroke="none" stroke-width="1" fill="none" fill-rule="evenodd">
        <g id="icon20" fill="#000000" fill-rule="nonzero">
            <path d="M9.70000005,16.2730239 L9.70000005,17 L8.5,17 L8.5,15.2 L8.5,14.5 C8.5,14.2238576 8.72385763,14 9,14 L11.5,14 L11.5,15.2 L10.267095,15.2 C10.7514475,15.582097 11.3568209,15.8 12,15.8 C13.5463973,15.8 14.8,14.5463973 14.8,13 L16,13 C16,15.209139 14.209139,17 12,17 C11.1438878,17 10.350593,16.7310465 9.70000005,16.2730239 Z M14.3,9.72697613 L14.3,9 L15.5,9 L15.5,11.5 C15.5,11.7761424 15.2761424,12 15,12 L14.3,12 L12.5,12 L12.5,10.8 L13.7329451,10.8 C13.2492692,10.418619 12.6438345,10.2 12,10.2 C10.4536027,10.2 9.2,11.4536027 9.2,13 L8,13 C8,10.790861 9.790861,9 12,9 C12.8561122,9 13.649407,9.26895349 14.3,9.72697613 Z M14.3577795,5.2 L9.64222051,5.2 L7.64222051,8.2 L3.2,8.2 L3.2,18.8 L20.8,18.8 L20.8,8.2 L16.3577795,8.2 L14.3577795,5.2 Z M14.7324081,4 C14.8995847,4 15.0557004,4.08355057 15.1484333,4.2226499 L17,7 L21,7 C21.5522847,7 22,7.44771525 22,8 L22,19 C22,19.5522847 21.5522847,20 21,20 L3,20 C2.44771525,20 2,19.5522847 2,19 L2,8 C2,7.44771525 2.44771525,7 3,7 L7,7 L8.85156673,4.2226499 C8.94429962,4.08355057 9.10041529,4 9.26759188,4 L14.7324081,4 Z" id="Combined-Shape"></path>
        </g>
    </g>
</svg>