<?xml version="1.0" encoding="UTF-8"?>
<svg width="24px" height="24px" viewBox="0 0 24 24" version="1.1" xmlns="http://www.w3.org/2000/svg" xmlns:xlink="http://www.w3.org/1999/xlink">
    <!-- Generator: Sketch 52.2 (67145) - http://www.bohemiancoding.com/sketch -->
    <title>icons_outlined_volume-off</title>
    <desc>Created with Sketch.</desc>
    <g id="icons_outlined_volume-off" stroke="none" stroke-width="1" fill="none" fill-rule="evenodd">
        <path d="M8.84852842,7.15147158 L11.2928932,4.70710678 C11.6834175,4.31658249 12.3165825,4.31658249 12.7071068,4.70710678 C12.8946432,4.89464316 13,5.14899707 13,5.41421356 L13,11.3029432 L15.8635112,14.1664544 C16.2743314,13.5304353 16.5,12.7838871 16.5,12 C16.5,10.9236273 16.0745099,9.91765564 15.3284271,9.17157288 L16.1769553,8.32304474 C17.1179702,9.26405965 17.7,10.5640597 17.7,12 C17.7,13.1304063 17.3393038,14.1765674 16.7267259,15.029669 L17.8698713,16.1728144 C18.7875614,14.994606 19.3,13.5389457 19.3,12 C19.3,10.1709098 18.5761218,8.45946962 17.3083261,7.19167389 L18.1568542,6.34314575 C19.6045695,7.790861 20.5,9.790861 20.5,12 C20.5,13.9042389 19.8346829,15.6530847 18.7238215,17.0267646 L21.4249789,19.7279221 L20.5764507,20.5764502 L3.84852868,3.84852817 L4.69705685,3 L8.84852842,7.15147158 Z M12,10.3029432 L12,5.41421356 L9.55563521,7.85857836 L12,10.3029432 Z M7.80294315,9.5 L3,9.5 L3,14.5 L7.91421356,14.5 L12,18.5857864 L12,13.6970568 L13,14.6970568 L13,18.5857864 C13,19.1380712 12.5522847,19.5857864 12,19.5857864 C11.7347835,19.5857864 11.4804296,19.4804296 11.2928932,19.2928932 L7.5,15.5 L3,15.5 C2.44771525,15.5 2,15.0522847 2,14.5 L2,9.5 C2,8.94771525 2.44771525,8.5 3,8.5 L6.80294315,8.5 L7.80294315,9.5 Z" id="Combined-Shape" fill="#000000"></path>
    </g>
</svg>