<?xml version="1.0" encoding="UTF-8"?>
<svg width="24px" height="24px" viewBox="0 0 24 24" version="1.1" xmlns="http://www.w3.org/2000/svg" xmlns:xlink="http://www.w3.org/1999/xlink">
    <!-- Generator: Sketch 52.2 (67145) - http://www.bohemiancoding.com/sketch -->
    <title>icons_filled_mini-program2</title>
    <desc>Created with Sketch.</desc>
    <g id="icons_filled_mini-program2" stroke="none" stroke-width="1" fill="none" fill-rule="evenodd">
        <g id="icon9" fill="#000000" fill-rule="nonzero">
            <path d="M12,22 C6.4771525,22 2,17.5228475 2,12 C2,6.4771525 6.4771525,2 12,2 C17.5228475,2 22,6.4771525 22,12 C22,17.5228475 17.5228475,22 12,22 Z M15.1786747,12.719806 C16.7498064,12.4465657 17.8818178,11.2075106 17.8818178,9.72727273 C17.8818178,8.04738896 16.3866076,6.7 14.5515148,6.7 C12.716422,6.7 11.2212117,8.04738896 11.2212117,9.72727273 L11.2212117,14.2727273 C11.2212117,15.1038206 10.4162355,15.7909091 9.39999962,15.7909091 C8.38376369,15.7909091 7.5787875,15.1038206 7.5787875,14.2727273 C7.5787875,13.6121298 8.10105782,13.0213176 8.86433117,12.8370792 C9.20564333,12.7517621 9.51898329,12.5041508 9.6454401,12.2090849 C9.66569501,12.1699439 9.68311312,12.118572 9.69212992,12.0644712 C9.69859908,12.0256562 9.70016489,11.9958675 9.69999877,11.9388116 C9.69999962,11.56555 9.38777037,11.3060606 8.97575719,11.3060606 L8.85454507,11.3060606 C7.25945029,11.5452627 6.09999962,12.7991045 6.09999962,14.2727273 C6.09999962,15.952611 7.59520983,17.3 9.43030265,17.3 C11.2653955,17.3 12.7606057,15.952611 12.7606057,14.2727273 L12.7606057,9.72727273 C12.7606057,8.89617937 13.5655819,8.20909091 14.5818178,8.20909091 C15.5980537,8.20909091 16.4030299,8.89617937 16.4030299,9.72727273 C16.4030299,10.4133088 15.8863555,11.0076347 15.1174862,11.1932238 C14.7684319,11.2707372 14.4702137,11.5089332 14.3363773,11.8212181 C14.1243471,12.2982117 14.4622832,12.7242424 15.0060602,12.7242424 L15.1786747,12.719806 Z" id="Combined-Shape"></path>
        </g>
    </g>
</svg>