<?xml version="1.0" encoding="UTF-8"?>
<svg width="24px" height="24px" viewBox="0 0 24 24" version="1.1" xmlns="http://www.w3.org/2000/svg" xmlns:xlink="http://www.w3.org/1999/xlink">
    <!-- Generator: Sketch 52.2 (67145) - http://www.bohemiancoding.com/sketch -->
    <title>icons_filled_subscriptions</title>
    <desc>Created with Sketch.</desc>
    <g id="icons_filled_subscriptions" stroke="none" stroke-width="1" fill="none" fill-rule="evenodd">
        <g id="Group" fill="#000000">
            <path d="M4,3 C4,2.44771525 4.44771525,2 5,2 L19,2 C19.5522847,2 20,2.44771525 20,3 L20,21 C20,21.5522847 19.5522847,22 19,22 L5,22 C4.44771525,22 4,21.5522847 4,21 L4,3 Z M8.5,8 C9.32842712,8 10,7.32842712 10,6.5 C10,5.67157288 9.32842712,5 8.5,5 C7.67157288,5 7,5.67157288 7,6.5 C7,7.32842712 7.67157288,8 8.5,8 Z M7,10 L7,11.5 L14.5,11.5 L14.5,10 L7,10 Z M7,13 L7,14.5 L11,14.5 L11,13 L7,13 Z M7,16 L7,17.5 L11,17.5 L11,16 L7,16 Z" id="Combined-Shape"></path>
        </g>
    </g>
</svg>