<?xml version="1.0" encoding="UTF-8"?>
<svg width="24px" height="24px" viewBox="0 0 24 24" version="1.1" xmlns="http://www.w3.org/2000/svg" xmlns:xlink="http://www.w3.org/1999/xlink">
    <!-- Generator: Sketch 50.2 (55047) - http://www.bohemiancoding.com/sketch -->
    <title>icons_outlined_music</title>
    <desc>Created with Sketch.</desc>
    <defs></defs>
    <g id="icons_outlined_music" stroke="none" stroke-width="1" fill="none" fill-rule="evenodd">
        <g id="common_icons_music" fill="#000000" fill-rule="nonzero">
            <path d="M19.5972863,2.80318067 C19.5226771,2.47930633 19.2025252,2.27476488 18.8772863,2.34318067 L7.26728625,4.89318067 C6.75103261,5.00829488 6.38979938,5.47453776 6.40728625,6.00318067 L6.40728625,16.4031807 C6.41027368,16.8370194 6.10332728,17.2112417 5.67728625,17.2931807 L4.00728625,17.6431807 C2.99829854,17.8986402 2.3216979,18.8458811 2.40728625,19.8831807 C2.45308559,20.9682135 3.32225343,21.8373813 4.40728625,21.8831807 C4.53355012,21.8974666 4.66102239,21.8974666 4.78728625,21.8831807 C4.85728625,21.8831807 5.90728625,21.6431807 6.08728625,21.5631807 C6.9983734,21.1260023 7.58608355,20.213505 7.60728625,19.2031807 L7.60728625,6.20318067 L18.3972863,3.83318067 L18.3972863,13.7431807 C18.396326,14.1756127 18.0911755,14.5476455 17.6672863,14.6331807 L15.9272863,15.0031807 C14.9343035,15.274758 14.277654,16.2176393 14.3672863,17.2431807 C14.4177383,18.3261642 15.2843027,19.1927286 16.3672863,19.2431807 C16.4968658,19.2579667 16.6277067,19.2579667 16.7572863,19.2431807 C17.1992916,19.1555782 17.636529,19.0454344 18.0672863,18.9131807 C18.978293,18.488326 19.5734799,17.5878159 19.6072863,16.5831807 L19.6072863,2.93318067 C19.6089363,2.88960748 19.605581,2.84598886 19.5972863,2.80318067 Z M18.4072863,15.6431807 L18.4072863,16.5431807 C18.3734998,17.0621621 18.0697874,17.5253236 17.6072863,17.7631807 C17.4072863,17.8331807 16.6772863,17.9931807 16.5172863,18.0231807 L16.3672863,18.0231807 C15.9193125,17.9687809 15.5788722,17.5942966 15.5672863,17.1431807 C15.5321017,16.7156597 15.7735044,16.3133218 16.1672863,16.1431807 L17.9072863,15.7931807 C18.0792293,15.7628381 18.2470352,15.7124964 18.4072863,15.6431807 Z M6.40728625,18.3031807 L6.40728625,19.2031807 C6.37699373,19.7230638 6.077472,20.1894078 5.61728625,20.4331807 C5.42728625,20.4931807 4.69728625,20.6531807 4.54728625,20.6931807 C4.30467933,20.7127655 4.06496176,20.6298263 3.88633215,20.4644989 C3.70770255,20.2991715 3.60649702,20.0665755 3.60728625,19.8231807 C3.57048788,19.3981156 3.80742967,18.9965193 4.19728625,18.8231807 L5.91728625,18.4831807 C6.08721189,18.4429312 6.25171355,18.382502 6.40728625,18.3031807 Z" id="Shape"></path>
        </g>
    </g>
</svg>