<?xml version="1.0" encoding="UTF-8"?>
<svg width="24px" height="24px" viewBox="0 0 24 24" version="1.1" xmlns="http://www.w3.org/2000/svg" xmlns:xlink="http://www.w3.org/1999/xlink">
    <!-- Generator: Sketch 50.2 (55047) - http://www.bohemiancoding.com/sketch -->
    <title>icons_outlined_mute</title>
    <desc>Created with Sketch.</desc>
    <defs></defs>
    <g id="icons_outlined_mute" stroke="none" stroke-width="1" fill="none" fill-rule="evenodd">
        <g id="common_icons_mute" fill="#000000">
            <g id="Group">
                <path d="M18.8048808,17.107824 L22.4249789,20.7279221 L21.5764507,21.5764502 L4.84852868,4.84852817 L5.69705685,4 L7.60857571,5.91151886 C8.26739702,5.20419447 9.09506285,4.6562304 10.0273967,4.33180314 C10.0093774,4.22388264 10,4.11303643 10,4 C10,2.8954305 10.8954305,2 12,2 C13.1045695,2 14,2.8954305 14,4 C14,4.11303643 13.9906226,4.22388264 13.9726033,4.33180314 C16.317288,5.14769073 18,7.37733614 18,10 L18,14 C18,15.0359413 18.2682936,16.0718826 18.8048808,17.107824 Z M8.45731125,6.7602544 L16.9005511,15.2034943 C16.8336616,14.8040214 16.8,14.4027783 16.8,14 L16.8,10 C16.8,7.94086096 15.4913875,6.13087529 13.5782297,5.46514753 L12.6222987,5.13250909 L12.7889885,4.13417698 C12.7962818,4.09049657 12.8,4.04574037 12.8,4 C12.8,3.5581722 12.4418278,3.2 12,3.2 C11.5581722,3.2 11.2,3.5581722 11.2,4 C11.2,4.04574037 11.2037182,4.09049657 11.2110115,4.13417698 L11.3777013,5.13250909 L10.4217703,5.46514753 C9.65461156,5.73209825 8.9846599,6.18303836 8.45731125,6.7602544 Z M18.3029692,20.0000261 L12,20 L5.18670673,20 C4.97372563,20 4.76630774,19.9319983 4.59466757,19.8059007 C4.14960038,19.4789265 4.05386708,18.8530633 4.38084128,18.4079961 C5.46027096,16.9386502 6,15.4693251 6,14 L6,10 C6,9.30936012 6.11668844,8.64597429 6.33142549,8.02848234 L7.30447337,9.00153022 C7.23589042,9.32480971 7.2,9.65898818 7.2,10 L7.2,14 C7.2,15.6303277 6.64849214,17.2355113 5.57422114,18.8000266 L12.000005,18.8 L17.1029643,18.8000211 L18.3029692,20.0000261 Z" id="Combined-Shape" fill-rule="nonzero"></path>
                <path d="M11,20 L13,20 L13,20.2 C13,20.7522848 12.5522847,21.2 12,21.2 L12,21.2 C11.4477153,21.2 11,20.7522848 11,20.2 L11,20 Z" id="Rectangle-21"></path>
            </g>
        </g>
    </g>
</svg>