<?xml version="1.0" encoding="UTF-8"?>
<svg width="24px" height="24px" viewBox="0 0 24 24" version="1.1" xmlns="http://www.w3.org/2000/svg" xmlns:xlink="http://www.w3.org/1999/xlink">
    <!-- Generator: Sketch 52.2 (67145) - http://www.bohemiancoding.com/sketch -->
    <title>icons_filled_shake</title>
    <desc>Created with Sketch.</desc>
    <g id="icons_filled_shake" stroke="none" stroke-width="1" fill="none" fill-rule="evenodd">
        <g id="Group-9" transform="translate(12.982963, 11.870590) rotate(-15.000000) translate(-12.982963, -11.870590) translate(0.982963, -0.129410)" fill="#000000">
            <path d="M18,17.1 L18,20.0066023 C18,20.5552407 17.555163,21 17.0044225,21 L7.9955775,21 C7.44573523,21 7,20.5550537 7,20.0066023 L7,12.9708159 C7.10054346,13.0162513 7.20305595,13.061002 7.30716882,13.1047182 C7.75506953,13.2927887 8.19403774,13.4454453 8.61326019,13.5501057 C9.36532772,13.7378621 10.0169868,13.7651262 10.5550475,13.5690094 C12.0776936,13.0140227 12.7768279,10.696631 11.9936094,9.81692237 C11.8378965,9.64202602 11.2482487,9.02469834 10.3264019,8.06810194 C9.95720949,7.6850173 9.56170797,7.27556153 9.16621506,6.86673331 C8.92892285,6.62144004 8.74438001,6.43088092 8.63881993,6.32196792 C8.24760272,5.91784182 7.6040796,5.60353839 7,5.49704354 L7,3.99339768 C7,3.44475929 7.44483697,3 7.9955775,3 L17.0044225,3 C17.5542648,3 18,3.44494629 18,3.99339768 L18,5.9 L16.4964089,5.9 C15.3056146,5.9 14.4462186,6.88522567 14.6042811,8.06591656 L15.610778,15.5842159 C15.724398,16.4329311 16.4808113,17.1 17.3320729,17.1 L18,17.1 Z M10.5,17 L10.5,18.2 L14.5,18.2 L14.5,17 L10.5,17 Z M15.7936704,7.90668953 C15.7318232,7.44470566 16.0325043,7.1 16.4964089,7.1 L18.750995,7.1 C19.2454437,7.1 19.6474038,7.50240229 19.6474038,7.99710104 L19.6474038,15.002899 C19.6474038,15.5019478 19.2504414,15.9 18.7479675,15.9 L17.3320729,15.9 C17.0840009,15.9 16.8342757,15.6797713 16.8001672,15.4249889 L15.7936704,7.90668953 Z M6.79923826,11.3369922 L6.28128571,10.9415564 C6.22899366,10.9016335 6.16502803,10.8800071 6.09923826,10.8800071 C5.93355284,10.8800071 5.79923826,11.0143217 5.79923826,11.1800071 L5.79923826,18.6966881 L3.46476443,19.4144347 C3.24885951,19.4812053 2.98107656,19.3502537 2.89763573,19.1313765 L0.794322339,13.6140842 C0.723517386,13.4283527 0.81114906,13.2566163 1.00715086,13.2025262 L3.5858025,12.3594949 C3.59870905,10.818806 3.64700113,9.78339794 3.73067875,9.25327073 C3.83168662,8.61335028 3.99555738,8.07591418 4.2226684,7.67733123 C4.42430596,7.32345456 4.70821338,7.05549372 5.05970732,6.85880725 C5.32590725,6.70984899 5.61614908,6.60989616 5.90706044,6.55144788 C6.07887256,6.51692835 6.20686362,6.50432884 6.26643897,6.5030429 L6.32342882,6.50075273 C6.69765298,6.48485525 7.28963616,6.72305076 7.55681878,6.99904946 C7.66230806,7.10788951 7.84666537,7.29825704 8.08367337,7.54325653 C8.4786808,7.9515829 8.87367963,8.36051823 9.25673737,8.75799044 C10.1427437,9.6773958 10.7379212,10.3005128 10.8772897,10.4570511 C11.0769713,10.6813329 10.6762546,12.009572 9.92404376,12.2837441 C9.87396239,12.3019982 9.82301948,12.3178538 9.77120469,12.3313716 C9.28148209,12.4591341 8.72471783,12.3771205 8.17233308,12.1534474 C7.94913729,12.0630704 7.78433965,11.9745782 7.703792,11.9228995 L6.79923826,11.3300671 L6.79923826,11.3369922 Z" id="Combined-Shape"></path>
        </g>
    </g>
</svg>