<?xml version="1.0" encoding="UTF-8"?>
<svg width="24px" height="24px" viewBox="0 0 24 24" version="1.1" xmlns="http://www.w3.org/2000/svg" xmlns:xlink="http://www.w3.org/1999/xlink">
    <!-- Generator: Sketch 52.2 (67145) - http://www.bohemiancoding.com/sketch -->
    <title>icons_filled_play</title>
    <desc>Created with Sketch.</desc>
    <g id="icons_filled_play" stroke="none" stroke-width="1" fill="none" fill-rule="evenodd">
        <g id="icon21" fill="#000000">
            <path d="M12,22 C6.4771525,22 2,17.5228475 2,12 C2,6.4771525 6.4771525,2 12,2 C17.5228475,2 22,6.4771525 22,12 C22,17.5228475 17.5228475,22 12,22 Z M10.7649995,8.38024849 C10.6855337,8.33058236 10.5937099,8.30424764 10.5,8.30424764 C10.2238576,8.30424764 10,8.52810527 10,8.80424764 L10,15.1957524 C10,15.2894622 10.0263347,15.381286 10.0760008,15.4607518 C10.222356,15.6949201 10.5308312,15.7661067 10.7649995,15.6197515 L15.8782032,12.4239992 C15.9425878,12.3837588 15.9969626,12.329384 16.0372029,12.2649995 C16.1835581,12.0308312 16.1123715,11.722356 15.8782032,11.5760008 L10.7649995,8.38024849 Z" id="Combined-Shape"></path>
        </g>
    </g>
</svg>