<?xml version="1.0" encoding="UTF-8"?>
<svg width="24px" height="24px" viewBox="0 0 24 24" version="1.1" xmlns="http://www.w3.org/2000/svg" xmlns:xlink="http://www.w3.org/1999/xlink">
    <!-- Generator: Sketch 52.2 (67145) - http://www.bohemiancoding.com/sketch -->
    <title>icons_filled_talk</title>
    <desc>Created with Sketch.</desc>
    <g id="icons_filled_talk" stroke="none" stroke-width="1" fill="none" fill-rule="evenodd">
        <path d="M13.9793646,14.5677919 L12,15.2275801 L11.4188516,18.7144702 C11.2372615,19.8040109 10.2068065,20.5400502 9.11726582,20.3584601 C8.95942267,20.3321529 8.80530715,20.2869974 8.6582252,20.2239623 L4.6060807,18.487329 C4.23839685,18.3297502 4,17.968212 4,17.5681839 L4,5.84561407 C4,5.46684201 4.21400238,5.12057889 4.5527864,4.95118688 L8.08352728,3.18581644 C9.07148428,2.69183794 10.2728304,3.09228664 10.7668089,4.08024363 C10.7873399,4.12130577 10.8064511,4.16306264 10.8241083,4.20544005 L14.5862138,13.2344932 C14.798631,13.7442945 14.5575536,14.3297683 14.0477523,14.5421855 C14.0252757,14.5515507 14.0024647,14.5600919 13.9793646,14.5677919 Z M17.6669048,17.6669048 C18.9067571,16.4270524 19.6,14.7626462 19.6,13 C19.6,11.2373538 18.9067571,9.57294758 17.6669048,8.33309524 L17.5254834,8.19167389 L18.6568542,7.06030304 L18.7982756,7.20172439 C20.3260195,8.72946832 21.2,10.7957902 21.2,13 C21.2,15.2042098 20.3260195,17.2705317 18.7982756,18.7982756 L18.6568542,18.939697 L17.5254834,17.8083261 L17.6669048,17.6669048 Z M15.6870058,15.6870058 C16.4012448,14.9727668 16.8,14.0153928 16.8,13 C16.8,11.9846072 16.4012448,11.0272332 15.6870058,10.3129942 L15.5455844,10.1715729 L16.6769553,9.04020203 L16.8183766,9.18162338 C17.8244076,10.1876543 18.4,11.5485077 18.4,13 C18.4,14.4514923 17.8244076,15.8123457 16.8183766,16.8183766 L16.6769553,16.959798 L15.5455844,15.8284271 L15.6870058,15.6870058 Z" id="Combined-Shape" fill="#000000"></path>
    </g>
</svg>