<?xml version="1.0" encoding="UTF-8"?>
<svg width="24px" height="24px" viewBox="0 0 24 24" version="1.1" xmlns="http://www.w3.org/2000/svg" xmlns:xlink="http://www.w3.org/1999/xlink">
    <!-- Generator: Sketch 52.2 (67145) - http://www.bohemiancoding.com/sketch -->
    <title>icons_outlined_favorites</title>
    <desc>Created with Sketch.</desc>
    <g id="icons_outlined_favorites" stroke="none" stroke-width="1" fill="none" fill-rule="evenodd">
        <g id="common_icons_favorites" fill="#000000" fill-rule="nonzero">
            <path d="M19.2525667,7.32494947 L12.2583126,3.2449679 C12.1555512,3.18502375 11.8444935,3.18499766 11.7416874,3.2449679 L4.74743327,7.32494947 L12,11.5122208 L19.2525667,7.32494947 Z M19.8,8.39452937 L12.6,12.5514513 L12.6,20.9657967 L19.5323969,16.9218985 C19.6403321,16.8589364 19.8,16.5813289 19.8,16.4577604 L19.8,8.39452937 Z M4.2,8.39452937 L4.2,16.4577604 C4.2,16.5788746 4.36122385,16.859844 4.46760307,16.9218985 L11.4,20.9657967 L11.4,12.5514513 L4.2,8.39452937 Z M11.1370422,2.20843322 C11.6136406,1.93041745 12.3867187,1.93062709 12.8629578,2.20843322 L20.1370422,6.45164908 C20.6136406,6.72966484 21,7.40621302 21,7.95232187 L21,16.4577604 C21,17.0085434 20.6132813,17.6806271 20.1370422,17.9584332 L12.8629578,22.2016491 C12.3863594,22.4796648 11.6132812,22.4794552 11.1370422,22.2016491 L3.86295784,17.9584332 C3.38635938,17.6804175 3,17.0038693 3,16.4577604 L3,7.95232187 C3,7.40153894 3.38671875,6.72945521 3.86295784,6.45164908 L11.1370422,2.20843322 Z" id="Mask"></path>
        </g>
    </g>
</svg>