<?xml version="1.0" encoding="UTF-8"?>
<svg width="24px" height="24px" viewBox="0 0 24 24" version="1.1" xmlns="http://www.w3.org/2000/svg" xmlns:xlink="http://www.w3.org/1999/xlink">
    <!-- Generator: Sketch 52.5 (67469) - http://www.bohemiancoding.com/sketch -->
    <title>icons_outlined_delete_on</title>
    <desc>Created with Sketch.</desc>
    <g id="icons_outlined_delete_on" stroke="none" stroke-width="1" fill="none" fill-rule="evenodd">
        <g id="icon39" fill="#000000" fill-rule="nonzero">
            <path d="M6.77355253,6.399997 L7.58590583,20.0475349 C7.61106164,20.4701525 7.96112672,20.8 8.38449235,20.8 L15.6155076,20.8 C16.0388733,20.8 16.3889384,20.4701525 16.4140942,20.0475349 L17.2264475,6.399997 L18.4285714,6.399997 L17.611974,20.1188373 C17.5490844,21.1753813 16.6739217,22 15.6155076,22 L8.38449235,22 C7.32607828,22 6.45091556,21.1753813 6.38802605,20.1188373 L5.57142856,6.399997 L6.77355253,6.399997 Z M9.5,9 L10.7000122,9 L11.2000122,18 L10,18 L9.5,9 Z M13.2999878,9 L14.5,9 L14,18 L12.7999878,18 L13.2999878,9 Z M4.4590499,2.35303271 L20.2159739,5.13140356 C20.4879211,5.17935518 20.6695054,5.43868437 20.6215537,5.71063152 L20.5,6.399997 L3.7582682,3.44797798 L3.87982193,2.7586125 C3.92777355,2.48666535 4.18710275,2.30508109 4.4590499,2.35303271 Z M10.7499171,1.2283746 L14.6891481,1.92296731 C14.9610953,1.97091893 15.1426796,2.23024812 15.0947279,2.50219528 L14.9731747,3.1915577 L10.049136,2.32331681 L10.1706892,1.63395439 C10.2186408,1.36200724 10.47797,1.18042298 10.7499171,1.2283746 Z" id="Path-2"></path>
        </g>
    </g>
</svg>