<?xml version="1.0" encoding="UTF-8"?>
<svg width="24px" height="24px" viewBox="0 0 24 24" version="1.1" xmlns="http://www.w3.org/2000/svg" xmlns:xlink="http://www.w3.org/1999/xlink">
    <!-- Generator: Sketch 52.2 (67145) - http://www.bohemiancoding.com/sketch -->
    <title>icons_filled_refresh</title>
    <desc>Created with Sketch.</desc>
    <g id="icons_filled_refresh" stroke="none" stroke-width="1" fill="none" fill-rule="evenodd">
        <g id="common_icons_miniprogram" fill="#000000" fill-rule="nonzero">
            <path d="M17.6568542,7.34314575 C19.1045695,8.790861 20,10.790861 20,13 C20,17.418278 16.418278,21 12,21 C7.581722,21 4,17.418278 4,13 C4,8.581722 7.581722,5 12,5 L12,7 C8.6862915,7 6,9.6862915 6,13 C6,16.3137085 8.6862915,19 12,19 C15.3137085,19 18,16.3137085 18,13 C18,11.3852639 17.3618946,9.87661321 16.2426407,8.75735931 L17.6568542,7.34314575 Z M10.5460197,5.13180618 L8.82842712,3.41421356 L10.2426407,2 L14.131728,5.8890873 C14.3269901,6.08434944 14.3269901,6.40093193 14.131728,6.59619408 L10.2426407,10.4852814 L8.82842712,9.07106781 L10.7741707,7.12532426 C8.04836137,7.69118678 6,10.1063832 6,13 C6,16.3137085 8.6862915,19 12,19 C15.3137085,19 18,16.3137085 18,13 C18,11.3852639 17.3618946,9.87661321 16.2426407,8.75735931 L17.6568542,7.34314575 C19.1045695,8.790861 20,10.790861 20,13 C20,17.418278 16.418278,21 12,21 C7.581722,21 4,17.418278 4,13 C4,9.07824577 6.821932,5.81558908 10.5460197,5.13180618 Z" id="Combined-Shape"></path>
        </g>
    </g>
</svg>