<?xml version="1.0" encoding="UTF-8"?>
<svg width="24px" height="24px" viewBox="0 0 24 24" version="1.1" xmlns="http://www.w3.org/2000/svg" xmlns:xlink="http://www.w3.org/1999/xlink">
    <!-- Generator: Sketch 52.2 (67145) - http://www.bohemiancoding.com/sketch -->
    <title>icons_filled_eyes_off</title>
    <desc>Created with Sketch.</desc>
    <g id="icons_filled_eyes_off" stroke="none" stroke-width="1" fill="none" fill-rule="evenodd">
        <g id="icon21" fill="#000000" fill-rule="nonzero">
            <path d="M18.9218787,16.8005584 L22.0918831,19.9705627 L21.0312229,21.0312229 L4.06066017,4.06066017 L5.12132034,3 L7.8588755,5.73755516 C9.15302069,5.26004417 10.5471275,5 12,5 C16.8077906,5 20.9720635,7.84762755 23,12 C22.0545468,13.9358958 20.6447484,15.5881976 18.9218787,16.8005584 Z M10.8238458,8.70252549 L15.2974745,13.1761542 C15.4285976,12.8085676 15.5,12.4126223 15.5,12 C15.5,10.0670034 13.9329966,8.5 12,8.5 C11.5873777,8.5 11.1914324,8.57140244 10.8238458,8.70252549 Z M16.1411245,18.2624448 C14.8469793,18.7399558 13.4528725,19 12,19 C7.1922094,19 3.0279365,16.1523724 1,12 C1.94545318,10.0641042 3.35525158,8.41180238 5.07812128,7.19944162 L8.70252549,10.8238458 C8.57140244,11.1914324 8.5,11.5873777 8.5,12 C8.5,13.9329966 10.0670034,15.5 12,15.5 C12.4126223,15.5 12.8085676,15.4285976 13.1761542,15.2974745 L16.1411245,18.2624448 Z" id="Combined-Shape"></path>
        </g>
    </g>
</svg>