<?xml version="1.0" encoding="UTF-8"?>
<svg width="24px" height="24px" viewBox="0 0 24 24" version="1.1" xmlns="http://www.w3.org/2000/svg" xmlns:xlink="http://www.w3.org/1999/xlink">
    <!-- Generator: Sketch 52.2 (67145) - http://www.bohemiancoding.com/sketch -->
    <title>icons_filled_photo-wall</title>
    <desc>Created with Sketch.</desc>
    <g id="icons_filled_photo-wall" stroke="none" stroke-width="1" fill="none" fill-rule="evenodd">
        <g id="icon34" fill="#000000">
            <path d="M6,6.5 L6,5 C6,4.44771525 6.44771525,4 7,4 L21,4 C21.5522847,4 22,4.44771525 22,5 L22,15 C22,15.5522847 21.5522847,16 21,16 L19.5,16 L19.5,8 C19.5,7.17157288 18.8284271,6.5 18,6.5 L6,6.5 Z M3,8 L17,8 C17.5522847,8 18,8.44771525 18,9 L18,19 C18,19.5522847 17.5522847,20 17,20 L3,20 C2.44771525,20 2,19.5522847 2,19 L2,9 C2,8.44771525 2.44771525,8 3,8 Z" id="Combined-Shape"></path>
        </g>
    </g>
</svg>