<?xml version="1.0" encoding="UTF-8"?>
<svg width="24px" height="24px" viewBox="0 0 24 24" version="1.1" xmlns="http://www.w3.org/2000/svg" xmlns:xlink="http://www.w3.org/1999/xlink">
    <!-- Generator: Sketch 50.2 (55047) - http://www.bohemiancoding.com/sketch -->
    <title>icons_outlined_previous2</title>
    <desc>Created with Sketch.</desc>
    <defs></defs>
    <g id="icons_outlined_previous2" stroke="none" stroke-width="1" fill="none" fill-rule="evenodd">
        <g id="common_icons_miniprogram">
            <path d="M9.26862907,11.2 L10.6769553,12.6083263 L9.82842712,13.4568544 L7.84852817,11.4769555 L7.35355339,10.9819807 C7.15829124,10.7867186 7.15829124,10.4701361 7.35355339,10.2748739 L9.82842712,7.80000019 L10.6769553,8.64852836 L9.32548366,10 L14,10 C15.6568542,10 17,11.3431458 17,13 C17,14.6568542 15.6568542,16 14,16 L12,16.0000002 L12,14.8000002 L14,14.8000002 C14.9941125,14.8 15.8,13.9941125 15.8,13 C15.8,12.0058875 14.9941125,11.2 14,11.2 L9.26862907,11.2 Z M12,22 C6.4771525,22 2,17.5228475 2,12 C2,6.4771525 6.4771525,2 12,2 C17.5228475,2 22,6.4771525 22,12 C22,17.5228475 17.5228475,22 12,22 Z M12,20.8 C16.8601058,20.8 20.8,16.8601058 20.8,12 C20.8,7.1398942 16.8601058,3.2 12,3.2 C7.1398942,3.2 3.2,7.1398942 3.2,12 C3.2,16.8601058 7.1398942,20.8 12,20.8 Z" id="Combined-Shape" fill="#000000" fill-rule="nonzero"></path>
            <g id="Group-6" transform="translate(7.000000, 7.000000)"></g>
        </g>
    </g>
</svg>