<?xml version="1.0" encoding="UTF-8"?>
<svg width="24px" height="24px" viewBox="0 0 24 24" version="1.1" xmlns="http://www.w3.org/2000/svg" xmlns:xlink="http://www.w3.org/1999/xlink">
    <!-- Generator: Sketch 52.2 (67145) - http://www.bohemiancoding.com/sketch -->
    <title>icons_filled_setting</title>
    <desc>Created with Sketch.</desc>
    <g id="icons_filled_setting" stroke="none" stroke-width="1" fill="none" fill-rule="evenodd">
        <g id="icon26" fill="#000000">
            <path d="M14.2075387,4.83015464 C14.6609779,4.9696001 15.0960947,5.1508785 15.5083849,5.36948567 L17.3408974,4.26997816 C17.7343732,4.03389271 18.2380315,4.09589589 18.5624999,4.42036431 L19.5796357,5.43750007 C19.9041041,5.76196849 19.9661073,6.26562685 19.7300218,6.6591026 L18.6305143,8.49161512 C18.8491215,8.90390529 19.0303999,9.33902209 19.1698454,9.79246134 L21.2425356,10.3106339 C21.6877026,10.4219257 22,10.8219088 22,11.2807764 L22,12.7192236 C22,13.1780912 21.6877026,13.5780743 21.2425356,13.6893661 L19.1698454,14.2075387 C19.0303999,14.6609779 18.8491215,15.0960947 18.6305143,15.5083849 L19.7300218,17.3408974 C19.9661073,17.7343732 19.9041041,18.2380315 19.5796357,18.5624999 L18.5624999,19.5796357 C18.2380315,19.9041041 17.7343732,19.9661073 17.3408974,19.7300218 L15.5083849,18.6305143 C15.0960947,18.8491215 14.6609779,19.0303999 14.2075387,19.1698454 L13.6893661,21.2425356 C13.5780743,21.6877026 13.1780912,22 12.7192236,22 L11.2807764,22 C10.8219088,22 10.4219257,21.6877026 10.3106339,21.2425356 L9.79246134,19.1698454 C9.33902209,19.0303999 8.90390529,18.8491215 8.49161512,18.6305143 L6.6591026,19.7300218 C6.26562685,19.9661073 5.76196849,19.9041041 5.43750007,19.5796357 L4.42036431,18.5624999 C4.09589589,18.2380315 4.03389271,17.7343732 4.26997816,17.3408974 L5.36948567,15.5083849 C5.1508785,15.0960947 4.9696001,14.6609779 4.83015464,14.2075387 L2.75746437,13.6893661 C2.31229737,13.5780743 2,13.1780912 2,12.7192236 L2,11.2807764 C2,10.8219088 2.31229737,10.4219257 2.75746437,10.3106339 L4.83015464,9.79246134 C4.9696001,9.33902209 5.1508785,8.90390529 5.36948567,8.49161512 L4.26997816,6.6591026 C4.03389271,6.26562685 4.09589589,5.76196849 4.42036431,5.43750007 L5.43750007,4.42036431 C5.76196849,4.09589589 6.26562685,4.03389271 6.6591026,4.26997816 L8.49161512,5.36948567 C8.90390529,5.1508785 9.33902209,4.9696001 9.79246134,4.83015464 L10.3106339,2.75746437 C10.4219257,2.31229737 10.8219088,2 11.2807764,2 L12.7192236,2 C13.1780912,2 13.5780743,2.31229737 13.6893661,2.75746437 L14.2075387,4.83015464 Z M12,16 C14.209139,16 16,14.209139 16,12 C16,9.790861 14.209139,8 12,8 C9.790861,8 8,9.790861 8,12 C8,14.209139 9.790861,16 12,16 Z" id="Combined-Shape"></path>
        </g>
    </g>
</svg>