<?xml version="1.0" encoding="UTF-8"?>
<svg width="24px" height="24px" viewBox="0 0 24 24" version="1.1" xmlns="http://www.w3.org/2000/svg" xmlns:xlink="http://www.w3.org/1999/xlink">
    <!-- Generator: Sketch 52.2 (67145) - http://www.bohemiancoding.com/sketch -->
    <title>icons_filled_transfer-text</title>
    <desc>Created with Sketch.</desc>
    <g id="icons_filled_transfer-text" stroke="none" stroke-width="1" fill="none" fill-rule="evenodd">
        <path d="M4,3 L20,3 C20.5522847,3 21,3.44771525 21,4 L21,20 C21,20.5522847 20.5522847,21 20,21 L4,21 C3.44771525,21 3,20.5522847 3,20 L3,4 C3,3.44771525 3.44771525,3 4,3 Z M7.198,8.848 L7.198,9.992 L8.87,9.992 C9.332,11.587 10.157,12.984 11.345,14.194 C10.201,15.162 8.749,15.866 7,16.317 L7.616,17.329 C9.409,16.823 10.927,16.02 12.159,14.931 C13.325,15.899 14.788,16.713 16.548,17.373 L17.186,16.394 C15.514,15.778 14.106,15.03 12.973,14.128 C13.985,13.017 14.755,11.642 15.283,9.992 L16.944,9.992 L16.944,8.848 L12.786,8.848 C12.456,8.133 12.093,7.517 11.697,7 L10.542,7.418 C10.938,7.869 11.279,8.342 11.554,8.848 L7.198,8.848 Z M9.97,9.992 L14.095,9.992 C13.666,11.323 13.017,12.467 12.159,13.413 C11.147,12.423 10.421,11.29 9.97,9.992 Z" id="Combined-Shape" fill="#000000"></path>
    </g>
</svg>