<?xml version="1.0" encoding="UTF-8"?>
<svg width="24px" height="24px" viewBox="0 0 24 24" version="1.1" xmlns="http://www.w3.org/2000/svg" xmlns:xlink="http://www.w3.org/1999/xlink">
    <!-- Generator: Sketch 50.2 (55047) - http://www.bohemiancoding.com/sketch -->
    <title>icons_outlined_mike2</title>
    <desc>Created with Sketch.</desc>
    <defs></defs>
    <g id="icons_outlined_mike2" stroke="none" stroke-width="1" fill="none" fill-rule="evenodd">
        <g id="icon24" fill="#000000" fill-rule="nonzero">
            <path d="M12,20.8 C16.8601058,20.8 20.8,16.8601058 20.8,12 C20.8,7.1398942 16.8601058,3.2 12,3.2 C7.1398942,3.2 3.2,7.1398942 3.2,12 C3.2,16.8601058 7.1398942,20.8 12,20.8 Z M12,22 C6.4771525,22 2,17.5228475 2,12 C2,6.4771525 6.4771525,2 12,2 C17.5228475,2 22,6.4771525 22,12 C22,17.5228475 17.5228475,22 12,22 Z M12,7.7 C11.2820298,7.7 10.7,8.28202983 10.7,9 L10.7,12.5 C10.7,13.2179702 11.2820298,13.8 12,13.8 C12.7179702,13.8 13.3,13.2179702 13.3,12.5 L13.3,9 C13.3,8.28202983 12.7179702,7.7 12,7.7 Z M12.6000245,16.9603384 L12.6000245,18.5 L11.4000244,18.5 L11.4000244,16.9603399 C9.19839688,16.6669239 7.5,14.7811214 7.5,12.4975018 L7.5,11 L8.7,11 L8.7,12.4975018 C8.7,14.3219031 10.1773997,15.8 12,15.8 C13.8227257,15.8 15.3,14.3217816 15.3,12.4975018 L15.3,11 L16.5,11 L16.5,12.4975018 C16.5,14.7806453 14.8020307,16.6668791 12.6000245,16.9603384 Z M12,6.5 C13.3807119,6.5 14.5,7.61928813 14.5,9 L14.5,12.5 C14.5,13.8807119 13.3807119,15 12,15 C10.6192881,15 9.5,13.8807119 9.5,12.5 L9.5,9 C9.5,7.61928813 10.6192881,6.5 12,6.5 Z" id="Combined-Shape"></path>
        </g>
    </g>
</svg>