<?xml version="1.0" encoding="UTF-8"?>
<svg width="24px" height="24px" viewBox="0 0 24 24" version="1.1" xmlns="http://www.w3.org/2000/svg" xmlns:xlink="http://www.w3.org/1999/xlink">
    <!-- Generator: Sketch 52.2 (67145) - http://www.bohemiancoding.com/sketch -->
    <title>icons_filled_float-window_off</title>
    <desc>Created with Sketch.</desc>
    <g id="icons_filled_float-window_off" stroke="none" stroke-width="1" fill="none" fill-rule="evenodd">
        <g id="icon22" fill="#000000" fill-rule="nonzero">
            <path d="M6.06912721,3.94780686 C7.72844754,2.72358627 9.77972246,2 12,2 C17.5228475,2 22,6.4771525 22,12 C22,14.2202775 21.2764137,16.2715525 20.0521931,17.9308728 L21.5459415,19.4246212 L20.4852814,20.4852814 L3.51471863,3.51471863 L4.5753788,2.45405845 L6.06912721,3.94780686 Z M18.6177513,16.496431 C19.4900987,15.2150179 20,13.6670559 20,12 C20,7.581722 16.418278,4 12,4 C10.3329441,4 8.7849821,4.50990128 7.50356904,5.3822487 L8.95204898,6.83072864 C9.84531886,6.30289409 10.8872871,6 12,6 C15.3137085,6 18,8.6862915 18,12 C18,13.1127129 17.6971059,14.1546811 17.1692714,15.047951 L18.6177513,16.496431 Z M15.6834697,13.5621493 C15.8872635,13.0822167 16,12.5542738 16,12 C16,9.790861 14.209139,8 12,8 C11.4457262,8 10.9177833,8.11273651 10.4378507,8.31653035 L15.6834697,13.5621493 Z M3.94780686,6.06912721 L5.3822487,7.50356904 C4.50990128,8.7849821 4,10.3329441 4,12 C4,16.418278 7.581722,20 12,20 C13.6670559,20 15.2150179,19.4900987 16.496431,18.6177513 L17.9308728,20.0521931 C16.2715525,21.2764137 14.2202775,22 12,22 C6.4771525,22 2,17.5228475 2,12 C2,9.77972246 2.72358627,7.72844754 3.94780686,6.06912721 Z M6.83072864,8.95204898 L8.31653035,10.4378507 C8.11273651,10.9177833 8,11.4457262 8,12 C8,14.209139 9.790861,16 12,16 C12.5542738,16 13.0822167,15.8872635 13.5621493,15.6834697 L15.047951,17.1692714 C14.1546811,17.6971059 13.1127129,18 12,18 C8.6862915,18 6,15.3137085 6,12 C6,10.8872871 6.30289409,9.84531886 6.83072864,8.95204898 Z" id="Combined-Shape"></path>
        </g>
    </g>
</svg>