<?xml version="1.0" encoding="UTF-8"?>
<svg width="24px" height="24px" viewBox="0 0 24 24" version="1.1" xmlns="http://www.w3.org/2000/svg" xmlns:xlink="http://www.w3.org/1999/xlink">
    <!-- Generator: Sketch 50.2 (55047) - http://www.bohemiancoding.com/sketch -->
    <title>icons_outlined_link</title>
    <desc>Created with Sketch.</desc>
    <defs></defs>
    <g id="icons_outlined_link" stroke="none" stroke-width="1" fill="none" fill-rule="evenodd">
        <g id="Group" transform="translate(3.000000, 3.000000)" fill="#000000" fill-rule="nonzero">
            <path d="M14.6568542,9 L13.8083261,8.15147186 L15.9296465,6.03015152 C17.0231145,4.9366835 17.0231145,3.16382156 15.9296465,2.07035354 C14.8361784,0.976885527 13.0633165,0.976885527 11.9698485,2.07035354 L8.08076118,5.95944084 C6.98729317,7.05290886 6.98729317,8.8257708 8.08076118,9.91923882 L7.23223305,10.767767 C5.67013588,9.20566979 5.67013588,6.67300987 7.23223305,5.1109127 L11.1213203,1.22182541 C12.6834175,-0.34027176 15.2160774,-0.34027176 16.7781746,1.22182541 C18.3402718,2.78392257 18.3402718,5.31658249 16.7781746,6.87867966 L14.6568542,9 Z M3.34314575,9 L4.19167389,9.84852814 L2.07035354,11.9698485 C0.976885527,13.0633165 0.976885527,14.8361784 2.07035354,15.9296465 C3.16382156,17.0231145 4.9366835,17.0231145 6.03015152,15.9296465 L9.91923882,12.0405592 C11.0127068,10.9470911 11.0127068,9.1742292 9.91923882,8.08076118 L10.767767,7.23223305 C12.3298641,8.79433021 12.3298641,11.3269901 10.767767,12.8890873 L6.87867966,16.7781746 C5.31658249,18.3402718 2.78392257,18.3402718 1.22182541,16.7781746 C-0.34027176,15.2160774 -0.34027176,12.6834175 1.22182541,11.1213203 L3.34314575,9 Z" id="Combined-Shape"></path>
        </g>
    </g>
</svg>