<?xml version="1.0" encoding="UTF-8"?>
<svg width="24px" height="24px" viewBox="0 0 24 24" version="1.1" xmlns="http://www.w3.org/2000/svg" xmlns:xlink="http://www.w3.org/1999/xlink">
    <!-- Generator: Sketch 52.2 (67145) - http://www.bohemiancoding.com/sketch -->
    <title>icons_filled_mike2</title>
    <desc>Created with Sketch.</desc>
    <g id="icons_filled_mike2" stroke="none" stroke-width="1" fill="none" fill-rule="evenodd">
        <g id="icon24" fill="#000000">
            <path d="M12.6000245,16.4603384 C14.8020307,16.1668791 16.5,14.2806453 16.5,11.9975018 L16.5,10.5 L15.3,10.5 L15.3,11.9975018 C15.3,13.8217816 13.8227257,15.3 12,15.3 C10.1773997,15.3 8.7,13.8219031 8.7,11.9975018 L8.7,10.5 L7.5,10.5 L7.5,11.9975018 C7.5,14.2811214 9.19839688,16.1669239 11.4000244,16.4603399 L11.4000244,18 L12.6000245,18 L12.6000245,16.4603384 Z M12,22 C6.4771525,22 2,17.5228475 2,12 C2,6.4771525 6.4771525,2 12,2 C17.5228475,2 22,6.4771525 22,12 C22,17.5228475 17.5228475,22 12,22 Z M12,6.5 C10.8954305,6.5 10,7.3954305 10,8.5 L10,12 C10,13.1045695 10.8954305,14 12,14 C13.1045695,14 14,13.1045695 14,12 L14,8.5 C14,7.3954305 13.1045695,6.5 12,6.5 Z" id="Combined-Shape"></path>
        </g>
    </g>
</svg>