<?xml version="1.0" encoding="UTF-8"?>
<svg width="24px" height="24px" viewBox="0 0 24 24" version="1.1" xmlns="http://www.w3.org/2000/svg" xmlns:xlink="http://www.w3.org/1999/xlink">
    <!-- Generator: Sketch 50.2 (55047) - http://www.bohemiancoding.com/sketch -->
    <title>icons_outlined_report_problem</title>
    <desc>Created with Sketch.</desc>
    <defs></defs>
    <g id="icons_outlined_report_problem" stroke="none" stroke-width="1" fill="none" fill-rule="evenodd">
        <path d="M11.9983807,4.40008709 L3.07828678,19.8542285 L20.9214654,19.8527331 L11.9983807,4.40008709 Z M2.73198946,21.0542575 C2.17970471,21.0543038 1.73195194,20.6066261 1.73190565,20.0543413 C1.73189094,19.8788151 1.77807728,19.7063769 1.86582301,19.5543567 L11.1322606,3.50017172 C11.4083483,3.02184749 12.0199199,2.85790232 12.4982441,3.13398994 C12.6502857,3.22174797 12.7765459,3.34798458 12.8643324,3.50000972 L22.133877,19.5526412 C22.4100541,20.0309138 22.2462233,20.6425161 21.7679507,20.9186932 C21.6159412,21.0064706 21.4435045,21.0526893 21.2679717,21.052704 L2.73198946,21.0542575 Z M11.3725586,9.95410156 L12.6274414,9.95410156 L12.5297852,14.6757812 L11.4702148,14.6757812 L11.3725586,9.95410156 Z M11.9975586,17.0976562 C11.6020508,17.0976562 11.2895508,16.7900391 11.2895508,16.4042969 C11.2895508,16.0185547 11.6020508,15.7158203 11.9975586,15.7158203 C12.3979492,15.7158203 12.7104492,16.0185547 12.7104492,16.4042969 C12.7104492,16.7900391 12.3979492,17.0976562 11.9975586,17.0976562 Z" id="Combined-Shape" fill="#000000" fill-rule="nonzero"></path>
    </g>
</svg>