<?xml version="1.0" encoding="UTF-8"?>
<svg width="24px" height="24px" viewBox="0 0 24 24" version="1.1" xmlns="http://www.w3.org/2000/svg" xmlns:xlink="http://www.w3.org/1999/xlink">
    <!-- Generator: Sketch 50.2 (55047) - http://www.bohemiancoding.com/sketch -->
    <title>icons_outlined_coin</title>
    <desc>Created with Sketch.</desc>
    <defs></defs>
    <g id="icons_outlined_coin" stroke="none" stroke-width="1" fill="none" fill-rule="evenodd">
        <g id="icon21" fill="#000000" fill-rule="nonzero">
            <path d="M12.3999939,11.2000122 L14,8 L15.5,8 L13.8999939,11.2000122 L15.5,11.2000122 L15.5,12.4000123 L12.6000245,12.4000123 L12.6000245,13.5 L15.5,13.5 L15.5,14.7 L12.6000245,14.7 L12.6000245,16.5 L11.4000244,16.5 L11.4000244,14.7 L8.5,14.7 L8.5,13.5 L11.4000244,13.5 L11.4000244,12.4000123 L8.5,12.4000123 L8.5,11.2000122 L10.1000061,11.2000122 L8.5,8 L10,8 L11.6000061,11.2000122 L12.3999939,11.2000122 Z M12,22 C6.4771525,22 2,17.5228475 2,12 C2,6.4771525 6.4771525,2 12,2 C17.5228475,2 22,6.4771525 22,12 C22,17.5228475 17.5228475,22 12,22 Z M12,20.8 C16.8601058,20.8 20.8,16.8601058 20.8,12 C20.8,7.1398942 16.8601058,3.2 12,3.2 C7.1398942,3.2 3.2,7.1398942 3.2,12 C3.2,16.8601058 7.1398942,20.8 12,20.8 Z" id="Oval-78"></path>
        </g>
    </g>
</svg>