<?xml version="1.0" encoding="UTF-8"?>
<svg width="24px" height="24px" viewBox="0 0 24 24" version="1.1" xmlns="http://www.w3.org/2000/svg" xmlns:xlink="http://www.w3.org/1999/xlink">
    <!-- Generator: Sketch 52.2 (67145) - http://www.bohemiancoding.com/sketch -->
    <title>icons_filled_star</title>
    <desc>Created with Sketch.</desc>
    <g id="icons_filled_star" stroke="none" stroke-width="1" fill="none" fill-rule="evenodd">
        <g id="Group-25" fill="#000000">
            <path d="M12,18.5 L7.32783438,20.9563028 C6.83898979,21.2133036 6.23436264,21.0253571 5.97736183,20.5365125 C5.87502276,20.3418521 5.83970808,20.118884 5.87688493,19.9021263 L6.76918916,14.6995935 L2.98932777,11.0151392 C2.59384419,10.629638 2.58575189,9.99652475 2.9712531,9.60104117 C3.1247617,9.44355754 3.32590411,9.34107036 3.54354115,9.30944585 L8.76718111,8.55040653 L11.1032639,3.81698575 C11.3476862,3.32173209 11.9473121,3.11839309 12.4425657,3.36281539 C12.6397783,3.46014562 12.7994058,3.61977315 12.8967361,3.81698575 L15.2328189,8.55040653 L20.4564589,9.30944585 C21.0030037,9.38886347 21.3816852,9.89630632 21.3022676,10.4428512 C21.270643,10.6604882 21.1681559,10.8616306 21.0106722,11.0151392 L17.2308108,14.6995935 L18.1231151,19.9021263 C18.2164761,20.4464628 17.8508883,20.9634187 17.3065518,21.0567797 C17.0897942,21.0939566 16.8668261,21.0586419 16.6721656,20.9563028 L12,18.5 Z" id="Star"></path>
        </g>
    </g>
</svg>