<?xml version="1.0" encoding="UTF-8"?>
<svg width="24px" height="24px" viewBox="0 0 24 24" version="1.1" xmlns="http://www.w3.org/2000/svg" xmlns:xlink="http://www.w3.org/1999/xlink">
    <!-- Generator: Sketch 50.2 (55047) - http://www.bohemiancoding.com/sketch -->
    <title>icons_outlined_talk</title>
    <desc>Created with Sketch.</desc>
    <defs></defs>
    <g id="icons_outlined_talk" stroke="none" stroke-width="1" fill="none" fill-rule="evenodd">
        <g id="Group-12" transform="translate(4.000000, 2.000000)" fill="#000000" fill-rule="nonzero">
            <path d="M5.71641601,2.66697851 C5.70935311,2.65002755 5.70170865,2.6333248 5.69349623,2.61689995 C5.49590483,2.22171715 5.0153664,2.06153767 4.6201836,2.25912907 L1.2,3.96922087 L1.2,15.4363047 L5.13092836,17.1209883 C5.18976114,17.1462023 5.25140735,17.1642645 5.31454461,17.1747874 C5.75036086,17.2474234 6.16254289,16.9530077 6.23517893,16.5171914 L6.93510518,12.317634 L9.39576424,11.4974143 L5.71641601,2.66697851 Z M9.97936464,12.5677919 L8,13.2275801 L7.41885164,16.7144702 C7.23726154,17.8040109 6.20680646,18.5400502 5.11726582,18.3584601 C4.95942267,18.3321529 4.80530715,18.2869974 4.6582252,18.2239623 L0.606080701,16.487329 C0.238396854,16.3297502 -2.18260965e-11,15.968212 -2.18260965e-11,15.5681839 L-2.18278728e-11,3.84561407 C-2.18278728e-11,3.46684201 0.214002376,3.12057889 0.552786404,2.95118688 L4.08352728,1.18581644 C5.07148428,0.691837943 6.27283036,1.09228664 6.76680886,2.08024363 C6.78733992,2.12130577 6.80645107,2.16306264 6.82410832,2.20544005 L10.5862138,11.2344932 C10.798631,11.7442945 10.5575536,12.3297683 10.0477523,12.5421855 C10.0252757,12.5515507 10.0024647,12.5600919 9.97936464,12.5677919 Z M13.8083261,15.8083261 C15.0761218,14.5405304 15.8,12.8290902 15.8,11 C15.8,9.17090981 15.0761218,7.45946962 13.8083261,6.19167389 L14.6568542,5.34314575 C16.1045695,6.790861 17,8.790861 17,11 C17,13.209139 16.1045695,15.209139 14.6568542,16.6568542 L13.8083261,15.8083261 Z M11.8284271,13.8284271 C12.5745099,13.0823444 13,12.0763727 13,11 C13,9.92362725 12.5745099,8.91765564 11.8284271,8.17157288 L12.6769553,7.32304474 C13.6179702,8.26405965 14.2,9.56405965 14.2,11 C14.2,12.4359403 13.6179702,13.7359403 12.6769553,14.6769553 L11.8284271,13.8284271 Z" id="Combined-Shape"></path>
        </g>
    </g>
</svg>