<?xml version="1.0" encoding="UTF-8"?>
<svg width="24px" height="24px" viewBox="0 0 24 24" version="1.1" xmlns="http://www.w3.org/2000/svg" xmlns:xlink="http://www.w3.org/1999/xlink">
    <!-- Generator: Sketch 52.2 (67145) - http://www.bohemiancoding.com/sketch -->
    <title>icons_filled_nearby</title>
    <desc>Created with Sketch.</desc>
    <g id="icons_filled_nearby" stroke="none" stroke-width="1" fill="none" fill-rule="evenodd">
        <g id="icon16" fill="#000000">
            <path d="M7,6 C5.8954305,6 5,5.1045695 5,4 C5,2.8954305 5.8954305,2 7,2 C8.1045695,2 9,2.8954305 9,4 C9,5.1045695 8.1045695,6 7,6 Z M5.63989566,8 L8.36010434,8 C9.18853147,8 9.86010434,8.67157288 9.86010434,9.5 C9.86010434,9.54453215 9.85812123,9.58904221 9.8541609,9.63339791 L8.83134536,21.0889319 C8.78529455,21.604701 8.35312849,22 7.83530766,22 L6.16469234,22 C5.64687151,22 5.21470545,21.604701 5.16865464,21.0889319 L4.1458391,9.63339791 C4.07216547,8.80825325 4.6813531,8.07961707 5.50649775,8.00594344 C5.55085345,8.00198311 5.59536351,8 5.63989566,8 Z M17,6 C15.8954305,6 15,5.1045695 15,4 C15,2.8954305 15.8954305,2 17,2 C18.1045695,2 19,2.8954305 19,4 C19,5.1045695 18.1045695,6 17,6 Z M15.6398957,8 L18.3601043,8 C19.1885315,8 19.8601043,8.67157288 19.8601043,9.5 C19.8601043,9.54453215 19.8581212,9.58904221 19.8541609,9.63339791 L18.8313454,21.0889319 C18.7852946,21.604701 18.3531285,22 17.8353077,22 L16.1646923,22 C15.6468715,22 15.2147054,21.604701 15.1686546,21.0889319 L14.1458391,9.63339791 C14.0721655,8.80825325 14.6813531,8.07961707 15.5064977,8.00594344 C15.5508534,8.00198311 15.5953635,8 15.6398957,8 Z" id="Combined-Shape"></path>
        </g>
    </g>
</svg>