<?xml version="1.0" encoding="UTF-8"?>
<svg width="24px" height="24px" viewBox="0 0 24 24" version="1.1" xmlns="http://www.w3.org/2000/svg" xmlns:xlink="http://www.w3.org/1999/xlink">
    <!-- Generator: Sketch 52.2 (67145) - http://www.bohemiancoding.com/sketch -->
    <title>icons_filled_shop</title>
    <desc>Created with Sketch.</desc>
    <g id="icons_filled_shop" stroke="none" stroke-width="1" fill="none" fill-rule="evenodd">
        <g id="icon37" fill="#000000">
            <path d="M7.5,7 L7.5,6.5 C7.5,4.01471863 9.51471863,2 12,2 C14.4852814,2 16.5,4.01471863 16.5,6.5 L16.5,7 L18.9991283,7 C19.5518945,7 20,7.44892021 20,8.00748397 L20,20.0081158 C20,21.1082031 19.1054862,22 18.0059397,22 L5.99406028,22 C4.8927712,22 4,21.1066027 4,20.0081158 L4,8.00748397 C4,7.45106594 4.44463086,7 5.00087166,7 L7.5,7 Z M9,7 L15,7 L15,6.5 C15,4.84314575 13.6568542,3.5 12,3.5 C10.3431458,3.5 9,4.84314575 9,6.5 L9,7 Z M7.5,7 L7.5,11 L9,11 L9,7 L7.5,7 Z M15,7 L15,11 L16.5,11 L16.5,7 L15,7 Z" id="Combined-Shape"></path>
        </g>
    </g>
</svg>