<?xml version="1.0" encoding="UTF-8"?>
<svg width="24px" height="24px" viewBox="0 0 24 24" version="1.1" xmlns="http://www.w3.org/2000/svg" xmlns:xlink="http://www.w3.org/1999/xlink">
    <!-- Generator: Sketch 50.2 (55047) - http://www.bohemiancoding.com/sketch -->
    <title>icons_outlined_help</title>
    <desc>Created with Sketch.</desc>
    <defs></defs>
    <g id="icons_outlined_help" stroke="none" stroke-width="1" fill="none" fill-rule="evenodd">
        <g id="icon10" fill="#000000" fill-rule="nonzero">
            <path d="M12,22 C6.4771525,22 2,17.5228475 2,12 C2,6.4771525 6.4771525,2 12,2 C17.5228475,2 22,6.4771525 22,12 C22,17.5228475 17.5228475,22 12,22 Z M12,20.8 C16.8601058,20.8 20.8,16.8601058 20.8,12 C20.8,7.1398942 16.8601058,3.2 12,3.2 C7.1398942,3.2 3.2,7.1398942 3.2,12 C3.2,16.8601058 7.1398942,20.8 12,20.8 Z M9,9.70697674 C9.07674419,8.2 10.0813953,7 12.0418605,7 C13.8,7 15,8.08837209 15,9.5255814 C15,10.6209302 14.4348837,11.3953488 13.5418605,11.9325581 C12.655814,12.455814 12.4046512,12.8465116 12.4046512,13.5790698 L12.4046512,14.0325581 L11.1837209,14.0325581 L11.1837209,13.3906977 C11.1767442,12.4697674 11.6232558,11.8418605 12.5790698,11.2697674 C13.3883721,10.7744186 13.7023256,10.3348837 13.7023256,9.58837209 C13.7023256,8.72325581 13.0325581,8.08837209 11.9930233,8.08837209 C10.9395349,8.08837209 10.2697674,8.70930233 10.1930233,9.70697674 L9,9.70697674 Z M11.7976744,17.2139535 C11.3511628,17.2139535 11.0023256,16.8651163 11.0023256,16.4186047 C11.0023256,15.9651163 11.3511628,15.6232558 11.7976744,15.6232558 C12.2511628,15.6232558 12.5930233,15.9651163 12.5930233,16.4186047 C12.5930233,16.8651163 12.2511628,17.2139535 11.7976744,17.2139535 Z" id="Combined-Shape"></path>
        </g>
    </g>
</svg>