<?xml version="1.0" encoding="UTF-8"?>
<svg width="24px" height="24px" viewBox="0 0 24 24" version="1.1" xmlns="http://www.w3.org/2000/svg" xmlns:xlink="http://www.w3.org/1999/xlink">
    <!-- Generator: Sketch 50.2 (55047) - http://www.bohemiancoding.com/sketch -->
    <title>icons_outlined_float-window_off</title>
    <desc>Created with Sketch.</desc>
    <defs></defs>
    <g id="icons_outlined_float-window_off" stroke="none" stroke-width="1" fill="none" fill-rule="evenodd">
        <g id="icon22" fill="#000000" fill-rule="nonzero">
            <path d="M5.82825116,4.13119431 C7.52799191,2.7961743 9.67101772,2 12,2 C17.5228475,2 22,6.4771525 22,12 C22,14.3289823 21.2038257,16.4720081 19.8688057,18.1717488 L21.4249789,19.7279221 L20.5764507,20.5764502 L3.84852868,3.84852817 L4.69705685,3 L5.82825116,4.13119431 Z M19.0132859,17.3162291 C20.1345611,15.8393094 20.8,13.9973655 20.8,12 C20.8,7.1398942 16.8601058,3.2 12,3.2 C10.0026345,3.2 8.16069062,3.86543891 6.68377095,4.9867141 L8.69113247,6.99407562 C9.63965202,6.36585203 10.7771013,6 12,6 C15.3137085,6 18,8.6862915 18,12 C18,13.2228987 17.634148,14.360348 17.0059244,15.3088675 L19.0132859,17.3162291 Z M16.1354173,14.4383605 C16.5576848,13.7237446 16.8,12.8901702 16.8,12 C16.8,9.3490332 14.6509668,7.2 12,7.2 C11.1098298,7.2 10.2762554,7.44231519 9.56163954,7.8645827 L16.1354173,14.4383605 Z M4.13119431,5.82825116 L4.9867141,6.68377095 C3.86543891,8.16069062 3.2,10.0026345 3.2,12 C3.2,16.8601058 7.1398942,20.8 12,20.8 C13.9973655,20.8 15.8393094,20.1345611 17.3162291,19.0132859 L18.1717488,19.8688057 C16.4720081,21.2038257 14.3289823,22 12,22 C6.4771525,22 2,17.5228475 2,12 C2,9.67101772 2.7961743,7.52799191 4.13119431,5.82825116 Z M6.99407562,8.69113247 L7.8645827,9.56163954 C7.44231519,10.2762554 7.2,11.1098298 7.2,12 C7.2,14.6509668 9.3490332,16.8 12,16.8 C12.8901702,16.8 13.7237446,16.5576848 14.4383605,16.1354173 L15.3088675,17.0059244 C14.360348,17.634148 13.2228987,18 12,18 C8.6862915,18 6,15.3137085 6,12 C6,10.7771013 6.36585203,9.63965202 6.99407562,8.69113247 Z" id="Combined-Shape"></path>
        </g>
    </g>
</svg>