<?xml version="1.0" encoding="UTF-8"?>
<svg width="24px" height="24px" viewBox="0 0 24 24" version="1.1" xmlns="http://www.w3.org/2000/svg" xmlns:xlink="http://www.w3.org/1999/xlink">
    <!-- Generator: Sketch 52.2 (67145) - http://www.bohemiancoding.com/sketch -->
    <title>icons_filled_transfer2</title>
    <desc>Created with Sketch.</desc>
    <g id="icons_filled_transfer2" stroke="none" stroke-width="1" fill="none" fill-rule="evenodd">
        <g id="common_icons_miniprogram" fill="#000000" fill-rule="nonzero">
            <path d="M13.0150338,14.5536734 L11.9008658,16.9301632 C11.8391719,17.0617546 11.853708,17.2164553 11.938835,17.334251 C12.0682302,17.5133036 12.3182766,17.5535588 12.4973291,17.4241636 L17.2974838,13.9552544 C17.4275709,13.8612449 17.5046203,13.7105008 17.5046203,13.5500002 C17.5046203,13.2738578 17.2807627,13.0500002 17.0046203,13.0500002 L13.7199998,13.0500002 L13.7182777,13.0536734 L7,13.0536734 L7,14.5536734 L13.0150338,14.5536734 Z M11.2095863,9.44631611 L12.3237543,7.0698263 C12.3854483,6.93823484 12.3709122,6.7835342 12.2857852,6.66573842 C12.1563899,6.48668585 11.9063436,6.44643061 11.727291,6.57582585 L6.9271363,10.0447351 C6.79704919,10.1387446 6.71999979,10.2894886 6.71999979,10.4499893 C6.71999979,10.7261316 6.94385742,10.9499893 7.21999979,10.9499893 L10.5046203,10.9499893 L10.5063424,10.9463161 L17.2199993,10.9463161 L17.2199993,9.44631611 L11.2095863,9.44631611 Z M12,22 C6.4771525,22 2,17.5228475 2,12 C2,6.4771525 6.4771525,2 12,2 C17.5228475,2 22,6.4771525 22,12 C22,17.5228475 17.5228475,22 12,22 Z" id="Combined-Shape"></path>
        </g>
    </g>
</svg>