<?xml version="1.0" encoding="UTF-8"?>
<svg width="24px" height="24px" viewBox="0 0 24 24" version="1.1" xmlns="http://www.w3.org/2000/svg" xmlns:xlink="http://www.w3.org/1999/xlink">
    <!-- Generator: Sketch 52.2 (67145) - http://www.bohemiancoding.com/sketch -->
    <title>icons_filled_news</title>
    <desc>Created with Sketch.</desc>
    <g id="icons_filled_news" stroke="none" stroke-width="1" fill="none" fill-rule="evenodd">
        <g id="icon27" fill="#000000" fill-rule="nonzero">
            <path d="M7.39064857,10.3147793 L4.06106966,12.20243 L2.94397967,8.07319419 C2.75960559,7.38677578 3.17173588,6.67890679 3.86585005,6.49657689 L8.03053507,5.39187225 L8.0413806,9.18862412 C8.0413806,9.6498115 7.79193332,10.078823 7.39064857,10.3147793 Z M8.0413806,15.2055106 L8.03053507,19.0022624 L3.86585005,17.8975578 C3.17173588,17.7152279 2.75960559,17.0073589 2.94397967,16.3209405 L4.06106966,12.20243 L7.39064857,14.0900806 C7.79193332,14.3153117 8.0413806,14.7443232 8.0413806,15.2055106 Z M12.661578,17.0931612 L15.9803114,19.0022624 L12.9218709,22.0160683 C12.4121308,22.5201568 11.5878702,22.5201568 11.0781301,22.0160683 L8.03053507,19.0022624 L11.3492684,17.0931612 C11.7505532,16.8572049 12.2494478,16.8572049 12.661578,17.0931612 Z M16.6093524,14.0793553 L19.9389313,12.1917047 L21.0560213,16.3102152 C21.2403954,16.9966336 20.8282651,17.7045026 20.1341509,17.8868325 L15.9694659,18.9915371 L15.9586204,15.1947853 C15.9586204,14.7443232 16.2080676,14.3153117 16.6093524,14.0793553 Z M15.9586204,9.18862412 L15.9694659,5.39187225 L20.1341509,6.49657689 C20.8282651,6.67890679 21.2403954,7.38677578 21.0560213,8.07319419 L19.9389313,12.1917047 L16.6093524,10.304054 C16.2080676,10.078823 15.9586204,9.6498115 15.9586204,9.18862412 Z M11.3492684,7.30097348 L8.03053507,5.39187225 L11.0781301,2.37806639 C11.5878702,1.87397787 12.4121308,1.87397787 12.9218709,2.37806639 L15.9694659,5.39187225 L12.6507325,7.30097348 C12.2494478,7.53692981 11.7505532,7.53692981 11.3492684,7.30097348 Z" id="Combined-Shape"></path>
        </g>
    </g>
</svg>