<?xml version="1.0" encoding="UTF-8"?>
<svg width="24px" height="24px" viewBox="0 0 24 24" version="1.1" xmlns="http://www.w3.org/2000/svg" xmlns:xlink="http://www.w3.org/1999/xlink">
    <!-- Generator: Sketch 52.2 (67145) - http://www.bohemiancoding.com/sketch -->
    <title>icons_outlined_volume-down</title>
    <desc>Created with Sketch.</desc>
    <g id="icons_outlined_volume-down" stroke="none" stroke-width="1" fill="none" fill-rule="evenodd">
        <path d="M12,5.41 L7.91421356,9.49578644 L3,9.49578644 L3,14.4957864 L7.91421356,14.4957864 L12,18.5815729 L12,5.41 Z M7.5,8.49578644 L11.2928932,4.70289322 C11.6834175,4.31236893 12.3165825,4.31236893 12.7071068,4.70289322 C12.8946432,4.8904296 13,5.14478351 13,5.41 L13,18.5815729 C13,19.1338576 12.5522847,19.5815729 12,19.5815729 C11.7347835,19.5815729 11.4804296,19.476216 11.2928932,19.2886797 L7.5,15.4957864 L3,15.4957864 C2.44771525,15.4957864 2,15.0480712 2,14.4957864 L2,9.49578644 C2,8.94350169 2.44771525,8.49578644 3,8.49578644 L7.5,8.49578644 Z M15.3284271,14.8242136 C16.0745099,14.0781308 16.5,13.0721592 16.5,11.9957864 C16.5,10.9194137 16.0745099,9.91344208 15.3284271,9.16735931 L16.1769553,8.31883118 C17.1179702,9.25984609 17.7,10.5598461 17.7,11.9957864 C17.7,13.4317268 17.1179702,14.7317268 16.1769553,15.6727417 L15.3284271,14.8242136 Z" id="Combined-Shape" fill="#000000"></path>
    </g>
</svg>