<?xml version="1.0" encoding="UTF-8"?>
<svg width="24px" height="24px" viewBox="0 0 24 24" version="1.1" xmlns="http://www.w3.org/2000/svg" xmlns:xlink="http://www.w3.org/1999/xlink">
    <!-- Generator: Sketch 52.3 (67297) - http://www.bohemiancoding.com/sketch -->
    <title>em-notification_chat-navigationbar_on</title>
    <desc>Created with Sketch.</desc>
    <g id="em-notification_chat-navigationbar_on" stroke="none" stroke-width="1" fill="none" fill-rule="evenodd">
        <g id="Group">
            <g id="分组" transform="translate(5.000000, 1.000000)" fill="#000000" fill-rule="nonzero">
                <path d="M1.2,4.2 L1.2,19.8 L10.8,19.8 L10.8,13 L12,13 L12,20 C12,20.5522847 11.5522847,21 11,21 L1,21 C0.44771525,21 6.76353751e-17,20.5522847 0,20 L0,4 C-6.76353751e-17,3.44771525 0.44771525,3 1,3 L3,3 L3,4.2 L1.2,4.2 Z M5.37018311,0.403436098 L6.35342796,0.403436098 C6.49149915,0.403436098 6.60342796,0.515364911 6.60342796,0.653436098 C6.60342796,0.656182418 6.60338271,0.658928552 6.60329222,0.661673381 L6.46977574,4.71167338 C6.46533207,4.84646477 6.3547761,4.9534361 6.21991148,4.9534361 L5.5036996,4.9534361 C5.36883498,4.9534361 5.25827901,4.84646477 5.25383534,4.71167338 L5.12031885,0.661673381 C5.11576953,0.523677162 5.22394961,0.408121167 5.36194583,0.403571841 C5.36469066,0.403481352 5.36743679,0.403436098 5.37018311,0.403436098 Z M11.946418,2.72012843 L12.6416771,3.41538753 C12.7393082,3.5130186 12.7393082,3.67130985 12.6416771,3.76894092 C12.6397352,3.77088286 12.6377614,3.77279267 12.6357565,3.77466958 L9.67756361,6.54404163 C9.57910956,6.63621138 9.42529453,6.63367666 9.32993084,6.53831297 L8.82349256,6.03187469 C8.72812888,5.93651101 8.72559416,5.78269598 8.81776391,5.68424193 L11.587136,2.72604905 C11.6814972,2.62525413 11.8397025,2.62003857 11.9404974,2.71439977 C11.9425023,2.71627668 11.9444761,2.71818649 11.946418,2.72012843 Z M14.9583694,9.00837757 L14.9583694,9.99162243 C14.9583694,10.1296936 14.8464406,10.2416224 14.7083694,10.2416224 C14.7056231,10.2416224 14.702877,10.2415772 14.7001322,10.2414867 L10.6501322,10.1079702 C10.5153408,10.1035265 10.4083694,9.99297056 10.4083694,9.85810594 L10.4083694,9.14189406 C10.4083694,9.00702944 10.5153408,8.89647347 10.6501322,8.8920298 L14.7001322,8.75851332 C14.8381284,8.75396399 14.9536844,8.86214407 14.9582337,9.00014029 C14.9583242,9.00288512 14.9583694,9.00563125 14.9583694,9.00837757 Z" id="路径-2"></path>
            </g>
            <rect id="Rectangle" x="0" y="0" width="24" height="24"></rect>
        </g>
    </g>
</svg>