<?xml version="1.0" encoding="UTF-8"?>
<svg width="24px" height="24px" viewBox="0 0 24 24" version="1.1" xmlns="http://www.w3.org/2000/svg" xmlns:xlink="http://www.w3.org/1999/xlink">
    <!-- Generator: Sketch 52.2 (67145) - http://www.bohemiancoding.com/sketch -->
    <title>icons_filled_report-problem</title>
    <desc>Created with Sketch.</desc>
    <g id="icons_filled_report-problem" stroke="none" stroke-width="1" fill="none" fill-rule="evenodd">
        <path d="M21.2679717,21.052704 L2.73198946,21.0542575 C2.17970471,21.0543038 1.73195194,20.6066261 1.73190565,20.0543413 C1.73189094,19.8788151 1.77807728,19.7063769 1.86582301,19.5543567 L11.1322606,3.50017172 C11.4083483,3.02184749 12.0199199,2.85790232 12.4982441,3.13398994 C12.6502857,3.22174797 12.7765459,3.34798458 12.8643324,3.50000972 L22.133877,19.5526412 C22.4100541,20.0309138 22.2462233,20.6425161 21.7679507,20.9186932 C21.6159412,21.0064706 21.4435045,21.0526893 21.2679717,21.052704 Z M11.2470703,9.54492188 L11.3642578,15.2109375 L12.6357422,15.2109375 L12.7529297,9.54492188 L11.2470703,9.54492188 Z M11.9970703,18.1171875 C12.4775391,18.1171875 12.8525391,17.7480469 12.8525391,17.2851563 C12.8525391,16.8222656 12.4775391,16.4589844 11.9970703,16.4589844 C11.5224609,16.4589844 11.1474609,16.8222656 11.1474609,17.2851563 C11.1474609,17.7480469 11.5224609,18.1171875 11.9970703,18.1171875 Z" id="Combined-Shape" fill="#000000"></path>
    </g>
</svg>