<?xml version="1.0" encoding="UTF-8"?>
<svg width="24px" height="24px" viewBox="0 0 24 24" version="1.1" xmlns="http://www.w3.org/2000/svg" xmlns:xlink="http://www.w3.org/1999/xlink">
    <!-- Generator: Sketch 52.2 (67145) - http://www.bohemiancoding.com/sketch -->
    <title>icons_outlined_apple-watch</title>
    <desc>Created with Sketch.</desc>
    <g id="icons_outlined_apple-watch" stroke="none" stroke-width="1" fill="none" fill-rule="evenodd">
        <g id="Group" fill="#000000" fill-rule="nonzero">
            <path d="M7.29114394,5.29128512 C8.30176489,5.77387568 9,6.80539707 9,8 L9,16 C9,17.1946029 8.30176489,18.2261243 7.29114394,18.7087149 C8.6484246,20.3524083 10.7018732,21.4 13,21.4 C16.0473407,21.4 18.7489107,19.5410096 19.8676885,16.761572 C20.1462738,16.0694681 20.3263951,15.0493522 20.1315825,14.1235497 C20.0633478,13.7992803 20.270905,13.4810929 20.5951745,13.4128582 C20.9194439,13.3446236 21.2376314,13.5521808 21.305866,13.8764503 C21.4509419,14.5658901 21.4388184,15.2861228 21.3119029,16.0049076 C21.2272422,16.4843829 21.0994419,16.9151348 20.9808907,17.2096576 C19.6807559,20.43965 16.5412362,22.6 13,22.6 C10.1151868,22.6 7.56212742,21.1795933 6.00204127,18.9999993 C6.0013609,18.9999998 6.00068047,19 6,19 C4.34314575,19 3,17.6568542 3,16 L3,8 C3,6.34314575 4.34314575,5 6,5 C6.00068047,5 6.0013609,5.00000023 6.00204127,5.00000068 C7.56212742,2.82040672 10.1151868,1.4 13,1.4 C16.9255917,1.4 20.3239888,4.05245858 21.3234389,7.83404892 C21.644276,9.49992212 21.3280285,10.4203561 20.3369057,11.7693708 C20.2905613,11.8323958 20.2905613,11.8323958 20.245078,11.8943057 C19.7194912,12.6106577 19.5309771,12.9862943 19.4839345,13.5499062 C19.3487467,15.1695764 19.0647416,16.3210237 18.5978264,17.0300063 C18.4155689,17.3067532 18.0434724,17.3833521 17.7667254,17.2010947 C17.4899785,17.0188372 17.4133796,16.6467407 17.595637,16.3699937 C17.926024,15.8683211 18.1682068,14.886435 18.2880928,13.4500938 C18.3582701,12.6093075 18.6312977,12.0652678 19.2775608,11.1844392 C19.3240151,11.1212074 19.3240151,11.1212074 19.3698509,11.0588744 C20.181807,9.9537232 20.3918721,9.34233132 20.1542392,8.10104056 C19.3024134,4.88269663 16.3777648,2.6 13,2.6 C10.7018732,2.6 8.6484246,3.64759165 7.29114394,5.29128512 Z M17.6993339,7.3422394 C17.5103203,7.07006207 17.5777378,6.69619295 17.8499152,6.50717935 C18.1220925,6.31816575 18.4959616,6.38558327 18.6849752,6.6577606 C19.0589871,7.19633324 19.3999114,8.08463704 19.5471566,8.8924006 C19.6065821,9.21839945 19.3904817,9.53084763 19.0644829,9.59027313 C18.738484,9.64969864 18.4260359,9.43359825 18.3666104,9.1075994 C18.2483798,8.45900565 17.9685665,7.72993108 17.6993339,7.3422394 Z M6,6.2 C5.00588745,6.2 4.2,7.00588745 4.2,8 L4.2,16 C4.2,16.9941125 5.00588745,17.8 6,17.8 C6.99411255,17.8 7.8,16.9941125 7.8,16 L7.8,8 C7.8,7.00588745 6.99411255,6.2 6,6.2 Z" id="Combined-Shape"></path>
        </g>
    </g>
</svg>