<?xml version="1.0" encoding="UTF-8"?>
<svg width="32px" height="32px" viewBox="0 0 32 32" version="1.1" xmlns="http://www.w3.org/2000/svg" xmlns:xlink="http://www.w3.org/1999/xlink">
    <!-- Generator: Sketch 52.2 (67145) - http://www.bohemiancoding.com/sketch -->
    <title>Icons_Outlinled_removeBG</title>
    <desc>Created with Sketch.</desc>
    <g id="Icons_Outlinled_removeBG" stroke="none" stroke-width="1" fill="none" fill-rule="evenodd">
        <g id="Group" transform="translate(4.000000, 4.000000)" fill="#000000">
            <path d="M4.8703821,23.2 L1.81818182,23.2 C1.25585553,23.2 0.8,22.7441445 0.8,22.1818182 L0.8,18.1201388 L2.30477131,18.1201388 L2.30477131,21.8 L4.8703821,21.8 L21.666152,21.7843345 L21.666152,18.1109687 L23.1976548,18.1109687 L23.1976548,22.1818182 C23.1976548,22.7441445 22.7417993,23.2 22.179473,23.2 L4.8703821,23.2 Z M1.81818182,0.8 L5.91672895,0.8 L5.91672895,2.34767512 L2.32257725,2.34767512 L2.32257725,5.88353299 L0.8,5.88353299 L0.8,1.81818182 C0.8,1.25585553 1.25585553,0.8 1.81818182,0.8 Z M22.179473,0.8 C22.7417993,0.8 23.1976548,1.25585553 23.1976548,1.81818182 L23.1976548,5.90321652 L21.644531,5.90321652 L21.644531,2.36310276 L18.1407406,2.36310276 L18.1407406,0.8 L22.179473,0.8 Z M8.94545455,0.8 L15.0545455,0.8 L15.0545455,2.32727273 L8.94545455,2.32727273 L8.94545455,0.8 Z M0.8,8.94241781 L2.32727273,8.94241781 L2.32727273,15.0372039 L0.8,15.0372039 L0.8,8.94241781 Z M21.6727273,8.94545455 L23.2,8.94545455 L23.2,15.0402406 L21.6727273,15.0402406 L21.6727273,8.94545455 Z" id="Combined-Shape"></path>
            <path d="M19.9333333,21.8037528 L21.3333333,21.8037528 C21.3333333,21.1236861 20.8432857,20.3419638 20.2387813,20.0462752 L14.6777323,17.3261325 C13.8678335,16.9299769 13.686909,16.053707 14.2660887,15.3652419 L14.6212786,14.9430312 C15.3412669,14.0871883 15.9298246,12.4778249 15.9298246,11.3555903 L15.9298246,9.67094514 C15.9298246,7.49641755 14.1703822,5.73 12,5.73 C9.83403412,5.73 8.07017544,7.49414464 8.07017544,9.67032734 L8.07017544,11.3547085 C8.07017544,12.4780225 8.65603135,14.0826809 9.37872124,14.9416174 L9.7339111,15.3637702 C10.3163247,16.0559845 10.1287916,16.9301172 9.32226741,17.3247853 L3.7612187,20.0460537 C3.15607808,20.3421759 2.66666667,21.1288132 2.66666667,21.8037528 L4.06666667,21.8037528 C4.06666667,21.662614 4.25234501,21.364357 4.37657522,21.3035657 L9.93762393,18.5822973 C11.5634026,17.7867315 11.9726944,15.8500697 10.8051708,14.4624363 L10.4499809,14.0402836 C9.93928249,13.4333047 9.47017544,12.1477268 9.47017544,11.3547085 L9.47017544,9.67032734 C9.47017544,8.26827877 10.6063014,7.13 12,7.13 C13.3954992,7.13 14.5298246,8.26793324 14.5298246,9.67094514 L14.5298246,11.3555903 C14.5298246,12.146465 14.0587001,13.4370331 13.5499581,14.0417697 L13.1947682,14.4639804 C12.0296363,15.8489609 12.4344935,17.7873788 14.0625812,18.5837449 L19.6236301,21.3038877 C19.7494136,21.3654137 19.9333333,21.660131 19.9333333,21.8037528 Z M21.3333333,21.8037528 C21.3333333,21.1236861 20.8432857,20.3419638 20.2387813,20.0462752 L14.6777323,17.3261325 C13.8678335,16.9299769 13.686909,16.053707 14.2660887,15.3652419 L14.6212786,14.9430312 C15.3412669,14.0871883 15.9298246,12.4778249 15.9298246,11.3555903 L15.9298246,9.67094514 C15.9298246,7.49641755 14.1703822,5.73 12,5.73 C9.83403412,5.73 8.07017544,7.49414464 8.07017544,9.67032734 L8.07017544,11.3547085 C8.07017544,12.4780225 8.65603135,14.0826809 9.37872124,14.9416174 L9.7339111,15.3637702 C10.3163247,16.0559845 10.1287916,16.9301172 9.32226741,17.3247853 L3.7612187,20.0460537 C3.15607808,20.3421759 2.66666667,21.1288132 2.66666667,21.8037528 L4.06666667,21.8037528 C4.06666667,21.662614 4.25234501,21.364357 4.37657522,21.3035657 L9.93762393,18.5822973 C11.5634026,17.7867315 11.9726944,15.8500697 10.8051708,14.4624363 L10.4499809,14.0402836 C9.93928249,13.4333047 9.47017544,12.1477268 9.47017544,11.3547085 L9.47017544,9.67032734 C9.47017544,8.26827877 10.6063014,7.13 12,7.13 C13.3954992,7.13 14.5298246,8.26793324 14.5298246,9.67094514 L14.5298246,11.3555903 C14.5298246,12.146465 14.0587001,13.4370331 13.5499581,14.0417697 L13.1947682,14.4639804 C12.0296363,15.8489609 12.4344935,17.7873788 14.0625812,18.5837449 L19.6236301,21.3038877 C19.7494136,21.3654137 19.9333333,21.660131 19.9333333,21.8037528 L21.3333333,21.8037528 Z" id="Path" fill-rule="nonzero"></path>
        </g>
    </g>
</svg>