<?xml version="1.0" encoding="UTF-8"?>
<svg width="24px" height="24px" viewBox="0 0 24 24" version="1.1" xmlns="http://www.w3.org/2000/svg" xmlns:xlink="http://www.w3.org/1999/xlink">
    <!-- Generator: Sketch 52.2 (67145) - http://www.bohemiancoding.com/sketch -->
    <title>icons_filled_bell-ring_off</title>
    <desc>Created with Sketch.</desc>
    <g id="icons_filled_bell-ring_off" stroke="none" stroke-width="1" fill="none" fill-rule="evenodd">
        <path d="M18.4530995,16.3317792 L22.0918831,19.9705627 L21.0312229,21.0312229 L4.06066017,4.06066017 L5.12132034,3 L7.81845045,5.69713011 C8.4398094,5.09318282 9.19153957,4.62265908 10.0273967,4.33180314 C10.0093774,4.22388264 10,4.11303643 10,4 C10,2.8954305 10.8954305,2 12,2 C13.1045695,2 14,2.8954305 14,4 C14,4.11303643 13.9906226,4.22388264 13.9726033,4.33180314 C16.317288,5.14769073 18,7.37733614 18,10 L18,14 C18,14.7772597 18.1510332,15.5545194 18.4530995,16.3317792 Z M17.878704,20.0000243 L13,20.0000041 L13,20.2 C13,20.7522848 12.5522847,21.2 12,21.2 C11.4477153,21.2 11,20.7522848 11,20.2 L11,20 L5.18670673,20 C4.97372563,20 4.76630774,19.9319983 4.59466757,19.8059007 C4.14960038,19.4789265 4.05386708,18.8530633 4.38084128,18.4079961 C5.46027096,16.9386502 6,15.4693251 6,14 L6,10 C6,9.42805163 6.08002731,8.87479463 6.22949529,8.35081564 L17.878704,20.0000243 Z" id="Combined-Shape" fill="#000000" fill-rule="nonzero"></path>
    </g>
</svg>