<?xml version="1.0" encoding="UTF-8"?>
<svg width="8px" height="8px" viewBox="0 0 8 8" version="1.1" xmlns="http://www.w3.org/2000/svg" xmlns:xlink="http://www.w3.org/1999/xlink">
    <!-- Generator: Sketch 52.2 (67145) - http://www.bohemiancoding.com/sketch -->
    <title>OneDayVideo_Avatar_Mark</title>
    <desc>Created with Sketch.</desc>
    <g id="OneDayVideo_Avatar_Mark" stroke="none" stroke-width="1" fill="none" fill-rule="evenodd">
        <path d="M6.38448288,3.24702102 C6.26012117,2.85191719 6.47960103,2.43080716 6.87470486,2.30644545 C7.2698087,2.18208374 7.69091872,2.40156359 7.81528044,2.79666743 C8.25954385,4.20811615 7.89400165,5.76325814 6.82842712,6.82883267 C5.26632996,8.39092983 2.73367004,8.39092983 1.17157288,6.82883267 C-0.390524292,5.2667355 -0.390524292,2.73407558 1.17157288,1.17197842 C2.2371474,0.106403888 3.79228939,-0.259138313 5.20373812,0.185125105 C5.59884195,0.309486817 5.8183218,0.730596846 5.69396009,1.12570068 C5.56959838,1.52080451 5.14848835,1.74028437 4.75338452,1.61592266 C3.87014514,1.33791685 2.89858602,1.56628562 2.23223305,2.23263859 C1.25592232,3.20894932 1.25592232,4.79186176 2.23223305,5.76817249 C3.20854378,6.74448322 4.79145622,6.74448322 5.76776695,5.76817249 C6.43411992,5.10181952 6.66248869,4.1302604 6.38448288,3.24702102 Z" id="Path" fill="#000000" fill-rule="nonzero"></path>
    </g>
</svg>